<svg width="573" height="341" viewBox="0 0 573 341" fill="none" xmlns="http://www.w3.org/2000/svg">
<path d="M118.367 13.0727C121.52 13.0727 124.075 10.5189 124.075 7.36864C124.075 4.21836 121.52 1.66455 118.367 1.66455C115.215 1.66455 112.66 4.21836 112.66 7.36864C112.66 10.5189 115.215 13.0727 118.367 13.0727Z" fill="#7B7B7B"/>
<path d="M118.367 38.5513C121.52 38.5513 124.075 35.9974 124.075 32.8472C124.075 29.6969 121.52 27.1431 118.367 27.1431C115.215 27.1431 112.66 29.6969 112.66 32.8472C112.66 35.9974 115.215 38.5513 118.367 38.5513Z" fill="#757575"/>
<path d="M118.367 64.0288C121.52 64.0288 124.075 61.475 124.075 58.3247C124.075 55.1744 121.52 52.6206 118.367 52.6206C115.215 52.6206 112.66 55.1744 112.66 58.3247C112.66 61.475 115.215 64.0288 118.367 64.0288Z" fill="#797979"/>
<path d="M118.367 89.5073C121.52 89.5073 124.075 86.9535 124.075 83.8032C124.075 80.6529 121.52 78.0991 118.367 78.0991C115.215 78.0991 112.66 80.6529 112.66 83.8032C112.66 86.9535 115.215 89.5073 118.367 89.5073Z" fill="#646464"/>
<path d="M92.8753 13.0727C96.0274 13.0727 98.5826 10.5189 98.5826 7.36864C98.5826 4.21836 96.0274 1.66455 92.8753 1.66455C89.7232 1.66455 87.168 4.21836 87.168 7.36864C87.168 10.5189 89.7232 13.0727 92.8753 13.0727Z" fill="#ABABAB"/>
<path d="M92.8753 38.5513C96.0274 38.5513 98.5826 35.9974 98.5826 32.8472C98.5826 29.6969 96.0274 27.1431 92.8753 27.1431C89.7232 27.1431 87.168 29.6969 87.168 32.8472C87.168 35.9974 89.7232 38.5513 92.8753 38.5513Z" fill="#AEAEAE"/>
<path d="M92.8753 64.0288C96.0274 64.0288 98.5826 61.475 98.5826 58.3247C98.5826 55.1744 96.0274 52.6206 92.8753 52.6206C89.7232 52.6206 87.168 55.1744 87.168 58.3247C87.168 61.475 89.7232 64.0288 92.8753 64.0288Z" fill="#525252"/>
<path d="M92.8753 89.5073C96.0274 89.5073 98.5826 86.9535 98.5826 83.8032C98.5826 80.6529 96.0274 78.0991 92.8753 78.0991C89.7232 78.0991 87.168 80.6529 87.168 83.8032C87.168 86.9535 89.7232 89.5073 92.8753 89.5073Z" fill="#C8C8C8"/>
<path d="M67.3831 13.0727C70.5352 13.0727 73.0904 10.5189 73.0904 7.36864C73.0904 4.21836 70.5352 1.66455 67.3831 1.66455C64.231 1.66455 61.6758 4.21836 61.6758 7.36864C61.6758 10.5189 64.231 13.0727 67.3831 13.0727Z" fill="#D7D7D7"/>
<path d="M67.3831 38.5513C70.5352 38.5513 73.0904 35.9974 73.0904 32.8472C73.0904 29.6969 70.5352 27.1431 67.3831 27.1431C64.231 27.1431 61.6758 29.6969 61.6758 32.8472C61.6758 35.9974 64.231 38.5513 67.3831 38.5513Z" fill="#B6B6B6"/>
<path d="M67.3831 64.0288C70.5352 64.0288 73.0904 61.475 73.0904 58.3247C73.0904 55.1744 70.5352 52.6206 67.3831 52.6206C64.231 52.6206 61.6758 55.1744 61.6758 58.3247C61.6758 61.475 64.231 64.0288 67.3831 64.0288Z" fill="#6B6B6B"/>
<path d="M67.3831 89.5073C70.5352 89.5073 73.0904 86.9535 73.0904 83.8032C73.0904 80.6529 70.5352 78.0991 67.3831 78.0991C64.231 78.0991 61.6758 80.6529 61.6758 83.8032C61.6758 86.9535 64.231 89.5073 67.3831 89.5073Z" fill="#646464"/>
<path d="M41.8909 13.0727C45.043 13.0727 47.5982 10.5189 47.5982 7.36864C47.5982 4.21836 45.043 1.66455 41.8909 1.66455C38.7388 1.66455 36.1836 4.21836 36.1836 7.36864C36.1836 10.5189 38.7388 13.0727 41.8909 13.0727Z" fill="#C7C7C7"/>
<path d="M41.8909 38.5513C45.043 38.5513 47.5982 35.9974 47.5982 32.8472C47.5982 29.6969 45.043 27.1431 41.8909 27.1431C38.7388 27.1431 36.1836 29.6969 36.1836 32.8472C36.1836 35.9974 38.7388 38.5513 41.8909 38.5513Z" fill="#D1D1D1"/>
<path d="M41.8909 64.0288C45.043 64.0288 47.5982 61.475 47.5982 58.3247C47.5982 55.1744 45.043 52.6206 41.8909 52.6206C38.7388 52.6206 36.1836 55.1744 36.1836 58.3247C36.1836 61.475 38.7388 64.0288 41.8909 64.0288Z" fill="#979797"/>
<path d="M41.8909 89.5073C45.043 89.5073 47.5982 86.9535 47.5982 83.8032C47.5982 80.6529 45.043 78.0991 41.8909 78.0991C38.7388 78.0991 36.1836 80.6529 36.1836 83.8032C36.1836 86.9535 38.7388 89.5073 41.8909 89.5073Z" fill="#5A5A5A"/>
<g filter="url(#filter0_f_609_4229)">
<path d="M100.521 164.44C100.521 136.144 114.622 113.207 132.016 113.207H423.46C440.853 113.207 454.954 136.144 454.954 164.44C454.954 192.736 440.853 215.673 423.46 215.673H132.016C114.622 215.673 100.521 192.736 100.521 164.44Z" fill="url(#paint0_linear_609_4229)" fill-opacity="0.4"/>
</g>
<path d="M492.672 18.2095H63.2072C57.722 18.2095 53.2754 25.4428 53.2754 34.3656V306.468C53.2754 315.391 57.722 322.624 63.2072 322.624H492.672C498.157 322.624 502.604 315.391 502.604 306.468V34.3656C502.604 25.4428 498.157 18.2095 492.672 18.2095Z" stroke="white" stroke-opacity="0.05" stroke-width="0.995833"/>
<path d="M517.692 35.2153H38.1857C32.7005 35.2153 28.2539 42.4487 28.2539 51.3715V289.461C28.2539 298.383 32.7005 305.617 38.1857 305.617H517.692C523.178 305.617 527.624 298.383 527.624 289.461V51.3715C527.624 42.4487 523.178 35.2153 517.692 35.2153Z" stroke="white" stroke-opacity="0.05" stroke-width="0.995833"/>
<path d="M467.652 1.20215H88.2286C82.7435 1.20215 78.2969 8.43549 78.2969 17.3583V323.474C78.2969 332.397 82.7435 339.63 88.2286 339.63H467.652C473.137 339.63 477.583 332.397 477.583 323.474V17.3583C477.583 8.43549 473.137 1.20215 467.652 1.20215Z" stroke="white" stroke-opacity="0.05" stroke-width="0.995833"/>
<path d="M527.624 170.416C527.624 193.601 520.713 215.766 508.117 236.008C495.519 256.252 477.263 274.523 454.661 289.884C409.46 320.607 346.98 339.63 277.939 339.63C208.898 339.63 146.417 320.607 101.217 289.884C78.6155 274.523 60.3592 256.252 47.7611 236.008C35.165 215.766 28.2539 193.601 28.2539 170.416C28.2539 147.23 35.165 125.065 47.7611 104.824C60.3592 84.5797 78.6155 66.3093 101.217 50.9471C146.417 20.2245 208.898 1.20215 277.939 1.20215C346.98 1.20215 409.46 20.2245 454.661 50.9471C477.263 66.3093 495.519 84.5797 508.117 104.824C520.713 125.065 527.624 147.23 527.624 170.416Z" stroke="white" stroke-opacity="0.05" stroke-width="0.995833"/>
<path d="M402.517 170.416C402.517 181.862 399.107 192.841 392.842 202.91C386.575 212.981 377.479 222.09 366.197 229.758C343.636 245.093 312.431 254.597 277.937 254.597C243.442 254.597 212.238 245.093 189.676 229.758C178.395 222.09 169.299 212.981 163.032 202.91C156.765 192.841 153.355 181.862 153.355 170.416C153.355 158.971 156.765 147.99 163.032 137.923C169.299 127.85 178.395 118.741 189.676 111.074C212.238 95.7388 243.442 86.2339 277.937 86.2339C312.431 86.2339 343.636 95.7388 366.197 111.074C377.479 118.741 386.575 127.85 392.842 137.923C399.107 147.99 402.517 158.971 402.517 170.416Z" stroke="white" stroke-opacity="0.05" stroke-width="0.995833"/>
<g filter="url(#filter1_f_609_4229)">
<path d="M427.96 0.494878C427.671 0.494878 427.436 0.877173 427.436 1.34876C427.436 1.82034 427.671 2.20264 427.96 2.20264L443.288 2.20264C443.578 2.20264 443.813 1.82034 443.813 1.34876C443.813 0.877173 443.578 0.494878 443.288 0.494878L427.96 0.494878Z" fill="url(#paint1_linear_609_4229)"/>
</g>
<path d="M412.843 0.494878C412.553 0.494878 412.318 0.877173 412.318 1.34876C412.318 1.82034 412.553 2.20264 412.843 2.20264L443.288 2.20264C443.578 2.20264 443.813 1.82034 443.813 1.34876C443.813 0.877173 443.578 0.494878 443.288 0.494878L412.843 0.494878Z" fill="url(#paint2_linear_609_4229)"/>
<g filter="url(#filter2_f_609_4229)">
<path d="M226.31 17.572C226.02 17.572 225.785 17.9543 225.785 18.4259C225.785 18.8975 226.02 19.2798 226.31 19.2798L271.117 19.2798C271.406 19.2798 271.641 18.8975 271.641 18.4259C271.641 17.9543 271.406 17.572 271.117 17.572L226.31 17.572Z" fill="url(#paint3_linear_609_4229)"/>
</g>
<path d="M183.978 17.572C183.688 17.572 183.453 17.9543 183.453 18.4259C183.453 18.8975 183.688 19.2798 183.978 19.2798L271.113 19.2798C271.403 19.2798 271.638 18.8975 271.638 18.4259C271.638 17.9543 271.403 17.572 271.113 17.572L183.978 17.572Z" fill="url(#paint4_linear_609_4229)"/>
<g filter="url(#filter3_f_609_4229)">
<path d="M325.54 323.261C325.829 323.261 326.064 322.879 326.064 322.408C326.064 321.936 325.829 321.554 325.54 321.554H290.014C289.724 321.554 289.489 321.936 289.489 322.408C289.489 322.879 289.724 323.261 290.014 323.261H325.54Z" fill="url(#paint5_linear_609_4229)"/>
</g>
<path d="M359.299 323.261C359.589 323.261 359.824 322.879 359.824 322.408C359.824 321.936 359.589 321.554 359.299 321.554H290.011C289.721 321.554 289.486 321.936 289.486 322.408C289.486 322.879 289.721 323.261 290.011 323.261H359.299Z" fill="url(#paint6_linear_609_4229)"/>
<g filter="url(#filter4_f_609_4229)">
<path d="M108.979 306.184C109.269 306.184 109.504 305.802 109.504 305.33C109.504 304.859 109.269 304.477 108.979 304.477H94.743C94.4531 304.477 94.2181 304.859 94.2181 305.33C94.2181 305.802 94.4531 306.184 94.743 306.184H108.979Z" fill="url(#paint7_linear_609_4229)"/>
</g>
<path d="M123.09 306.184C123.38 306.184 123.615 305.802 123.615 305.33C123.615 304.859 123.38 304.477 123.09 304.477H94.7451C94.4552 304.477 94.2202 304.859 94.2202 305.33C94.2202 305.802 94.4552 306.184 94.7451 306.184H123.09Z" fill="url(#paint8_linear_609_4229)"/>
<g filter="url(#filter5_f_609_4229)">
<path d="M77.4228 243.098C77.4228 243.57 77.6578 243.952 77.9477 243.952C78.2376 243.952 78.4727 243.57 78.4727 243.098V219.941C78.4727 219.469 78.2376 219.087 77.9477 219.087C77.6578 219.087 77.4228 219.469 77.4228 219.941V243.098Z" fill="url(#paint9_linear_609_4229)"/>
</g>
<path d="M77.4228 266.051C77.4228 266.523 77.6578 266.905 77.9477 266.905C78.2376 266.905 78.4727 266.523 78.4727 266.051V219.942C78.4727 219.47 78.2376 219.088 77.9477 219.088C77.6578 219.088 77.4228 219.47 77.4228 219.942V266.051Z" fill="url(#paint10_linear_609_4229)"/>
<path d="M512.425 110.909C512.225 110.568 511.893 110.556 511.683 110.882C511.474 111.208 511.467 111.748 511.667 112.089L512.425 110.909ZM512.423 229.075C518.256 219.298 525.248 201.682 527.289 180.54C529.334 159.35 526.4 134.673 512.425 110.909L511.667 112.089C525.409 135.459 528.248 159.596 526.252 180.274C524.251 201.001 517.384 218.307 511.669 227.886L512.423 229.075Z" fill="url(#paint11_linear_609_4229)"/>
<path d="M43.3035 112.353C31.7551 131.707 15.5874 182.2 43.3035 229.334" stroke="url(#paint12_linear_609_4229)" stroke-linecap="round"/>
<g filter="url(#filter6_f_609_4229)">
<path d="M36.8933 125.402C37.1204 125.696 38.7661 122.94 40.5691 119.247C42.3722 115.554 43.6498 112.323 43.4228 112.03C43.1958 111.736 41.5501 114.492 39.747 118.185C37.9439 121.878 36.6663 125.109 36.8933 125.402Z" fill="#D9D9D9"/>
</g>
<g filter="url(#filter7_f_609_4229)">
<path d="M42.7762 113.343C43.0033 113.636 43.3307 113.58 43.5076 113.218C43.6845 112.855 43.6439 112.324 43.4169 112.031C43.1899 111.737 42.8624 111.793 42.6855 112.156C42.5086 112.518 42.5492 113.049 42.7762 113.343Z" fill="#D9D9D9"/>
</g>
<path d="M440.46 57.2085H100.644C97.3371 57.2085 94.6562 59.8881 94.6562 63.1936V280.594C94.6562 283.899 97.3371 286.579 100.644 286.579H440.46C443.767 286.579 446.448 283.899 446.448 280.594V63.1936C446.448 59.8881 443.767 57.2085 440.46 57.2085Z" fill="url(#paint13_linear_609_4229)"/>
<path d="M420.492 65.3589H118.279C111.665 65.3589 106.303 70.7181 106.303 77.329V82.4965C106.303 89.1075 111.665 94.4667 118.279 94.4667H420.492C427.106 94.4667 432.468 89.1075 432.468 82.4965V77.329C432.468 70.7181 427.106 65.3589 420.492 65.3589Z" fill="#121212"/>
<path d="M423.984 72.3457H359.415C358.588 72.3457 357.918 73.0156 357.918 73.842V87.1498C357.918 87.9761 358.588 88.646 359.415 88.646H423.984C424.81 88.646 425.481 87.9761 425.481 87.1498V73.842C425.481 73.0156 424.81 72.3457 423.984 72.3457Z" fill="url(#paint14_linear_609_4229)" fill-opacity="0.1"/>
<path d="M288.024 139.688H236.769C232.266 139.688 228.615 143.336 228.615 147.838C228.615 152.339 232.266 155.988 236.769 155.988H288.024C292.527 155.988 296.178 152.339 296.178 147.838C296.178 143.336 292.527 139.688 288.024 139.688Z" fill="url(#paint15_linear_609_4229)" fill-opacity="0.2"/>
<path d="M131.93 80.4959C131.93 75.9947 128.279 72.3457 123.775 72.3457C119.272 72.3457 115.621 75.9947 115.621 80.4959C115.621 84.9971 119.272 88.646 123.775 88.646C128.279 88.646 131.93 84.9971 131.93 80.4959Z" fill="#D9D9D9" fill-opacity="0.05"/>
<path d="M226.787 167.819H182.685C181.032 167.819 179.691 169.159 179.691 170.811V198.591C179.691 200.244 181.032 201.584 182.685 201.584H226.787C228.441 201.584 229.781 200.244 229.781 198.591V170.811C229.781 169.159 228.441 167.819 226.787 167.819Z" fill="#D9D9D9" fill-opacity="0.05"/>
<path d="M226.787 208.569H182.685C181.032 208.569 179.691 209.909 179.691 211.562V239.342C179.691 240.995 181.032 242.334 182.685 242.334H226.787C228.441 242.334 229.781 240.995 229.781 239.342V211.562C229.781 209.909 228.441 208.569 226.787 208.569Z" fill="url(#paint16_linear_609_4229)" fill-opacity="0.05"/>
<path d="M320.642 103.592H204.155C202.225 103.592 200.66 105.156 200.66 107.085C200.66 109.014 202.225 110.578 204.155 110.578H320.642C322.572 110.578 324.137 109.014 324.137 107.085C324.137 105.156 322.572 103.592 320.642 103.592Z" fill="#D9D9D9" fill-opacity="0.05"/>
<path d="M304.33 119.893H219.295C218.008 119.893 216.965 120.936 216.965 122.222C216.965 123.508 218.008 124.55 219.295 124.55H304.33C305.617 124.55 306.66 123.508 306.66 122.222C306.66 120.936 305.617 119.893 304.33 119.893Z" fill="#D9D9D9" fill-opacity="0.05"/>
<path d="M304.33 128.043H219.295C218.008 128.043 216.965 129.086 216.965 130.372C216.965 131.658 218.008 132.701 219.295 132.701H304.33C305.617 132.701 306.66 131.658 306.66 130.372C306.66 129.086 305.617 128.043 304.33 128.043Z" fill="#D9D9D9" fill-opacity="0.05"/>
<path d="M319.475 173.641H242.593C241.307 173.641 240.264 174.683 240.264 175.969C240.264 177.255 241.307 178.298 242.593 178.298H319.475C320.762 178.298 321.805 177.255 321.805 175.969C321.805 174.683 320.762 173.641 319.475 173.641Z" fill="#D9D9D9" fill-opacity="0.05"/>
<path d="M297.925 186.449H242.011C241.046 186.449 240.264 187.231 240.264 188.195C240.264 189.16 241.046 189.942 242.011 189.942H297.925C298.89 189.942 299.672 189.16 299.672 188.195C299.672 187.231 298.89 186.449 297.925 186.449Z" fill="#D9D9D9" fill-opacity="0.03"/>
<path d="M297.925 193.434H242.011C241.046 193.434 240.264 194.216 240.264 195.18C240.264 196.145 241.046 196.927 242.011 196.927H297.925C298.89 196.927 299.672 196.145 299.672 195.18C299.672 194.216 298.89 193.434 297.925 193.434Z" fill="#D9D9D9" fill-opacity="0.03"/>
<path d="M319.475 214.392H242.593C241.307 214.392 240.264 215.435 240.264 216.721C240.264 218.007 241.307 219.049 242.593 219.049H319.475C320.762 219.049 321.805 218.007 321.805 216.721C321.805 215.435 320.762 214.392 319.475 214.392Z" fill="url(#paint17_linear_609_4229)" fill-opacity="0.05"/>
<path d="M297.925 227.197H242.011C241.046 227.197 240.264 227.979 240.264 228.944C240.264 229.908 241.046 230.69 242.011 230.69H297.925C298.89 230.69 299.672 229.908 299.672 228.944C299.672 227.979 298.89 227.197 297.925 227.197Z" fill="#D9D9D9" fill-opacity="0.03"/>
<path d="M297.925 234.184H242.011C241.046 234.184 240.264 234.966 240.264 235.93C240.264 236.895 241.046 237.677 242.011 237.677H297.925C298.89 237.677 299.672 236.895 299.672 235.93C299.672 234.966 298.89 234.184 297.925 234.184Z" fill="#D9D9D9" fill-opacity="0.03"/>
<path d="M440.064 56.627H100.247C97.2619 56.627 94.8418 59.0459 94.8418 62.0299V279.43C94.8418 282.414 97.2619 284.833 100.247 284.833H440.064C443.049 284.833 445.469 282.414 445.469 279.43V62.0299C445.469 59.0459 443.049 56.627 440.064 56.627Z" stroke="url(#paint18_linear_609_4229)" stroke-opacity="0.2" stroke-width="0.778146"/>
<path d="M440.066 56.627H100.249C97.2639 56.627 94.8438 59.0459 94.8438 62.0299V279.43C94.8438 282.414 97.2639 284.833 100.249 284.833H440.066C443.051 284.833 445.471 282.414 445.471 279.43V62.0299C445.471 59.0459 443.051 56.627 440.066 56.627Z" stroke="url(#paint19_linear_609_4229)" stroke-opacity="0.75" stroke-width="0.778146"/>
<path d="M552.127 102.235H402.854C396.69 102.235 391.693 107.229 391.693 113.39V131.516C391.693 137.677 396.69 142.671 402.854 142.671H552.127C558.291 142.671 563.288 137.677 563.288 131.516V113.39C563.288 107.229 558.291 102.235 552.127 102.235Z" fill="#141414"/>
<path d="M552.127 102.235H402.854C396.69 102.235 391.693 107.229 391.693 113.39V131.516C391.693 137.677 396.69 142.671 402.854 142.671H552.127C558.291 142.671 563.288 137.677 563.288 131.516V113.39C563.288 107.229 558.291 102.235 552.127 102.235Z" fill="url(#paint20_radial_609_4229)" fill-opacity="0.2"/>
<path d="M425.875 129.424H425.177C424.436 129.424 423.726 129.13 423.203 128.607C422.68 128.084 422.387 127.375 422.387 126.636V118.27C422.387 117.53 422.68 116.821 423.203 116.298C423.726 115.775 424.436 115.481 425.177 115.481H425.875" stroke="url(#paint21_linear_609_4229)" stroke-linecap="round" stroke-linejoin="round"/>
<path d="M418.898 129.425H419.596C420.335 129.425 421.046 129.131 421.569 128.608C422.092 128.085 422.386 127.376 422.386 126.636V125.939" stroke="url(#paint22_linear_609_4229)" stroke-linecap="round" stroke-linejoin="round"/>
<path d="M418.898 115.481H419.596C420.335 115.481 421.046 115.775 421.569 116.298C422.092 116.821 422.386 117.53 422.386 118.27V118.967" stroke="url(#paint23_linear_609_4229)" stroke-linecap="round" stroke-linejoin="round"/>
<path d="M442.588 117.573H444.135L447.231 122.78H447.362L450.458 117.573H452.005L447.972 124.13V128.727H446.621V124.13L442.588 117.573ZM455.795 128.902C455.039 128.902 454.376 128.722 453.806 128.362C453.239 128.003 452.796 127.5 452.476 126.854C452.16 126.207 452.002 125.452 452.002 124.588C452.002 123.716 452.16 122.956 452.476 122.306C452.796 121.656 453.239 121.151 453.806 120.792C454.376 120.432 455.039 120.252 455.795 120.252C456.551 120.252 457.211 120.432 457.779 120.792C458.349 121.151 458.792 121.656 459.108 122.306C459.428 122.956 459.588 123.716 459.588 124.588C459.588 125.452 459.428 126.207 459.108 126.854C458.792 127.5 458.349 128.003 457.779 128.362C457.211 128.722 456.551 128.902 455.795 128.902ZM455.795 127.747C456.368 127.747 456.841 127.6 457.211 127.306C457.582 127.012 457.857 126.625 458.034 126.146C458.213 125.666 458.302 125.147 458.302 124.588C458.302 124.029 458.213 123.508 458.034 123.025C457.857 122.542 457.582 122.152 457.211 121.854C456.841 121.556 456.368 121.407 455.795 121.407C455.22 121.407 454.749 121.556 454.378 121.854C454.008 122.152 453.733 122.542 453.555 123.025C453.377 123.508 453.288 124.029 453.288 124.588C453.288 125.147 453.377 125.666 453.555 126.146C453.733 126.625 454.008 127.012 454.378 127.306C454.749 127.6 455.22 127.747 455.795 127.747ZM466.826 125.307V120.361H468.112V128.727H466.826V127.311H466.739C466.543 127.736 466.237 128.097 465.823 128.395C465.409 128.689 464.885 128.836 464.253 128.836C463.73 128.836 463.266 128.722 462.858 128.493C462.452 128.261 462.132 127.912 461.9 127.447C461.667 126.979 461.551 126.389 461.551 125.677V120.361H462.837V125.59C462.837 126.2 463.008 126.687 463.349 127.05C463.694 127.413 464.133 127.594 464.668 127.594C464.987 127.594 465.312 127.513 465.643 127.349C465.978 127.186 466.258 126.935 466.483 126.598C466.712 126.26 466.826 125.83 466.826 125.307ZM470.467 128.727V120.361H471.71V121.625H471.798C471.95 121.211 472.226 120.875 472.625 120.617C473.026 120.36 473.476 120.231 473.977 120.231C474.072 120.231 474.189 120.233 474.332 120.236C474.474 120.24 474.58 120.245 474.652 120.252V121.56C474.609 121.549 474.51 121.532 474.354 121.511C474.2 121.485 474.039 121.472 473.868 121.472C473.461 121.472 473.098 121.558 472.779 121.728C472.462 121.896 472.211 122.128 472.027 122.426C471.844 122.72 471.753 123.056 471.753 123.433V128.727H470.467ZM481.78 123.695V128.727H480.494V117.573H481.78V121.669H481.889C482.085 121.236 482.38 120.893 482.772 120.639C483.168 120.381 483.694 120.252 484.352 120.252C484.922 120.252 485.421 120.367 485.851 120.596C486.279 120.821 486.611 121.167 486.848 121.636C487.088 122.101 487.207 122.693 487.207 123.411V128.727H485.922V123.499C485.922 122.834 485.749 122.32 485.403 121.957C485.062 121.59 484.588 121.407 483.981 121.407C483.56 121.407 483.182 121.496 482.847 121.674C482.516 121.852 482.256 122.112 482.063 122.453C481.875 122.794 481.78 123.208 481.78 123.695ZM493.07 128.902C492.262 128.902 491.568 128.724 490.983 128.368C490.401 128.008 489.952 127.507 489.637 126.865C489.324 126.218 489.168 125.467 489.168 124.61C489.168 123.753 489.324 122.997 489.637 122.344C489.952 121.687 490.392 121.175 490.955 120.808C491.522 120.438 492.183 120.252 492.939 120.252C493.374 120.252 493.805 120.325 494.231 120.47C494.655 120.616 495.043 120.852 495.392 121.178C495.74 121.501 496.018 121.93 496.224 122.464C496.432 122.997 496.536 123.655 496.536 124.435V124.98H490.083V123.869H495.227C495.227 123.397 495.133 122.976 494.944 122.605C494.76 122.235 494.493 121.943 494.149 121.728C493.807 121.514 493.404 121.407 492.939 121.407C492.427 121.407 491.983 121.534 491.61 121.788C491.238 122.039 490.954 122.366 490.753 122.769C490.553 123.172 490.454 123.604 490.454 124.065V124.806C490.454 125.438 490.563 125.973 490.781 126.412C491.003 126.848 491.31 127.18 491.702 127.409C492.094 127.634 492.55 127.747 493.07 127.747C493.408 127.747 493.713 127.7 493.985 127.605C494.262 127.507 494.499 127.362 494.7 127.17C494.899 126.974 495.053 126.73 495.163 126.44L496.404 126.788C496.273 127.21 496.054 127.58 495.746 127.899C495.436 128.215 495.055 128.462 494.601 128.64C494.147 128.814 493.637 128.902 493.07 128.902ZM500.955 128.923C500.425 128.923 499.944 128.824 499.511 128.624C499.079 128.42 498.736 128.128 498.482 127.747C498.226 127.362 498.099 126.897 498.099 126.353C498.099 125.873 498.194 125.485 498.383 125.187C498.572 124.886 498.825 124.65 499.14 124.479C499.457 124.308 499.806 124.181 500.186 124.098C500.572 124.011 500.959 123.942 501.347 123.891C501.856 123.825 502.268 123.776 502.585 123.744C502.904 123.707 503.137 123.647 503.282 123.564C503.431 123.48 503.505 123.335 503.505 123.128V123.085C503.505 122.547 503.359 122.13 503.064 121.832C502.773 121.534 502.332 121.385 501.739 121.385C501.125 121.385 500.644 121.52 500.295 121.788C499.947 122.057 499.702 122.344 499.56 122.649L498.339 122.213C498.557 121.705 498.849 121.309 499.211 121.026C499.578 120.739 499.977 120.539 500.41 120.427C500.846 120.31 501.275 120.252 501.696 120.252C501.965 120.252 502.274 120.285 502.622 120.35C502.975 120.412 503.314 120.541 503.642 120.737C503.973 120.933 504.246 121.229 504.465 121.625C504.683 122.021 504.792 122.551 504.792 123.215V128.727H503.505V127.594H503.44C503.353 127.776 503.208 127.97 503.005 128.177C502.801 128.384 502.53 128.56 502.193 128.706C501.854 128.851 501.442 128.923 500.955 128.923ZM501.152 127.769C501.66 127.769 502.088 127.669 502.437 127.469C502.79 127.269 503.055 127.012 503.233 126.696C503.415 126.38 503.505 126.048 503.505 125.699V124.523C503.451 124.588 503.331 124.648 503.145 124.702C502.964 124.753 502.753 124.799 502.513 124.838C502.278 124.875 502.046 124.907 501.821 124.936C501.6 124.962 501.42 124.984 501.282 125.002C500.948 125.045 500.636 125.116 500.344 125.214C500.058 125.309 499.825 125.452 499.647 125.645C499.472 125.833 499.386 126.091 499.386 126.418C499.386 126.865 499.55 127.202 499.881 127.431C500.216 127.656 500.638 127.769 501.152 127.769ZM510.299 128.902C509.602 128.902 508.987 128.726 508.452 128.373C507.918 128.017 507.501 127.516 507.2 126.87C506.897 126.22 506.746 125.452 506.746 124.566C506.746 123.687 506.897 122.925 507.2 122.279C507.501 121.632 507.919 121.133 508.458 120.781C508.995 120.429 509.617 120.252 510.322 120.252C510.866 120.252 511.297 120.343 511.614 120.525C511.933 120.703 512.176 120.906 512.343 121.135C512.513 121.36 512.646 121.545 512.741 121.69H512.85V117.573H514.136V128.727H512.894V127.442H512.741C512.646 127.594 512.512 127.787 512.338 128.019C512.163 128.248 511.915 128.453 511.591 128.635C511.268 128.813 510.838 128.902 510.299 128.902ZM510.474 127.747C510.99 127.747 511.425 127.613 511.782 127.344C512.138 127.072 512.409 126.696 512.594 126.216C512.78 125.734 512.872 125.176 512.872 124.544C512.872 123.92 512.781 123.373 512.6 122.905C512.417 122.433 512.149 122.066 511.792 121.805C511.436 121.54 510.997 121.407 510.474 121.407C509.93 121.407 509.475 121.547 509.112 121.827C508.752 122.102 508.482 122.478 508.3 122.954C508.122 123.426 508.032 123.956 508.032 124.544C508.032 125.14 508.123 125.681 508.304 126.167C508.49 126.65 508.763 127.035 509.122 127.322C509.486 127.605 509.937 127.747 510.474 127.747ZM517.956 117.573V128.727H516.671V117.573H517.956ZM520.312 128.727V120.361H521.598V128.727H520.312ZM520.966 118.967C520.715 118.967 520.499 118.882 520.317 118.711C520.139 118.54 520.05 118.335 520.05 118.096C520.05 117.856 520.139 117.651 520.317 117.48C520.499 117.309 520.715 117.224 520.966 117.224C521.216 117.224 521.431 117.309 521.609 117.48C521.791 117.651 521.881 117.856 521.881 118.096C521.881 118.335 521.791 118.54 521.609 118.711C521.431 118.882 521.216 118.967 520.966 118.967ZM525.239 123.695V128.727H523.953V120.361H525.196V121.669H525.305C525.502 121.244 525.799 120.902 526.199 120.645C526.598 120.383 527.114 120.252 527.746 120.252C528.313 120.252 528.809 120.369 529.233 120.601C529.659 120.83 529.989 121.178 530.225 121.647C530.462 122.112 530.58 122.7 530.58 123.411V128.727H529.293V123.499C529.293 122.841 529.123 122.329 528.781 121.963C528.44 121.592 527.971 121.407 527.375 121.407C526.965 121.407 526.598 121.496 526.274 121.674C525.955 121.852 525.702 122.112 525.517 122.453C525.333 122.794 525.239 123.208 525.239 123.695ZM536.439 128.902C535.633 128.902 534.938 128.724 534.352 128.368C533.772 128.008 533.322 127.507 533.007 126.865C532.695 126.218 532.538 125.467 532.538 124.61C532.538 123.753 532.695 122.997 533.007 122.344C533.322 121.687 533.762 121.175 534.325 120.808C534.892 120.438 535.553 120.252 536.309 120.252C536.744 120.252 537.176 120.325 537.601 120.47C538.025 120.616 538.413 120.852 538.762 121.178C539.111 121.501 539.388 121.93 539.595 122.464C539.802 122.997 539.906 123.655 539.906 124.435V124.98H533.453V123.869H538.597C538.597 123.397 538.504 122.976 538.314 122.605C538.128 122.235 537.863 121.943 537.519 121.728C537.177 121.514 536.774 121.407 536.309 121.407C535.797 121.407 535.354 121.534 534.98 121.788C534.609 122.039 534.324 122.366 534.123 122.769C533.924 123.172 533.823 123.604 533.823 124.065V124.806C533.823 125.438 533.933 125.973 534.151 126.412C534.373 126.848 534.68 127.18 535.072 127.409C535.464 127.634 535.92 127.747 536.439 127.747C536.778 127.747 537.082 127.7 537.356 127.605C537.632 127.507 537.869 127.362 538.068 127.17C538.269 126.974 538.423 126.73 538.532 126.44L539.775 126.788C539.643 127.21 539.424 127.58 539.115 127.899C538.806 128.215 538.426 128.462 537.971 128.64C537.517 128.814 537.007 128.902 536.439 128.902Z" fill="white"/>
<path d="M552.129 102.933H402.856C397.077 102.933 392.393 107.615 392.393 113.39V131.516C392.393 137.292 397.077 141.974 402.856 141.974H552.129C557.908 141.974 562.592 137.292 562.592 131.516V113.39C562.592 107.615 557.908 102.933 552.129 102.933Z" stroke="url(#paint24_linear_609_4229)" stroke-opacity="0.2"/>
<path d="M552.129 102.933H402.856C397.077 102.933 392.393 107.615 392.393 113.39V131.516C392.393 137.292 397.077 141.974 402.856 141.974H552.129C557.908 141.974 562.592 137.292 562.592 131.516V113.39C562.592 107.615 557.908 102.933 552.129 102.933Z" stroke="white" stroke-opacity="0.05"/>
<path d="M560.91 267.126H393.5C387.337 267.126 382.34 272.12 382.34 278.281V296.407C382.34 302.567 387.337 307.561 393.5 307.561H560.91C567.074 307.561 572.07 302.567 572.07 296.407V278.281C572.07 272.12 567.074 267.126 560.91 267.126Z" fill="#141414"/>
<path d="M560.91 267.126H393.5C387.337 267.126 382.34 272.12 382.34 278.281V296.407C382.34 302.567 387.337 307.561 393.5 307.561H560.91C567.074 307.561 572.07 302.567 572.07 296.407V278.281C572.07 272.12 567.074 267.126 560.91 267.126Z" fill="url(#paint25_radial_609_4229)" fill-opacity="0.2"/>
<path d="M418.614 283.161L410.941 290.83L407.453 287.344" stroke="url(#paint26_linear_609_4229)" stroke-linecap="round" stroke-linejoin="round"/>
<path d="M436.083 293.618L433.533 285.252H434.885L436.694 291.658H436.781L438.568 285.252H439.942L441.707 291.636H441.795L443.604 285.252H444.955L442.405 293.618H441.141L439.31 287.192H439.179L437.347 293.618H436.083ZM448.553 293.618L446.001 285.252H447.353L449.162 291.658H449.25L451.037 285.252H452.41L454.176 291.636H454.263L456.072 285.252H457.424L454.874 293.618H453.61L451.778 287.192H451.647L449.817 293.618H448.553ZM461.02 293.618L458.47 285.252H459.822L461.631 291.658H461.718L463.505 285.252H464.879L466.644 291.636H466.732L468.541 285.252H469.892L467.342 293.618H466.078L464.247 287.192H464.116L462.284 293.618H461.02ZM471.391 293.706C471.122 293.706 470.892 293.609 470.699 293.416C470.507 293.224 470.411 292.994 470.411 292.725C470.411 292.457 470.507 292.226 470.699 292.033C470.892 291.841 471.122 291.744 471.391 291.744C471.659 291.744 471.891 291.841 472.083 292.033C472.276 292.226 472.372 292.457 472.372 292.725C472.372 292.903 472.326 293.066 472.235 293.215C472.149 293.365 472.03 293.485 471.881 293.575C471.736 293.662 471.573 293.706 471.391 293.706ZM477.841 293.793C477.143 293.793 476.527 293.617 475.992 293.264C475.459 292.909 475.041 292.408 474.74 291.761C474.438 291.111 474.288 290.343 474.288 289.458C474.288 288.578 474.438 287.817 474.74 287.17C475.041 286.523 475.461 286.024 475.998 285.672C476.536 285.319 477.157 285.144 477.862 285.144C478.407 285.144 478.838 285.234 479.154 285.416C479.473 285.594 479.717 285.798 479.885 286.026C480.055 286.251 480.187 286.436 480.282 286.581H480.391V282.464H481.677V293.618H480.434V292.333H480.282C480.187 292.485 480.053 292.679 479.879 292.91C479.705 293.139 479.455 293.344 479.131 293.526C478.809 293.703 478.378 293.793 477.841 293.793ZM478.015 292.638C478.53 292.638 478.967 292.504 479.322 292.235C479.678 291.962 479.949 291.587 480.134 291.107C480.32 290.625 480.412 290.067 480.412 289.435C480.412 288.811 480.321 288.264 480.14 287.796C479.959 287.324 479.689 286.958 479.334 286.696C478.978 286.431 478.538 286.298 478.015 286.298C477.47 286.298 477.016 286.438 476.652 286.718C476.292 286.994 476.022 287.369 475.84 287.845C475.663 288.317 475.574 288.847 475.574 289.435C475.574 290.031 475.665 290.572 475.846 291.058C476.031 291.541 476.303 291.926 476.663 292.213C477.026 292.496 477.477 292.638 478.015 292.638ZM487.612 293.793C486.856 293.793 486.193 293.613 485.623 293.253C485.056 292.893 484.613 292.391 484.293 291.744C483.976 291.099 483.819 290.343 483.819 289.479C483.819 288.607 483.976 287.847 484.293 287.198C484.613 286.546 485.056 286.042 485.623 285.683C486.193 285.324 486.856 285.144 487.612 285.144C488.367 285.144 489.028 285.324 489.594 285.683C490.165 286.042 490.609 286.546 490.925 287.198C491.245 287.847 491.404 288.607 491.404 289.479C491.404 290.343 491.245 291.099 490.925 291.744C490.609 292.391 490.165 292.893 489.594 293.253C489.028 293.613 488.367 293.793 487.612 293.793ZM487.612 292.638C488.185 292.638 488.658 292.49 489.028 292.196C489.399 291.903 489.672 291.516 489.851 291.036C490.03 290.558 490.118 290.038 490.118 289.479C490.118 288.92 490.03 288.399 489.851 287.916C489.672 287.433 489.399 287.043 489.028 286.744C488.658 286.447 488.185 286.298 487.612 286.298C487.037 286.298 486.566 286.447 486.195 286.744C485.823 287.043 485.55 287.433 485.371 287.916C485.194 288.399 485.105 288.92 485.105 289.479C485.105 290.038 485.194 290.558 485.371 291.036C485.55 291.516 485.823 291.903 486.195 292.196C486.566 292.49 487.037 292.638 487.612 292.638ZM493.368 293.618V285.252H494.61V286.559H494.718C494.893 286.113 495.175 285.766 495.564 285.519C495.952 285.269 496.419 285.144 496.965 285.144C497.517 285.144 497.976 285.269 498.343 285.519C498.714 285.766 499.003 286.113 499.209 286.559H499.297C499.511 286.128 499.833 285.785 500.261 285.53C500.689 285.272 501.204 285.144 501.803 285.144C502.552 285.144 503.164 285.378 503.64 285.846C504.116 286.311 504.354 287.036 504.354 288.019V293.618H503.068V288.019C503.068 287.403 502.899 286.961 502.56 286.696C502.223 286.431 501.825 286.298 501.367 286.298C500.779 286.298 500.323 286.477 499.999 286.832C499.677 287.184 499.515 287.631 499.515 288.172V293.618H498.206V287.889C498.206 287.412 498.053 287.03 497.743 286.739C497.435 286.445 497.037 286.298 496.55 286.298C496.215 286.298 495.903 286.387 495.613 286.565C495.325 286.743 495.094 286.99 494.915 287.306C494.741 287.619 494.653 287.98 494.653 288.39V293.618H493.368ZM509.169 293.815C508.639 293.815 508.156 293.715 507.725 293.515C507.292 293.312 506.949 293.019 506.694 292.638C506.44 292.253 506.313 291.788 506.313 291.244C506.313 290.764 506.408 290.375 506.596 290.078C506.785 289.777 507.037 289.541 507.354 289.37C507.67 289.2 508.019 289.073 508.4 288.989C508.785 288.901 509.172 288.833 509.561 288.782C510.07 288.716 510.481 288.667 510.798 288.635C511.118 288.599 511.351 288.539 511.496 288.455C511.644 288.372 511.719 288.227 511.719 288.019V287.976C511.719 287.439 511.571 287.02 511.277 286.723C510.986 286.425 510.546 286.276 509.953 286.276C509.339 286.276 508.858 286.411 508.509 286.679C508.16 286.948 507.915 287.235 507.774 287.541L506.553 287.104C506.771 286.597 507.061 286.201 507.425 285.918C507.792 285.63 508.191 285.431 508.623 285.318C509.06 285.202 509.488 285.144 509.91 285.144C510.179 285.144 510.487 285.176 510.836 285.241C511.189 285.303 511.528 285.432 511.856 285.629C512.186 285.824 512.46 286.12 512.677 286.516C512.896 286.912 513.005 287.442 513.005 288.107V293.618H511.719V292.485H511.653C511.567 292.667 511.42 292.861 511.218 293.068C511.014 293.275 510.744 293.451 510.405 293.596C510.067 293.743 509.656 293.815 509.169 293.815ZM509.364 292.659C509.873 292.659 510.302 292.56 510.65 292.361C511.003 292.16 511.268 291.903 511.447 291.587C511.628 291.27 511.719 290.939 511.719 290.59V289.413C511.665 289.479 511.545 289.539 511.359 289.593C511.178 289.645 510.967 289.689 510.727 289.73C510.491 289.766 510.26 289.798 510.035 289.827C509.813 289.852 509.633 289.875 509.495 289.893C509.162 289.936 508.849 290.007 508.558 290.105C508.272 290.2 508.039 290.343 507.86 290.536C507.686 290.724 507.599 290.982 507.599 291.309C507.599 291.756 507.764 292.093 508.095 292.322C508.429 292.548 508.852 292.659 509.364 292.659ZM515.352 293.618V285.252H516.638V293.618H515.352ZM516.006 283.858C515.755 283.858 515.539 283.773 515.357 283.602C515.18 283.431 515.091 283.227 515.091 282.987C515.091 282.747 515.18 282.542 515.357 282.372C515.539 282.2 515.755 282.115 516.006 282.115C516.257 282.115 516.471 282.2 516.649 282.372C516.83 282.542 516.921 282.747 516.921 282.987C516.921 283.227 516.83 283.431 516.649 283.602C516.471 283.773 516.257 283.858 516.006 283.858ZM520.28 288.586V293.618H518.994V285.252H520.236V286.559H520.345C520.541 286.135 520.84 285.793 521.239 285.536C521.639 285.275 522.154 285.144 522.786 285.144C523.354 285.144 523.849 285.259 524.275 285.492C524.7 285.721 525.031 286.07 525.267 286.538C525.502 287.002 525.621 287.591 525.621 288.303V293.618H524.335V288.39C524.335 287.733 524.163 287.22 523.823 286.853C523.481 286.484 523.012 286.298 522.416 286.298C522.006 286.298 521.639 286.387 521.316 286.565C520.996 286.743 520.744 287.002 520.558 287.344C520.373 287.686 520.28 288.1 520.28 288.586ZM528.908 293.706C528.638 293.706 528.408 293.609 528.216 293.416C528.023 293.224 527.927 292.994 527.927 292.725C527.927 292.457 528.023 292.226 528.216 292.033C528.408 291.841 528.638 291.744 528.908 291.744C529.177 291.744 529.407 291.841 529.6 292.033C529.792 292.226 529.888 292.457 529.888 292.725C529.888 292.903 529.844 293.066 529.753 293.215C529.665 293.365 529.548 293.485 529.399 293.575C529.254 293.662 529.089 293.706 528.908 293.706ZM535.706 293.793C534.9 293.793 534.203 293.614 533.619 293.259C533.037 292.899 532.589 292.398 532.273 291.756C531.96 291.11 531.804 290.357 531.804 289.501C531.804 288.643 531.96 287.889 532.273 287.235C532.589 286.578 533.029 286.065 533.592 285.699C534.159 285.329 534.82 285.144 535.575 285.144C536.011 285.144 536.442 285.216 536.867 285.361C537.292 285.506 537.679 285.743 538.027 286.07C538.376 286.393 538.655 286.821 538.862 287.355C539.068 287.889 539.173 288.546 539.173 289.327V289.87H532.72V288.761H537.864C537.864 288.288 537.769 287.867 537.581 287.496C537.395 287.126 537.13 286.834 536.786 286.619C536.444 286.406 536.041 286.298 535.575 286.298C535.063 286.298 534.621 286.425 534.245 286.679C533.876 286.93 533.59 287.256 533.39 287.66C533.191 288.063 533.09 288.496 533.09 288.956V289.698C533.09 290.329 533.199 290.865 533.418 291.304C533.638 291.739 533.947 292.072 534.339 292.301C534.731 292.525 535.187 292.638 535.706 292.638C536.043 292.638 536.349 292.591 536.621 292.496C536.897 292.398 537.136 292.253 537.335 292.061C537.535 291.864 537.69 291.622 537.798 291.33L539.041 291.679C538.91 292.1 538.691 292.471 538.382 292.79C538.073 293.107 537.691 293.353 537.238 293.531C536.783 293.706 536.272 293.793 535.706 293.793ZM544.507 296.93C543.887 296.93 543.352 296.85 542.904 296.69C542.458 296.534 542.086 296.328 541.788 296.07C541.494 295.816 541.26 295.543 541.085 295.253L542.109 294.533C542.225 294.686 542.373 294.861 542.55 295.056C542.729 295.255 542.973 295.428 543.281 295.573C543.594 295.722 544.002 295.796 544.507 295.796C545.183 295.796 545.741 295.633 546.18 295.307C546.62 294.981 546.84 294.468 546.84 293.77V292.072H546.731C546.636 292.224 546.502 292.412 546.328 292.638C546.156 292.86 545.909 293.058 545.586 293.232C545.266 293.402 544.834 293.487 544.29 293.487C543.613 293.487 543.006 293.328 542.469 293.009C541.935 292.688 541.512 292.224 541.2 291.613C540.89 291.004 540.737 290.264 540.737 289.392C540.737 288.535 540.887 287.789 541.189 287.153C541.49 286.514 541.91 286.021 542.447 285.672C542.985 285.319 543.606 285.144 544.311 285.144C544.856 285.144 545.289 285.234 545.608 285.416C545.932 285.594 546.179 285.798 546.349 286.026C546.523 286.251 546.657 286.436 546.752 286.581H546.883V285.252H548.126V293.858C548.126 294.578 547.962 295.162 547.635 295.612C547.312 296.065 546.876 296.397 546.328 296.609C545.782 296.823 545.176 296.93 544.507 296.93ZM544.464 292.333C544.979 292.333 545.416 292.214 545.771 291.979C546.127 291.743 546.398 291.403 546.583 290.961C546.769 290.517 546.861 289.988 546.861 289.37C546.861 288.768 546.77 288.235 546.589 287.775C546.408 287.313 546.138 286.952 545.783 286.69C545.427 286.429 544.987 286.298 544.464 286.298C543.919 286.298 543.464 286.436 543.101 286.712C542.741 286.988 542.471 287.358 542.289 287.824C542.111 288.288 542.023 288.804 542.023 289.37C542.023 289.951 542.113 290.464 542.295 290.912C542.48 291.354 542.752 291.703 543.112 291.958C543.475 292.207 543.926 292.333 544.464 292.333Z" fill="white"/>
<path d="M560.911 267.824H393.502C387.724 267.824 383.039 272.506 383.039 278.281V296.407C383.039 302.183 387.724 306.865 393.502 306.865H560.911C566.69 306.865 571.374 302.183 571.374 296.407V278.281C571.374 272.506 566.69 267.824 560.911 267.824Z" stroke="url(#paint27_linear_609_4229)" stroke-opacity="0.2"/>
<path d="M560.911 267.824H393.502C387.724 267.824 383.039 272.506 383.039 278.281V296.407C383.039 302.183 387.724 306.865 393.502 306.865H560.911C566.69 306.865 571.374 302.183 571.374 296.407V278.281C571.374 272.506 566.69 267.824 560.911 267.824Z" stroke="white" stroke-opacity="0.05"/>
<path d="M447.135 321.505V315.42H449.417C449.884 315.42 450.278 315.502 450.595 315.664C450.913 315.827 451.154 316.054 451.317 316.347C451.48 316.638 451.563 316.979 451.563 317.366C451.563 317.757 451.48 318.095 451.313 318.383C451.15 318.667 450.907 318.889 450.585 319.045C450.264 319.2 449.871 319.276 449.402 319.276H447.776V318.362H449.254C449.527 318.362 449.751 318.324 449.925 318.249C450.099 318.171 450.229 318.059 450.311 317.913C450.396 317.764 450.44 317.582 450.44 317.366C450.44 317.15 450.396 316.966 450.311 316.814C450.226 316.659 450.096 316.542 449.922 316.463C449.748 316.382 449.523 316.341 449.248 316.341H448.237V321.505H447.135ZM450.279 318.748L451.786 321.505H450.555L449.075 318.748H450.279ZM453.415 321.505V315.42H457.375V316.344H454.518V317.996H457.17V318.919H454.518V320.58H457.398V321.505H453.415ZM463.415 317.363C463.365 317.203 463.297 317.059 463.21 316.933C463.125 316.804 463.022 316.694 462.901 316.602C462.782 316.511 462.645 316.443 462.49 316.397C462.336 316.35 462.168 316.326 461.985 316.326C461.659 316.326 461.367 316.408 461.112 316.573C460.855 316.737 460.654 316.979 460.508 317.298C460.363 317.614 460.29 318.001 460.29 318.457C460.29 318.915 460.363 319.306 460.508 319.624C460.653 319.943 460.854 320.185 461.112 320.351C461.369 320.516 461.669 320.598 462.009 320.598C462.319 320.598 462.585 320.54 462.811 320.42C463.04 320.301 463.214 320.132 463.337 319.915C463.461 319.695 463.523 319.438 463.523 319.143L463.772 319.182H462.119V318.32H464.589V319.051C464.589 319.572 464.478 320.022 464.257 320.403C464.035 320.782 463.729 321.075 463.341 321.281C462.952 321.486 462.507 321.588 462.003 321.588C461.443 321.588 460.95 321.461 460.526 321.21C460.103 320.957 459.774 320.597 459.536 320.133C459.3 319.664 459.183 319.11 459.183 318.468C459.183 317.977 459.251 317.539 459.391 317.153C459.531 316.767 459.727 316.438 459.979 316.168C460.23 315.898 460.526 315.692 460.865 315.551C461.204 315.409 461.572 315.337 461.97 315.337C462.308 315.337 462.622 315.386 462.913 315.485C463.205 315.583 463.463 315.721 463.689 315.902C463.916 316.082 464.103 316.295 464.251 316.544C464.397 316.79 464.494 317.064 464.538 317.363H463.415ZM467.595 315.42V321.505H466.493V315.42H467.595ZM472.935 317.093C472.907 316.834 472.79 316.631 472.584 316.486C472.38 316.343 472.115 316.27 471.787 316.27C471.558 316.27 471.36 316.305 471.196 316.373C471.031 316.443 470.905 316.537 470.819 316.656C470.731 316.775 470.686 316.91 470.685 317.064C470.685 317.19 470.713 317.299 470.772 317.393C470.83 317.486 470.911 317.566 471.011 317.631C471.113 317.694 471.225 317.747 471.348 317.791C471.47 317.835 471.595 317.871 471.719 317.9L472.289 318.044C472.52 318.097 472.741 318.169 472.953 318.26C473.167 318.352 473.358 318.466 473.527 318.604C473.697 318.744 473.832 318.911 473.931 319.108C474.03 319.303 474.079 319.533 474.079 319.796C474.079 320.153 473.989 320.467 473.806 320.738C473.623 321.007 473.359 321.219 473.015 321.371C472.673 321.521 472.257 321.597 471.77 321.597C471.296 321.597 470.885 321.523 470.536 321.376C470.19 321.23 469.918 321.016 469.722 320.735C469.527 320.453 469.423 320.112 469.407 319.707H470.491C470.508 319.919 470.573 320.095 470.688 320.236C470.802 320.376 470.953 320.481 471.137 320.551C471.323 320.621 471.53 320.655 471.761 320.655C472.001 320.655 472.211 320.619 472.391 320.548C472.574 320.474 472.716 320.374 472.82 320.245C472.923 320.114 472.974 319.961 472.977 319.787C472.974 319.629 472.928 319.498 472.836 319.395C472.746 319.29 472.619 319.202 472.454 319.134C472.291 319.063 472.101 318.999 471.883 318.943L471.19 318.766C470.689 318.636 470.293 318.441 470.001 318.18C469.711 317.917 469.568 317.567 469.568 317.132C469.568 316.774 469.664 316.458 469.859 316.189C470.054 315.92 470.321 315.711 470.659 315.563C470.995 315.413 471.377 315.337 471.803 315.337C472.235 315.337 472.613 315.413 472.938 315.563C473.265 315.711 473.521 315.919 473.708 316.184C473.894 316.447 473.99 316.75 473.996 317.093H472.935ZM475.632 316.344V315.42H480.49V316.344H478.608V321.505H477.514V316.344H475.632ZM482.263 321.505V315.42H486.222V316.344H483.365V317.996H486.017V318.919H483.365V320.58H486.246V321.505H482.263ZM488.184 321.505V315.42H490.467C490.935 315.42 491.327 315.502 491.643 315.664C491.963 315.827 492.204 316.054 492.366 316.347C492.531 316.638 492.613 316.979 492.613 317.366C492.613 317.757 492.529 318.095 492.363 318.383C492.199 318.667 491.956 318.889 491.635 319.045C491.314 319.2 490.919 319.276 490.452 319.276H488.827V318.362H490.303C490.576 318.362 490.801 318.324 490.975 318.249C491.149 318.171 491.278 318.059 491.361 317.913C491.447 317.764 491.49 317.582 491.49 317.366C491.49 317.15 491.447 316.966 491.361 316.814C491.276 316.659 491.147 316.542 490.972 316.463C490.798 316.382 490.573 316.341 490.297 316.341H489.287V321.505H488.184ZM491.329 318.748L492.836 321.505H491.606L490.125 318.748H491.329ZM494.466 321.505V315.42H498.425V316.344H495.568V317.996H498.22V318.919H495.568V320.58H498.449V321.505H494.466ZM502.45 321.505H500.386V315.42H502.491C503.095 315.42 503.614 315.542 504.048 315.785C504.485 316.028 504.82 316.375 505.053 316.828C505.287 317.282 505.404 317.825 505.404 318.457C505.404 319.09 505.286 319.635 505.05 320.091C504.817 320.545 504.478 320.895 504.037 321.139C503.596 321.383 503.068 321.505 502.45 321.505ZM501.49 320.551H502.395C502.819 320.551 503.174 320.474 503.457 320.319C503.74 320.163 503.953 319.93 504.096 319.621C504.239 319.31 504.311 318.922 504.311 318.457C504.311 317.991 504.239 317.605 504.096 317.298C503.953 316.988 503.743 316.758 503.462 316.606C503.186 316.451 502.84 316.373 502.429 316.373H501.49V320.551ZM508.559 315.42L508.46 319.716H507.503L507.408 315.42H508.559ZM507.981 321.57C507.801 321.57 507.646 321.506 507.518 321.38C507.391 321.254 507.328 321.099 507.328 320.916C507.328 320.738 507.391 320.586 507.518 320.459C507.646 320.332 507.801 320.269 507.981 320.269C508.158 320.269 508.31 320.332 508.439 320.459C508.57 320.586 508.635 320.738 508.635 320.916C508.635 321.037 508.605 321.148 508.543 321.247C508.483 321.346 508.405 321.424 508.306 321.484C508.208 321.541 508.1 321.57 507.981 321.57Z" fill="white"/>
<defs>
<filter id="filter0_f_609_4229" x="0.521484" y="13.207" width="554.434" height="302.465" filterUnits="userSpaceOnUse" color-interpolation-filters="sRGB">
<feFlood flood-opacity="0" result="BackgroundImageFix"/>
<feBlend mode="normal" in="SourceGraphic" in2="BackgroundImageFix" result="shape"/>
<feGaussianBlur stdDeviation="50" result="effect1_foregroundBlur_609_4229"/>
</filter>
<filter id="filter1_f_609_4229" x="426.936" y="-0.00488281" width="17.377" height="2.70752" filterUnits="userSpaceOnUse" color-interpolation-filters="sRGB">
<feFlood flood-opacity="0" result="BackgroundImageFix"/>
<feBlend mode="normal" in="SourceGraphic" in2="BackgroundImageFix" result="shape"/>
<feGaussianBlur stdDeviation="0.25" result="effect1_foregroundBlur_609_4229"/>
</filter>
<filter id="filter2_f_609_4229" x="225.285" y="17.0723" width="46.8555" height="2.70752" filterUnits="userSpaceOnUse" color-interpolation-filters="sRGB">
<feFlood flood-opacity="0" result="BackgroundImageFix"/>
<feBlend mode="normal" in="SourceGraphic" in2="BackgroundImageFix" result="shape"/>
<feGaussianBlur stdDeviation="0.25" result="effect1_foregroundBlur_609_4229"/>
</filter>
<filter id="filter3_f_609_4229" x="288.988" y="321.054" width="37.5762" height="2.70752" filterUnits="userSpaceOnUse" color-interpolation-filters="sRGB">
<feFlood flood-opacity="0" result="BackgroundImageFix"/>
<feBlend mode="normal" in="SourceGraphic" in2="BackgroundImageFix" result="shape"/>
<feGaussianBlur stdDeviation="0.25" result="effect1_foregroundBlur_609_4229"/>
</filter>
<filter id="filter4_f_609_4229" x="93.7188" y="303.977" width="16.2852" height="2.70752" filterUnits="userSpaceOnUse" color-interpolation-filters="sRGB">
<feFlood flood-opacity="0" result="BackgroundImageFix"/>
<feBlend mode="normal" in="SourceGraphic" in2="BackgroundImageFix" result="shape"/>
<feGaussianBlur stdDeviation="0.25" result="effect1_foregroundBlur_609_4229"/>
</filter>
<filter id="filter5_f_609_4229" x="76.9219" y="218.587" width="2.05078" height="25.8647" filterUnits="userSpaceOnUse" color-interpolation-filters="sRGB">
<feFlood flood-opacity="0" result="BackgroundImageFix"/>
<feBlend mode="normal" in="SourceGraphic" in2="BackgroundImageFix" result="shape"/>
<feGaussianBlur stdDeviation="0.25" result="effect1_foregroundBlur_609_4229"/>
</filter>
<filter id="filter6_f_609_4229" x="34.8672" y="110.008" width="10.582" height="17.4155" filterUnits="userSpaceOnUse" color-interpolation-filters="sRGB">
<feFlood flood-opacity="0" result="BackgroundImageFix"/>
<feBlend mode="normal" in="SourceGraphic" in2="BackgroundImageFix" result="shape"/>
<feGaussianBlur stdDeviation="1" result="effect1_foregroundBlur_609_4229"/>
</filter>
<filter id="filter7_f_609_4229" x="40.5762" y="109.843" width="5.04102" height="5.68799" filterUnits="userSpaceOnUse" color-interpolation-filters="sRGB">
<feFlood flood-opacity="0" result="BackgroundImageFix"/>
<feBlend mode="normal" in="SourceGraphic" in2="BackgroundImageFix" result="shape"/>
<feGaussianBlur stdDeviation="1" result="effect1_foregroundBlur_609_4229"/>
</filter>
<linearGradient id="paint0_linear_609_4229" x1="277.942" y1="113.207" x2="277.942" y2="215.673" gradientUnits="userSpaceOnUse">
<stop stop-color="white"/>
<stop offset="1" stop-color="white" stop-opacity="0"/>
</linearGradient>
<linearGradient id="paint1_linear_609_4229" x1="443.813" y1="1.34876" x2="427.436" y2="1.34876" gradientUnits="userSpaceOnUse">
<stop stop-color="white"/>
<stop offset="1" stop-color="white" stop-opacity="0"/>
</linearGradient>
<linearGradient id="paint2_linear_609_4229" x1="447.128" y1="1.34876" x2="412.318" y2="1.34876" gradientUnits="userSpaceOnUse">
<stop stop-color="white"/>
<stop offset="1" stop-color="#555555" stop-opacity="0"/>
</linearGradient>
<linearGradient id="paint3_linear_609_4229" x1="271.641" y1="18.4259" x2="225.785" y2="18.4259" gradientUnits="userSpaceOnUse">
<stop stop-color="white"/>
<stop offset="1" stop-color="white" stop-opacity="0"/>
</linearGradient>
<linearGradient id="paint4_linear_609_4229" x1="280.921" y1="18.4259" x2="183.453" y2="18.4259" gradientUnits="userSpaceOnUse">
<stop stop-color="white"/>
<stop offset="1" stop-color="#555555" stop-opacity="0"/>
</linearGradient>
<linearGradient id="paint5_linear_609_4229" x1="289.489" y1="322.408" x2="326.064" y2="322.408" gradientUnits="userSpaceOnUse">
<stop stop-color="white"/>
<stop offset="1" stop-color="white" stop-opacity="0"/>
</linearGradient>
<linearGradient id="paint6_linear_609_4229" x1="282.082" y1="322.408" x2="359.824" y2="322.408" gradientUnits="userSpaceOnUse">
<stop stop-color="white"/>
<stop offset="1" stop-color="#555555" stop-opacity="0"/>
</linearGradient>
<linearGradient id="paint7_linear_609_4229" x1="94.2181" y1="305.33" x2="109.504" y2="305.33" gradientUnits="userSpaceOnUse">
<stop stop-color="white"/>
<stop offset="1" stop-color="white" stop-opacity="0"/>
</linearGradient>
<linearGradient id="paint8_linear_609_4229" x1="91.1264" y1="305.33" x2="123.615" y2="305.33" gradientUnits="userSpaceOnUse">
<stop stop-color="white"/>
<stop offset="1" stop-color="#555555" stop-opacity="0"/>
</linearGradient>
<linearGradient id="paint9_linear_609_4229" x1="77.9477" y1="219.087" x2="77.9477" y2="243.952" gradientUnits="userSpaceOnUse">
<stop stop-color="white"/>
<stop offset="1" stop-color="white" stop-opacity="0"/>
</linearGradient>
<linearGradient id="paint10_linear_609_4229" x1="77.9477" y1="214.055" x2="77.9477" y2="266.905" gradientUnits="userSpaceOnUse">
<stop stop-color="white"/>
<stop offset="1" stop-color="#555555" stop-opacity="0"/>
</linearGradient>
<linearGradient id="paint11_linear_609_4229" x1="511.521" y1="227.627" x2="469.982" y2="187.697" gradientUnits="userSpaceOnUse">
<stop offset="0.0677083" stop-color="white"/>
<stop offset="1" stop-color="white" stop-opacity="0"/>
</linearGradient>
<linearGradient id="paint12_linear_609_4229" x1="43.8284" y1="113.206" x2="85.3679" y2="153.136" gradientUnits="userSpaceOnUse">
<stop offset="0.0677083" stop-color="white"/>
<stop offset="1" stop-color="white" stop-opacity="0"/>
</linearGradient>
<linearGradient id="paint13_linear_609_4229" x1="193.192" y1="96.8242" x2="295.242" y2="364.075" gradientUnits="userSpaceOnUse">
<stop stop-color="#2D2D2D"/>
<stop offset="1"/>
</linearGradient>
<linearGradient id="paint14_linear_609_4229" x1="391.699" y1="72.3457" x2="391.699" y2="88.6462" gradientUnits="userSpaceOnUse">
<stop stop-color="white"/>
<stop offset="1" stop-color="#BEBEBE"/>
</linearGradient>
<linearGradient id="paint15_linear_609_4229" x1="262.398" y1="139.688" x2="262.398" y2="155.988" gradientUnits="userSpaceOnUse">
<stop stop-color="white"/>
<stop offset="1" stop-color="#BEBEBE"/>
</linearGradient>
<linearGradient id="paint16_linear_609_4229" x1="204.736" y1="208.569" x2="204.736" y2="242.334" gradientUnits="userSpaceOnUse">
<stop stop-color="#D9D9D9"/>
<stop offset="1" stop-color="#D9D9D9" stop-opacity="0"/>
</linearGradient>
<linearGradient id="paint17_linear_609_4229" x1="281.034" y1="214.392" x2="281.034" y2="219.048" gradientUnits="userSpaceOnUse">
<stop stop-color="#D9D9D9"/>
<stop offset="1" stop-color="#D9D9D9" stop-opacity="0"/>
</linearGradient>
<linearGradient id="paint18_linear_609_4229" x1="270.155" y1="56.0448" x2="270.155" y2="285.415" gradientUnits="userSpaceOnUse">
<stop stop-color="white"/>
<stop offset="1" stop-color="white" stop-opacity="0"/>
</linearGradient>
<linearGradient id="paint19_linear_609_4229" x1="94.2614" y1="56.0448" x2="165.846" y2="199.283" gradientUnits="userSpaceOnUse">
<stop stop-color="white"/>
<stop offset="1" stop-color="white" stop-opacity="0"/>
</linearGradient>
<radialGradient id="paint20_radial_609_4229" cx="0" cy="0" r="1" gradientUnits="userSpaceOnUse" gradientTransform="translate(477.491 122.453) rotate(90) scale(20.2177 85.7972)">
<stop stop-color="white"/>
<stop offset="1" stop-opacity="0"/>
</radialGradient>
<linearGradient id="paint21_linear_609_4229" x1="424.131" y1="115.481" x2="424.131" y2="129.424" gradientUnits="userSpaceOnUse">
<stop stop-color="white"/>
<stop offset="1" stop-color="white" stop-opacity="0.5"/>
</linearGradient>
<linearGradient id="paint22_linear_609_4229" x1="420.642" y1="125.939" x2="420.642" y2="129.425" gradientUnits="userSpaceOnUse">
<stop stop-color="white"/>
<stop offset="1" stop-color="white" stop-opacity="0.5"/>
</linearGradient>
<linearGradient id="paint23_linear_609_4229" x1="420.642" y1="115.481" x2="420.642" y2="118.967" gradientUnits="userSpaceOnUse">
<stop stop-color="white"/>
<stop offset="1" stop-color="white" stop-opacity="0.5"/>
</linearGradient>
<linearGradient id="paint24_linear_609_4229" x1="477.492" y1="102.235" x2="477.492" y2="142.671" gradientUnits="userSpaceOnUse">
<stop stop-color="white"/>
<stop offset="1" stop-color="white" stop-opacity="0"/>
</linearGradient>
<radialGradient id="paint25_radial_609_4229" cx="0" cy="0" r="1" gradientUnits="userSpaceOnUse" gradientTransform="translate(477.205 287.344) rotate(90) scale(20.2177 94.8652)">
<stop stop-color="white"/>
<stop offset="1" stop-opacity="0"/>
</radialGradient>
<linearGradient id="paint26_linear_609_4229" x1="413.034" y1="283.161" x2="413.034" y2="290.83" gradientUnits="userSpaceOnUse">
<stop stop-color="white"/>
<stop offset="1" stop-color="white" stop-opacity="0.5"/>
</linearGradient>
<linearGradient id="paint27_linear_609_4229" x1="477.207" y1="267.127" x2="477.207" y2="307.562" gradientUnits="userSpaceOnUse">
<stop stop-color="white"/>
<stop offset="1" stop-color="white" stop-opacity="0"/>
</linearGradient>
</defs>
</svg>
