<svg width="872" height="868" viewBox="0 0 872 868" fill="none" xmlns="http://www.w3.org/2000/svg">
<g opacity="0.76" filter="url(#filter0_f_1186_2122)">
<path d="M661.826 277.117C714.807 213.472 346.749 203.91 205 205.091L205 663C305.27 660.531 635.672 665.955 661.826 613.952C693.666 550.644 459.567 472.718 459.567 424.556C459.567 378.039 595.599 356.672 661.826 277.117Z" fill="url(#paint0_linear_1186_2122)"/>
</g>
<path d="M199.367 300.073C202.52 300.073 205.075 297.519 205.075 294.369C205.075 291.219 202.52 288.665 199.367 288.665C196.215 288.665 193.66 291.219 193.66 294.369C193.66 297.519 196.215 300.073 199.367 300.073Z" fill="#7B7B7B"/>
<path d="M199.367 325.552C202.52 325.552 205.075 322.998 205.075 319.848C205.075 316.697 202.52 314.144 199.367 314.144C196.215 314.144 193.66 316.697 193.66 319.848C193.66 322.998 196.215 325.552 199.367 325.552Z" fill="#757575"/>
<path d="M199.367 351.029C202.52 351.029 205.075 348.475 205.075 345.325C205.075 342.175 202.52 339.621 199.367 339.621C196.215 339.621 193.66 342.175 193.66 345.325C193.66 348.475 196.215 351.029 199.367 351.029Z" fill="#797979"/>
<path d="M199.367 376.508C202.52 376.508 205.075 373.954 205.075 370.804C205.075 367.653 202.52 365.1 199.367 365.1C196.215 365.1 193.66 367.653 193.66 370.804C193.66 373.954 196.215 376.508 199.367 376.508Z" fill="#646464"/>
<path d="M173.875 300.073C177.027 300.073 179.583 297.519 179.583 294.369C179.583 291.219 177.027 288.665 173.875 288.665C170.723 288.665 168.168 291.219 168.168 294.369C168.168 297.519 170.723 300.073 173.875 300.073Z" fill="#ABABAB"/>
<path d="M173.875 325.552C177.027 325.552 179.583 322.998 179.583 319.848C179.583 316.697 177.027 314.144 173.875 314.144C170.723 314.144 168.168 316.697 168.168 319.848C168.168 322.998 170.723 325.552 173.875 325.552Z" fill="#AEAEAE"/>
<path d="M173.875 351.029C177.027 351.029 179.583 348.475 179.583 345.325C179.583 342.175 177.027 339.621 173.875 339.621C170.723 339.621 168.168 342.175 168.168 345.325C168.168 348.475 170.723 351.029 173.875 351.029Z" fill="#525252"/>
<path d="M173.875 376.508C177.027 376.508 179.583 373.954 179.583 370.804C179.583 367.653 177.027 365.1 173.875 365.1C170.723 365.1 168.168 367.653 168.168 370.804C168.168 373.954 170.723 376.508 173.875 376.508Z" fill="#C8C8C8"/>
<path d="M148.383 300.073C151.535 300.073 154.09 297.519 154.09 294.369C154.09 291.219 151.535 288.665 148.383 288.665C145.231 288.665 142.676 291.219 142.676 294.369C142.676 297.519 145.231 300.073 148.383 300.073Z" fill="#D7D7D7"/>
<path d="M148.383 325.552C151.535 325.552 154.09 322.998 154.09 319.848C154.09 316.697 151.535 314.144 148.383 314.144C145.231 314.144 142.676 316.697 142.676 319.848C142.676 322.998 145.231 325.552 148.383 325.552Z" fill="#B6B6B6"/>
<path d="M148.383 351.029C151.535 351.029 154.09 348.475 154.09 345.325C154.09 342.175 151.535 339.621 148.383 339.621C145.231 339.621 142.676 342.175 142.676 345.325C142.676 348.475 145.231 351.029 148.383 351.029Z" fill="#6B6B6B"/>
<path d="M148.383 376.508C151.535 376.508 154.09 373.954 154.09 370.804C154.09 367.653 151.535 365.1 148.383 365.1C145.231 365.1 142.676 367.653 142.676 370.804C142.676 373.954 145.231 376.508 148.383 376.508Z" fill="#646464"/>
<path d="M122.891 300.073C126.043 300.073 128.598 297.519 128.598 294.369C128.598 291.219 126.043 288.665 122.891 288.665C119.739 288.665 117.184 291.219 117.184 294.369C117.184 297.519 119.739 300.073 122.891 300.073Z" fill="#C7C7C7"/>
<path d="M122.891 325.552C126.043 325.552 128.598 322.998 128.598 319.848C128.598 316.697 126.043 314.144 122.891 314.144C119.739 314.144 117.184 316.697 117.184 319.848C117.184 322.998 119.739 325.552 122.891 325.552Z" fill="#D1D1D1"/>
<path d="M122.891 351.029C126.043 351.029 128.598 348.475 128.598 345.325C128.598 342.175 126.043 339.621 122.891 339.621C119.739 339.621 117.184 342.175 117.184 345.325C117.184 348.475 119.739 351.029 122.891 351.029Z" fill="#979797"/>
<path d="M122.891 376.508C126.043 376.508 128.598 373.954 128.598 370.804C128.598 367.653 126.043 365.1 122.891 365.1C119.739 365.1 117.184 367.653 117.184 370.804C117.184 373.954 119.739 376.508 122.891 376.508Z" fill="#5A5A5A"/>
<g filter="url(#filter1_f_1186_2122)">
<path d="M181.521 451.44C181.521 423.144 195.622 400.207 213.016 400.207H504.46C521.853 400.207 535.954 423.144 535.954 451.44C535.954 479.736 521.853 502.673 504.46 502.673H213.016C195.622 502.673 181.521 479.736 181.521 451.44Z" fill="url(#paint1_linear_1186_2122)" fill-opacity="0.4"/>
</g>
<path d="M573.672 305.21H144.207C138.722 305.21 134.275 312.443 134.275 321.366V593.469C134.275 602.392 138.722 609.625 144.207 609.625H573.672C579.157 609.625 583.604 602.392 583.604 593.469V321.366C583.604 312.443 579.157 305.21 573.672 305.21Z" stroke="white" stroke-opacity="0.05" stroke-width="0.995833"/>
<path d="M598.692 322.216H119.186C113.701 322.216 109.254 329.449 109.254 338.372V576.461C109.254 585.384 113.701 592.617 119.186 592.617H598.692C604.178 592.617 608.624 585.384 608.624 576.461V338.372C608.624 329.449 604.178 322.216 598.692 322.216Z" stroke="white" stroke-opacity="0.05" stroke-width="0.995833"/>
<path d="M548.652 288.202H169.229C163.743 288.202 159.297 295.435 159.297 304.358V610.474C159.297 619.397 163.743 626.63 169.229 626.63H548.652C554.137 626.63 558.583 619.397 558.583 610.474V304.358C558.583 295.435 554.137 288.202 548.652 288.202Z" stroke="white" stroke-opacity="0.05" stroke-width="0.995833"/>
<path d="M608.624 457.416C608.624 480.601 601.713 502.766 589.117 523.008C576.519 543.252 558.263 561.523 535.661 576.884C490.46 607.607 427.98 626.63 358.939 626.63C289.898 626.63 227.417 607.607 182.217 576.884C159.615 561.523 141.359 543.252 128.761 523.008C116.165 502.766 109.254 480.601 109.254 457.416C109.254 434.23 116.165 412.065 128.761 391.824C141.359 371.58 159.615 353.309 182.217 337.947C227.417 307.225 289.898 288.202 358.939 288.202C427.98 288.202 490.46 307.225 535.661 337.947C558.263 353.309 576.519 371.58 589.117 391.824C601.713 412.065 608.624 434.23 608.624 457.416Z" stroke="white" stroke-opacity="0.05" stroke-width="0.995833"/>
<path d="M483.517 457.417C483.517 468.862 480.107 479.841 473.842 489.91C467.575 499.981 458.479 509.09 447.197 516.758C424.636 532.094 393.431 541.597 358.937 541.597C324.442 541.597 293.238 532.094 270.676 516.758C259.395 509.09 250.299 499.981 244.032 489.91C237.765 479.841 234.355 468.862 234.355 457.417C234.355 445.971 237.765 434.991 244.032 424.923C250.299 414.851 259.395 405.742 270.676 398.074C293.238 382.739 324.442 373.234 358.937 373.234C393.431 373.234 424.636 382.739 447.197 398.074C458.479 405.742 467.575 414.851 473.842 424.923C480.107 434.991 483.517 445.971 483.517 457.417Z" stroke="white" stroke-opacity="0.05" stroke-width="0.995833"/>
<g filter="url(#filter2_f_1186_2122)">
<path d="M508.96 287.495C508.671 287.495 508.436 287.878 508.436 288.349C508.436 288.821 508.671 289.203 508.96 289.203H524.288C524.578 289.203 524.813 288.821 524.813 288.349C524.813 287.878 524.578 287.495 524.288 287.495H508.96Z" fill="url(#paint2_linear_1186_2122)"/>
</g>
<path d="M493.843 287.495C493.553 287.495 493.318 287.878 493.318 288.349C493.318 288.821 493.553 289.203 493.843 289.203H524.288C524.578 289.203 524.813 288.821 524.813 288.349C524.813 287.878 524.578 287.495 524.288 287.495H493.843Z" fill="url(#paint3_linear_1186_2122)"/>
<g filter="url(#filter3_f_1186_2122)">
<path d="M307.31 304.573C307.02 304.573 306.785 304.955 306.785 305.426C306.785 305.898 307.02 306.28 307.31 306.28H352.117C352.406 306.28 352.641 305.898 352.641 305.426C352.641 304.955 352.406 304.573 352.117 304.573H307.31Z" fill="url(#paint4_linear_1186_2122)"/>
</g>
<path d="M264.978 304.573C264.688 304.573 264.453 304.955 264.453 305.426C264.453 305.898 264.688 306.28 264.978 306.28H352.113C352.403 306.28 352.638 305.898 352.638 305.426C352.638 304.955 352.403 304.573 352.113 304.573H264.978Z" fill="url(#paint5_linear_1186_2122)"/>
<g filter="url(#filter4_f_1186_2122)">
<path d="M406.54 610.261C406.829 610.261 407.064 609.879 407.064 609.408C407.064 608.936 406.829 608.554 406.54 608.554H371.014C370.724 608.554 370.489 608.936 370.489 609.408C370.489 609.879 370.724 610.261 371.014 610.261H406.54Z" fill="url(#paint6_linear_1186_2122)"/>
</g>
<path d="M440.299 610.261C440.589 610.261 440.824 609.879 440.824 609.408C440.824 608.936 440.589 608.554 440.299 608.554H371.011C370.721 608.554 370.486 608.936 370.486 609.408C370.486 609.879 370.721 610.261 371.011 610.261H440.299Z" fill="url(#paint7_linear_1186_2122)"/>
<g filter="url(#filter5_f_1186_2122)">
<path d="M189.979 593.184C190.269 593.184 190.504 592.802 190.504 592.33C190.504 591.859 190.269 591.477 189.979 591.477H175.743C175.453 591.477 175.218 591.859 175.218 592.33C175.218 592.802 175.453 593.184 175.743 593.184H189.979Z" fill="url(#paint8_linear_1186_2122)"/>
</g>
<path d="M204.09 593.184C204.38 593.184 204.615 592.802 204.615 592.33C204.615 591.859 204.38 591.477 204.09 591.477H175.745C175.455 591.477 175.22 591.859 175.22 592.33C175.22 592.802 175.455 593.184 175.745 593.184H204.09Z" fill="url(#paint9_linear_1186_2122)"/>
<g filter="url(#filter6_f_1186_2122)">
<path d="M158.423 530.099C158.423 530.571 158.658 530.953 158.948 530.953C159.238 530.953 159.473 530.571 159.473 530.099V506.942C159.473 506.47 159.238 506.088 158.948 506.088C158.658 506.088 158.423 506.47 158.423 506.942V530.099Z" fill="url(#paint10_linear_1186_2122)"/>
</g>
<path d="M158.423 553.051C158.423 553.523 158.658 553.905 158.948 553.905C159.238 553.905 159.473 553.523 159.473 553.051V506.942C159.473 506.47 159.238 506.088 158.948 506.088C158.658 506.088 158.423 506.47 158.423 506.942V553.051Z" fill="url(#paint11_linear_1186_2122)"/>
<path d="M593.425 397.909C593.225 397.568 592.893 397.556 592.683 397.882C592.474 398.208 592.467 398.749 592.667 399.09L593.425 397.909ZM593.423 516.075C599.256 506.298 606.248 488.683 608.289 467.541C610.334 446.351 607.4 421.674 593.425 397.909L592.667 399.09C606.409 422.459 609.248 446.597 607.252 467.274C605.251 488.001 598.384 505.308 592.669 514.887L593.423 516.075Z" fill="url(#paint12_linear_1186_2122)"/>
<path d="M124.304 399.353C112.755 418.707 96.5874 469.2 124.304 516.334" stroke="url(#paint13_linear_1186_2122)" stroke-linecap="round"/>
<g filter="url(#filter7_f_1186_2122)">
<path d="M117.893 412.403C118.12 412.696 119.766 409.94 121.569 406.248C123.372 402.555 124.65 399.323 124.423 399.03C124.196 398.737 122.55 401.493 120.747 405.185C118.944 408.878 117.666 412.11 117.893 412.403Z" fill="#D9D9D9"/>
</g>
<g filter="url(#filter8_f_1186_2122)">
<path d="M123.776 400.343C124.003 400.637 124.331 400.581 124.508 400.218C124.685 399.856 124.644 399.324 124.417 399.031C124.19 398.738 123.862 398.794 123.686 399.156C123.509 399.518 123.549 400.05 123.776 400.343Z" fill="#D9D9D9"/>
</g>
<path d="M521.46 344.209H181.644C178.337 344.209 175.656 346.889 175.656 350.194V567.594C175.656 570.9 178.337 573.579 181.644 573.579H521.46C524.767 573.579 527.448 570.9 527.448 567.594V350.194C527.448 346.889 524.767 344.209 521.46 344.209Z" fill="url(#paint14_linear_1186_2122)"/>
<path d="M501.492 352.359H199.279C192.665 352.359 187.303 357.719 187.303 364.33V369.497C187.303 376.108 192.665 381.467 199.279 381.467H501.492C508.106 381.467 513.468 376.108 513.468 369.497V364.33C513.468 357.719 508.106 352.359 501.492 352.359Z" fill="#121212"/>
<path d="M504.984 359.346H440.415C439.588 359.346 438.918 360.016 438.918 360.842V374.15C438.918 374.976 439.588 375.646 440.415 375.646H504.984C505.81 375.646 506.481 374.976 506.481 374.15V360.842C506.481 360.016 505.81 359.346 504.984 359.346Z" fill="url(#paint15_linear_1186_2122)" fill-opacity="0.1"/>
<path d="M369.024 426.688H317.769C313.266 426.688 309.615 430.337 309.615 434.839C309.615 439.34 313.266 442.989 317.769 442.989H369.024C373.527 442.989 377.178 439.34 377.178 434.839C377.178 430.337 373.527 426.688 369.024 426.688Z" fill="url(#paint16_linear_1186_2122)" fill-opacity="0.2"/>
<path d="M212.93 367.496C212.93 362.995 209.279 359.346 204.775 359.346C200.272 359.346 196.621 362.995 196.621 367.496C196.621 371.997 200.272 375.646 204.775 375.646C209.279 375.646 212.93 371.997 212.93 367.496Z" fill="#D9D9D9" fill-opacity="0.05"/>
<path d="M307.787 454.819H263.685C262.032 454.819 260.691 456.159 260.691 457.812V485.592C260.691 487.245 262.032 488.584 263.685 488.584H307.787C309.441 488.584 310.781 487.245 310.781 485.592V457.812C310.781 456.159 309.441 454.819 307.787 454.819Z" fill="#D9D9D9" fill-opacity="0.05"/>
<path d="M307.787 495.57H263.685C262.032 495.57 260.691 496.91 260.691 498.563V526.343C260.691 527.996 262.032 529.335 263.685 529.335H307.787C309.441 529.335 310.781 527.996 310.781 526.343V498.563C310.781 496.91 309.441 495.57 307.787 495.57Z" fill="url(#paint17_linear_1186_2122)" fill-opacity="0.05"/>
<path d="M401.642 390.593H285.155C283.225 390.593 281.66 392.157 281.66 394.086C281.66 396.015 283.225 397.579 285.155 397.579H401.642C403.572 397.579 405.137 396.015 405.137 394.086C405.137 392.157 403.572 390.593 401.642 390.593Z" fill="#D9D9D9" fill-opacity="0.05"/>
<path d="M385.33 406.894H300.295C299.008 406.894 297.965 407.936 297.965 409.222C297.965 410.508 299.008 411.551 300.295 411.551H385.33C386.617 411.551 387.66 410.508 387.66 409.222C387.66 407.936 386.617 406.894 385.33 406.894Z" fill="#D9D9D9" fill-opacity="0.05"/>
<path d="M385.33 415.044H300.295C299.008 415.044 297.965 416.087 297.965 417.373C297.965 418.659 299.008 419.701 300.295 419.701H385.33C386.617 419.701 387.66 418.659 387.66 417.373C387.66 416.087 386.617 415.044 385.33 415.044Z" fill="#D9D9D9" fill-opacity="0.05"/>
<path d="M400.475 460.641H323.593C322.307 460.641 321.264 461.683 321.264 462.969C321.264 464.255 322.307 465.298 323.593 465.298H400.475C401.762 465.298 402.805 464.255 402.805 462.969C402.805 461.683 401.762 460.641 400.475 460.641Z" fill="#D9D9D9" fill-opacity="0.05"/>
<path d="M378.925 473.449H323.011C322.046 473.449 321.264 474.231 321.264 475.196C321.264 476.16 322.046 476.942 323.011 476.942H378.925C379.89 476.942 380.672 476.16 380.672 475.196C380.672 474.231 379.89 473.449 378.925 473.449Z" fill="#D9D9D9" fill-opacity="0.03"/>
<path d="M378.925 480.434H323.011C322.046 480.434 321.264 481.216 321.264 482.18C321.264 483.145 322.046 483.927 323.011 483.927H378.925C379.89 483.927 380.672 483.145 380.672 482.18C380.672 481.216 379.89 480.434 378.925 480.434Z" fill="#D9D9D9" fill-opacity="0.03"/>
<path d="M400.475 501.393H323.593C322.307 501.393 321.264 502.435 321.264 503.721C321.264 505.007 322.307 506.05 323.593 506.05H400.475C401.762 506.05 402.805 505.007 402.805 503.721C402.805 502.435 401.762 501.393 400.475 501.393Z" fill="url(#paint18_linear_1186_2122)" fill-opacity="0.05"/>
<path d="M378.925 514.198H323.011C322.046 514.198 321.264 514.98 321.264 515.945C321.264 516.909 322.046 517.691 323.011 517.691H378.925C379.89 517.691 380.672 516.909 380.672 515.945C380.672 514.98 379.89 514.198 378.925 514.198Z" fill="#D9D9D9" fill-opacity="0.03"/>
<path d="M378.925 521.184H323.011C322.046 521.184 321.264 521.966 321.264 522.93C321.264 523.895 322.046 524.677 323.011 524.677H378.925C379.89 524.677 380.672 523.895 380.672 522.93C380.672 521.966 379.89 521.184 378.925 521.184Z" fill="#D9D9D9" fill-opacity="0.03"/>
<path d="M521.064 343.627H181.247C178.262 343.627 175.842 346.046 175.842 349.03V566.43C175.842 569.414 178.262 571.833 181.247 571.833H521.064C524.049 571.833 526.469 569.414 526.469 566.43V349.03C526.469 346.046 524.049 343.627 521.064 343.627Z" stroke="url(#paint19_linear_1186_2122)" stroke-opacity="0.2" stroke-width="0.778146"/>
<path d="M521.066 343.627H181.249C178.264 343.627 175.844 346.046 175.844 349.03V566.43C175.844 569.414 178.264 571.833 181.249 571.833H521.066C524.051 571.833 526.471 569.414 526.471 566.43V349.03C526.471 346.046 524.051 343.627 521.066 343.627Z" stroke="url(#paint20_linear_1186_2122)" stroke-opacity="0.75" stroke-width="0.778146"/>
<path d="M633.127 389.235H483.854C477.69 389.235 472.693 394.229 472.693 400.39V418.516C472.693 424.677 477.69 429.671 483.854 429.671H633.127C639.291 429.671 644.288 424.677 644.288 418.516V400.39C644.288 394.229 639.291 389.235 633.127 389.235Z" fill="#141414"/>
<path d="M633.127 389.235H483.854C477.69 389.235 472.693 394.229 472.693 400.39V418.516C472.693 424.677 477.69 429.671 483.854 429.671H633.127C639.291 429.671 644.288 424.677 644.288 418.516V400.39C644.288 394.229 639.291 389.235 633.127 389.235Z" fill="url(#paint21_radial_1186_2122)" fill-opacity="0.2"/>
<path d="M506.875 416.424H506.177C505.436 416.424 504.726 416.13 504.203 415.607C503.68 415.084 503.387 414.375 503.387 413.635V405.269C503.387 404.53 503.68 403.82 504.203 403.297C504.726 402.774 505.436 402.48 506.177 402.48H506.875" stroke="url(#paint22_linear_1186_2122)" stroke-linecap="round" stroke-linejoin="round"/>
<path d="M499.898 416.425H500.596C501.335 416.425 502.046 416.131 502.569 415.608C503.092 415.085 503.386 414.376 503.386 413.637V412.939" stroke="url(#paint23_linear_1186_2122)" stroke-linecap="round" stroke-linejoin="round"/>
<path d="M499.898 402.48H500.596C501.335 402.48 502.046 402.774 502.569 403.297C503.092 403.82 503.386 404.53 503.386 405.269V405.966" stroke="url(#paint24_linear_1186_2122)" stroke-linecap="round" stroke-linejoin="round"/>
<path d="M523.588 404.573H525.135L528.231 409.78H528.362L531.458 404.573H533.005L528.972 411.131V415.728H527.621V411.131L523.588 404.573ZM536.795 415.902C536.039 415.902 535.376 415.722 534.806 415.363C534.239 415.003 533.796 414.501 533.476 413.854C533.16 413.208 533.002 412.453 533.002 411.588C533.002 410.717 533.16 409.956 533.476 409.306C533.796 408.656 534.239 408.152 534.806 407.792C535.376 407.433 536.039 407.253 536.795 407.253C537.551 407.253 538.211 407.433 538.779 407.792C539.349 408.152 539.792 408.656 540.108 409.306C540.428 409.956 540.588 410.717 540.588 411.588C540.588 412.453 540.428 413.208 540.108 413.854C539.792 414.501 539.349 415.003 538.779 415.363C538.211 415.722 537.551 415.902 536.795 415.902ZM536.795 414.747C537.368 414.747 537.841 414.6 538.211 414.306C538.582 414.012 538.857 413.625 539.034 413.146C539.213 412.667 539.302 412.148 539.302 411.588C539.302 411.029 539.213 410.508 539.034 410.025C538.857 409.542 538.582 409.152 538.211 408.854C537.841 408.557 537.368 408.408 536.795 408.408C536.22 408.408 535.749 408.557 535.378 408.854C535.008 409.152 534.733 409.542 534.555 410.025C534.377 410.508 534.288 411.029 534.288 411.588C534.288 412.148 534.377 412.667 534.555 413.146C534.733 413.625 535.008 414.012 535.378 414.306C535.749 414.6 536.22 414.747 536.795 414.747ZM547.826 412.307V407.362H549.112V415.728H547.826V414.312H547.739C547.543 414.737 547.237 415.098 546.823 415.396C546.409 415.69 545.885 415.837 545.253 415.837C544.73 415.837 544.266 415.722 543.858 415.494C543.452 415.261 543.132 414.913 542.9 414.448C542.667 413.979 542.551 413.389 542.551 412.678V407.362H543.837V412.591C543.837 413.201 544.008 413.687 544.349 414.05C544.694 414.413 545.133 414.595 545.668 414.595C545.987 414.595 546.312 414.513 546.643 414.35C546.978 414.186 547.258 413.936 547.483 413.598C547.712 413.261 547.826 412.83 547.826 412.307ZM551.467 415.728V407.362H552.71V408.625H552.798C552.95 408.212 553.226 407.876 553.625 407.618C554.026 407.36 554.476 407.231 554.977 407.231C555.072 407.231 555.189 407.233 555.332 407.237C555.474 407.24 555.58 407.246 555.652 407.253V408.56C555.609 408.549 555.51 408.533 555.354 408.511C555.2 408.486 555.039 408.473 554.868 408.473C554.461 408.473 554.098 408.558 553.779 408.729C553.462 408.896 553.211 409.128 553.027 409.426C552.844 409.72 552.753 410.056 552.753 410.434V415.728H551.467ZM562.78 410.695V415.728H561.494V404.573H562.78V408.669H562.889C563.085 408.237 563.38 407.894 563.772 407.64C564.168 407.382 564.694 407.253 565.352 407.253C565.922 407.253 566.421 407.367 566.851 407.596C567.279 407.821 567.611 408.168 567.848 408.636C568.088 409.101 568.207 409.693 568.207 410.412V415.728H566.922V410.499C566.922 409.835 566.749 409.321 566.403 408.958C566.062 408.591 565.588 408.408 564.981 408.408C564.56 408.408 564.182 408.497 563.847 408.674C563.516 408.852 563.256 409.112 563.063 409.453C562.875 409.795 562.78 410.209 562.78 410.695ZM574.07 415.902C573.262 415.902 572.568 415.724 571.983 415.368C571.401 415.009 570.952 414.508 570.637 413.865C570.324 413.219 570.168 412.467 570.168 411.61C570.168 410.753 570.324 409.998 570.637 409.344C570.952 408.687 571.392 408.175 571.955 407.808C572.522 407.438 573.183 407.253 573.939 407.253C574.374 407.253 574.805 407.326 575.231 407.471C575.655 407.616 576.043 407.852 576.392 408.179C576.74 408.502 577.018 408.93 577.224 409.464C577.432 409.998 577.536 410.655 577.536 411.436V411.981H571.083V410.869H576.227C576.227 410.397 576.133 409.976 575.944 409.606C575.76 409.235 575.493 408.943 575.149 408.729C574.807 408.515 574.404 408.408 573.939 408.408C573.427 408.408 572.983 408.535 572.61 408.789C572.238 409.039 571.954 409.366 571.753 409.769C571.553 410.172 571.454 410.604 571.454 411.065V411.806C571.454 412.438 571.563 412.974 571.781 413.413C572.003 413.849 572.31 414.181 572.702 414.41C573.094 414.635 573.55 414.747 574.07 414.747C574.408 414.747 574.713 414.7 574.985 414.606C575.262 414.508 575.499 414.362 575.7 414.17C575.899 413.974 576.053 413.731 576.163 413.44L577.404 413.789C577.273 414.21 577.054 414.58 576.746 414.9C576.436 415.216 576.055 415.463 575.601 415.641C575.147 415.815 574.637 415.902 574.07 415.902ZM581.955 415.924C581.425 415.924 580.944 415.824 580.511 415.624C580.079 415.421 579.736 415.129 579.482 414.747C579.226 414.362 579.099 413.898 579.099 413.353C579.099 412.874 579.194 412.485 579.383 412.187C579.572 411.886 579.825 411.65 580.14 411.479C580.457 411.309 580.806 411.182 581.186 411.098C581.572 411.011 581.959 410.942 582.347 410.891C582.856 410.826 583.268 410.777 583.585 410.744C583.904 410.708 584.137 410.648 584.282 410.564C584.431 410.481 584.505 410.336 584.505 410.129V410.085C584.505 409.548 584.359 409.13 584.064 408.832C583.773 408.535 583.332 408.386 582.739 408.386C582.125 408.386 581.644 408.52 581.295 408.789C580.947 409.057 580.702 409.344 580.56 409.649L579.339 409.214C579.557 408.705 579.849 408.31 580.211 408.026C580.578 407.739 580.977 407.54 581.41 407.427C581.846 407.311 582.275 407.253 582.696 407.253C582.965 407.253 583.274 407.286 583.622 407.351C583.975 407.413 584.314 407.542 584.642 407.738C584.973 407.934 585.246 408.23 585.465 408.625C585.683 409.021 585.792 409.551 585.792 410.216V415.728H584.505V414.595H584.44C584.353 414.776 584.208 414.971 584.005 415.178C583.801 415.385 583.53 415.561 583.193 415.706C582.854 415.851 582.442 415.924 581.955 415.924ZM582.152 414.769C582.66 414.769 583.088 414.669 583.437 414.47C583.79 414.27 584.055 414.012 584.233 413.696C584.415 413.38 584.505 413.048 584.505 412.699V411.523C584.451 411.588 584.331 411.648 584.145 411.703C583.964 411.754 583.753 411.799 583.513 411.839C583.278 411.875 583.046 411.908 582.821 411.937C582.6 411.962 582.42 411.984 582.282 412.002C581.948 412.046 581.636 412.117 581.344 412.215C581.058 412.309 580.825 412.453 580.647 412.645C580.472 412.834 580.386 413.092 580.386 413.418C580.386 413.865 580.55 414.203 580.881 414.431C581.216 414.657 581.638 414.769 582.152 414.769ZM591.299 415.902C590.602 415.902 589.987 415.726 589.452 415.374C588.918 415.018 588.501 414.517 588.2 413.871C587.897 413.221 587.746 412.453 587.746 411.567C587.746 410.688 587.897 409.925 588.2 409.279C588.501 408.633 588.919 408.133 589.458 407.781C589.995 407.429 590.617 407.253 591.322 407.253C591.866 407.253 592.297 407.344 592.614 407.525C592.933 407.703 593.176 407.906 593.343 408.135C593.513 408.36 593.646 408.546 593.741 408.691H593.85V404.573H595.136V415.728H593.894V414.442H593.741C593.646 414.595 593.512 414.787 593.338 415.02C593.163 415.248 592.915 415.454 592.591 415.635C592.268 415.813 591.838 415.902 591.299 415.902ZM591.474 414.747C591.99 414.747 592.425 414.613 592.782 414.344C593.138 414.072 593.409 413.696 593.594 413.217C593.78 412.734 593.872 412.177 593.872 411.545C593.872 410.92 593.781 410.374 593.6 409.905C593.417 409.433 593.149 409.067 592.792 408.805C592.436 408.54 591.997 408.408 591.474 408.408C590.93 408.408 590.475 408.547 590.112 408.827C589.752 409.103 589.482 409.479 589.3 409.954C589.122 410.426 589.032 410.957 589.032 411.545C589.032 412.14 589.123 412.681 589.304 413.168C589.49 413.651 589.763 414.036 590.122 414.323C590.486 414.606 590.937 414.747 591.474 414.747ZM598.956 404.573V415.728H597.671V404.573H598.956ZM601.312 415.728V407.362H602.598V415.728H601.312ZM601.966 405.968C601.715 405.968 601.499 405.882 601.317 405.712C601.139 405.541 601.05 405.336 601.05 405.096C601.05 404.856 601.139 404.651 601.317 404.481C601.499 404.31 601.715 404.225 601.966 404.225C602.216 404.225 602.431 404.31 602.609 404.481C602.791 404.651 602.881 404.856 602.881 405.096C602.881 405.336 602.791 405.541 602.609 405.712C602.431 405.882 602.216 405.968 601.966 405.968ZM606.239 410.695V415.728H604.953V407.362H606.196V408.669H606.305C606.502 408.244 606.799 407.903 607.199 407.645C607.598 407.384 608.114 407.253 608.746 407.253C609.313 407.253 609.809 407.369 610.233 407.602C610.659 407.83 610.989 408.179 611.225 408.647C611.462 409.112 611.58 409.7 611.58 410.412V415.728H610.293V410.499C610.293 409.842 610.123 409.33 609.781 408.963C609.44 408.593 608.971 408.408 608.375 408.408C607.965 408.408 607.598 408.497 607.274 408.674C606.955 408.852 606.702 409.112 606.517 409.453C606.333 409.795 606.239 410.209 606.239 410.695ZM617.439 415.902C616.633 415.902 615.938 415.724 615.352 415.368C614.772 415.009 614.322 414.508 614.007 413.865C613.695 413.219 613.538 412.467 613.538 411.61C613.538 410.753 613.695 409.998 614.007 409.344C614.322 408.687 614.762 408.175 615.325 407.808C615.892 407.438 616.553 407.253 617.309 407.253C617.744 407.253 618.176 407.326 618.601 407.471C619.025 407.616 619.413 407.852 619.762 408.179C620.111 408.502 620.388 408.93 620.595 409.464C620.802 409.998 620.906 410.655 620.906 411.436V411.981H614.453V410.869H619.597C619.597 410.397 619.504 409.976 619.314 409.606C619.128 409.235 618.863 408.943 618.519 408.729C618.177 408.515 617.774 408.408 617.309 408.408C616.797 408.408 616.354 408.535 615.98 408.789C615.609 409.039 615.324 409.366 615.123 409.769C614.924 410.172 614.823 410.604 614.823 411.065V411.806C614.823 412.438 614.933 412.974 615.151 413.413C615.373 413.849 615.68 414.181 616.072 414.41C616.464 414.635 616.92 414.747 617.439 414.747C617.778 414.747 618.082 414.7 618.356 414.606C618.632 414.508 618.869 414.362 619.068 414.17C619.269 413.974 619.423 413.731 619.532 413.44L620.775 413.789C620.643 414.21 620.424 414.58 620.115 414.9C619.806 415.216 619.426 415.463 618.971 415.641C618.517 415.815 618.007 415.902 617.439 415.902Z" fill="white"/>
<path d="M633.129 389.933H483.856C478.077 389.933 473.393 394.615 473.393 400.39V418.516C473.393 424.292 478.077 428.974 483.856 428.974H633.129C638.908 428.974 643.592 424.292 643.592 418.516V400.39C643.592 394.615 638.908 389.933 633.129 389.933Z" stroke="url(#paint25_linear_1186_2122)" stroke-opacity="0.2"/>
<path d="M633.129 389.933H483.856C478.077 389.933 473.393 394.615 473.393 400.39V418.516C473.393 424.292 478.077 428.974 483.856 428.974H633.129C638.908 428.974 643.592 424.292 643.592 418.516V400.39C643.592 394.615 638.908 389.933 633.129 389.933Z" stroke="white" stroke-opacity="0.05"/>
<path d="M641.91 554.126H474.5C468.337 554.126 463.34 559.12 463.34 565.281V583.407C463.34 589.567 468.337 594.561 474.5 594.561H641.91C648.074 594.561 653.07 589.567 653.07 583.407V565.281C653.07 559.12 648.074 554.126 641.91 554.126Z" fill="#141414"/>
<path d="M641.91 554.126H474.5C468.337 554.126 463.34 559.12 463.34 565.281V583.407C463.34 589.567 468.337 594.561 474.5 594.561H641.91C648.074 594.561 653.07 589.567 653.07 583.407V565.281C653.07 559.12 648.074 554.126 641.91 554.126Z" fill="url(#paint26_radial_1186_2122)" fill-opacity="0.2"/>
<path d="M499.614 570.161L491.941 577.83L488.453 574.344" stroke="url(#paint27_linear_1186_2122)" stroke-linecap="round" stroke-linejoin="round"/>
<path d="M517.083 580.618L514.533 572.252H515.885L517.694 578.658H517.781L519.568 572.252H520.942L522.707 578.636H522.795L524.604 572.252H525.955L523.405 580.618H522.141L520.31 574.192H520.179L518.347 580.618H517.083ZM529.553 580.618L527.001 572.252H528.353L530.162 578.658H530.25L532.037 572.252H533.41L535.176 578.636H535.263L537.072 572.252H538.424L535.874 580.618H534.61L532.778 574.192H532.647L530.817 580.618H529.553ZM542.02 580.618L539.47 572.252H540.822L542.631 578.658H542.718L544.505 572.252H545.879L547.644 578.636H547.732L549.541 572.252H550.892L548.342 580.618H547.078L545.247 574.192H545.116L543.284 580.618H542.02ZM552.391 580.706C552.122 580.706 551.892 580.609 551.699 580.416C551.507 580.224 551.411 579.994 551.411 579.725C551.411 579.457 551.507 579.226 551.699 579.033C551.892 578.841 552.122 578.744 552.391 578.744C552.659 578.744 552.891 578.841 553.083 579.033C553.276 579.226 553.372 579.457 553.372 579.725C553.372 579.903 553.326 580.066 553.235 580.215C553.149 580.365 553.03 580.485 552.881 580.575C552.736 580.662 552.573 580.706 552.391 580.706ZM558.841 580.793C558.143 580.793 557.527 580.617 556.992 580.264C556.459 579.909 556.041 579.408 555.74 578.761C555.438 578.111 555.288 577.343 555.288 576.458C555.288 575.578 555.438 574.817 555.74 574.17C556.041 573.523 556.461 573.024 556.998 572.672C557.536 572.319 558.157 572.144 558.862 572.144C559.407 572.144 559.838 572.234 560.154 572.416C560.473 572.594 560.717 572.798 560.885 573.026C561.055 573.251 561.187 573.436 561.282 573.581H561.391V569.464H562.677V580.618H561.434V579.333H561.282C561.187 579.485 561.053 579.679 560.879 579.91C560.705 580.139 560.455 580.344 560.131 580.526C559.809 580.703 559.378 580.793 558.841 580.793ZM559.015 579.638C559.53 579.638 559.967 579.504 560.322 579.235C560.678 578.962 560.949 578.587 561.134 578.107C561.32 577.625 561.412 577.067 561.412 576.435C561.412 575.811 561.321 575.264 561.14 574.796C560.959 574.324 560.689 573.958 560.334 573.696C559.978 573.431 559.538 573.298 559.015 573.298C558.47 573.298 558.016 573.438 557.652 573.718C557.292 573.994 557.022 574.369 556.84 574.845C556.663 575.317 556.574 575.847 556.574 576.435C556.574 577.031 556.665 577.572 556.846 578.058C557.031 578.541 557.303 578.926 557.663 579.213C558.026 579.496 558.477 579.638 559.015 579.638ZM568.612 580.793C567.856 580.793 567.193 580.613 566.623 580.253C566.056 579.893 565.613 579.391 565.293 578.744C564.976 578.099 564.819 577.343 564.819 576.479C564.819 575.607 564.976 574.847 565.293 574.198C565.613 573.546 566.056 573.042 566.623 572.683C567.193 572.324 567.856 572.144 568.612 572.144C569.367 572.144 570.028 572.324 570.594 572.683C571.165 573.042 571.609 573.546 571.925 574.198C572.245 574.847 572.404 575.607 572.404 576.479C572.404 577.343 572.245 578.099 571.925 578.744C571.609 579.391 571.165 579.893 570.594 580.253C570.028 580.613 569.367 580.793 568.612 580.793ZM568.612 579.638C569.185 579.638 569.658 579.49 570.028 579.196C570.399 578.903 570.672 578.516 570.851 578.036C571.03 577.558 571.118 577.038 571.118 576.479C571.118 575.92 571.03 575.399 570.851 574.916C570.672 574.433 570.399 574.043 570.028 573.744C569.658 573.447 569.185 573.298 568.612 573.298C568.037 573.298 567.566 573.447 567.195 573.744C566.823 574.043 566.55 574.433 566.371 574.916C566.194 575.399 566.105 575.92 566.105 576.479C566.105 577.038 566.194 577.558 566.371 578.036C566.55 578.516 566.823 578.903 567.195 579.196C567.566 579.49 568.037 579.638 568.612 579.638ZM574.368 580.618V572.252H575.61V573.559H575.718C575.893 573.113 576.175 572.766 576.564 572.519C576.952 572.269 577.419 572.144 577.965 572.144C578.517 572.144 578.976 572.269 579.343 572.519C579.714 572.766 580.003 573.113 580.209 573.559H580.297C580.511 573.128 580.833 572.785 581.261 572.53C581.689 572.272 582.204 572.144 582.803 572.144C583.552 572.144 584.164 572.378 584.64 572.846C585.116 573.311 585.354 574.036 585.354 575.019V580.618H584.068V575.019C584.068 574.403 583.899 573.961 583.56 573.696C583.223 573.431 582.825 573.298 582.367 573.298C581.779 573.298 581.323 573.477 580.999 573.832C580.677 574.184 580.515 574.631 580.515 575.172V580.618H579.206V574.889C579.206 574.412 579.053 574.03 578.743 573.739C578.435 573.445 578.037 573.298 577.55 573.298C577.215 573.298 576.903 573.387 576.613 573.565C576.325 573.743 576.094 573.99 575.915 574.306C575.741 574.619 575.653 574.98 575.653 575.39V580.618H574.368ZM590.169 580.815C589.639 580.815 589.156 580.715 588.725 580.515C588.292 580.312 587.949 580.019 587.694 579.638C587.44 579.253 587.313 578.788 587.313 578.244C587.313 577.764 587.408 577.375 587.596 577.078C587.785 576.777 588.037 576.541 588.354 576.37C588.67 576.2 589.019 576.073 589.4 575.989C589.785 575.901 590.172 575.833 590.561 575.782C591.07 575.716 591.481 575.667 591.798 575.635C592.118 575.599 592.351 575.539 592.496 575.455C592.644 575.372 592.719 575.227 592.719 575.019V574.976C592.719 574.439 592.571 574.02 592.277 573.723C591.986 573.425 591.546 573.276 590.953 573.276C590.339 573.276 589.858 573.411 589.509 573.679C589.16 573.948 588.915 574.235 588.774 574.541L587.553 574.104C587.771 573.597 588.061 573.201 588.425 572.918C588.792 572.63 589.191 572.431 589.623 572.318C590.06 572.202 590.488 572.144 590.91 572.144C591.179 572.144 591.487 572.176 591.836 572.241C592.189 572.303 592.528 572.432 592.856 572.629C593.186 572.824 593.46 573.12 593.677 573.516C593.896 573.912 594.005 574.442 594.005 575.107V580.618H592.719V579.485H592.653C592.567 579.667 592.42 579.861 592.218 580.068C592.014 580.275 591.744 580.451 591.405 580.596C591.067 580.743 590.656 580.815 590.169 580.815ZM590.364 579.659C590.873 579.659 591.302 579.56 591.65 579.361C592.003 579.16 592.268 578.903 592.447 578.587C592.628 578.27 592.719 577.939 592.719 577.59V576.413C592.665 576.479 592.545 576.539 592.359 576.593C592.178 576.645 591.967 576.689 591.727 576.73C591.491 576.766 591.26 576.798 591.035 576.827C590.813 576.852 590.633 576.875 590.495 576.893C590.162 576.936 589.849 577.007 589.558 577.105C589.272 577.2 589.039 577.343 588.86 577.536C588.686 577.724 588.599 577.982 588.599 578.309C588.599 578.756 588.764 579.093 589.095 579.322C589.429 579.548 589.852 579.659 590.364 579.659ZM596.352 580.618V572.252H597.638V580.618H596.352ZM597.006 570.858C596.755 570.858 596.539 570.773 596.357 570.602C596.18 570.431 596.091 570.227 596.091 569.987C596.091 569.747 596.18 569.542 596.357 569.372C596.539 569.2 596.755 569.115 597.006 569.115C597.257 569.115 597.471 569.2 597.649 569.372C597.83 569.542 597.921 569.747 597.921 569.987C597.921 570.227 597.83 570.431 597.649 570.602C597.471 570.773 597.257 570.858 597.006 570.858ZM601.28 575.586V580.618H599.994V572.252H601.236V573.559H601.345C601.541 573.135 601.84 572.793 602.239 572.536C602.639 572.275 603.154 572.144 603.786 572.144C604.354 572.144 604.849 572.259 605.275 572.492C605.7 572.721 606.031 573.07 606.267 573.538C606.502 574.002 606.621 574.591 606.621 575.303V580.618H605.335V575.39C605.335 574.733 605.163 574.22 604.823 573.853C604.481 573.484 604.012 573.298 603.416 573.298C603.006 573.298 602.639 573.387 602.316 573.565C601.996 573.743 601.744 574.002 601.558 574.344C601.373 574.686 601.28 575.1 601.28 575.586ZM609.908 580.706C609.638 580.706 609.408 580.609 609.216 580.416C609.023 580.224 608.927 579.994 608.927 579.725C608.927 579.457 609.023 579.226 609.216 579.033C609.408 578.841 609.638 578.744 609.908 578.744C610.177 578.744 610.407 578.841 610.6 579.033C610.792 579.226 610.888 579.457 610.888 579.725C610.888 579.903 610.844 580.066 610.753 580.215C610.665 580.365 610.548 580.485 610.399 580.575C610.254 580.662 610.089 580.706 609.908 580.706ZM616.706 580.793C615.9 580.793 615.203 580.614 614.619 580.259C614.037 579.899 613.589 579.398 613.273 578.756C612.96 578.11 612.804 577.357 612.804 576.501C612.804 575.643 612.96 574.889 613.273 574.235C613.589 573.578 614.029 573.065 614.592 572.699C615.159 572.329 615.82 572.144 616.575 572.144C617.011 572.144 617.442 572.216 617.867 572.361C618.292 572.506 618.679 572.743 619.027 573.07C619.376 573.393 619.655 573.821 619.862 574.355C620.068 574.889 620.173 575.546 620.173 576.327V576.87H613.72V575.761H618.864C618.864 575.288 618.769 574.867 618.581 574.496C618.395 574.126 618.13 573.834 617.786 573.619C617.444 573.406 617.041 573.298 616.575 573.298C616.063 573.298 615.621 573.425 615.245 573.679C614.876 573.93 614.59 574.256 614.39 574.66C614.191 575.063 614.09 575.496 614.09 575.956V576.698C614.09 577.329 614.199 577.865 614.418 578.304C614.638 578.739 614.947 579.072 615.339 579.301C615.731 579.525 616.187 579.638 616.706 579.638C617.043 579.638 617.349 579.591 617.621 579.496C617.897 579.398 618.136 579.253 618.335 579.061C618.535 578.864 618.69 578.622 618.798 578.33L620.041 578.679C619.91 579.1 619.691 579.471 619.382 579.79C619.073 580.107 618.691 580.353 618.238 580.531C617.783 580.706 617.272 580.793 616.706 580.793ZM625.507 583.93C624.887 583.93 624.352 583.85 623.904 583.69C623.458 583.534 623.086 583.328 622.788 583.07C622.494 582.816 622.26 582.543 622.085 582.253L623.109 581.533C623.225 581.686 623.373 581.861 623.55 582.056C623.729 582.255 623.973 582.428 624.281 582.573C624.594 582.722 625.002 582.796 625.507 582.796C626.183 582.796 626.741 582.633 627.18 582.307C627.62 581.981 627.84 581.468 627.84 580.77V579.072H627.731C627.636 579.224 627.502 579.412 627.328 579.638C627.156 579.86 626.909 580.058 626.586 580.232C626.266 580.402 625.834 580.487 625.29 580.487C624.613 580.487 624.006 580.328 623.469 580.009C622.935 579.688 622.512 579.224 622.2 578.613C621.89 578.004 621.737 577.264 621.737 576.392C621.737 575.535 621.887 574.789 622.189 574.153C622.49 573.514 622.91 573.021 623.447 572.672C623.985 572.319 624.606 572.144 625.311 572.144C625.856 572.144 626.289 572.234 626.608 572.416C626.932 572.594 627.179 572.798 627.349 573.026C627.523 573.251 627.657 573.436 627.752 573.581H627.883V572.252H629.126V580.858C629.126 581.578 628.962 582.162 628.635 582.612C628.312 583.065 627.876 583.397 627.328 583.609C626.782 583.823 626.176 583.93 625.507 583.93ZM625.464 579.333C625.979 579.333 626.416 579.214 626.771 578.979C627.127 578.743 627.398 578.403 627.583 577.961C627.769 577.517 627.861 576.988 627.861 576.37C627.861 575.768 627.77 575.235 627.589 574.775C627.408 574.313 627.138 573.952 626.783 573.69C626.427 573.429 625.987 573.298 625.464 573.298C624.919 573.298 624.464 573.436 624.101 573.712C623.741 573.988 623.471 574.358 623.289 574.824C623.111 575.288 623.023 575.804 623.023 576.37C623.023 576.951 623.113 577.464 623.295 577.912C623.48 578.354 623.752 578.703 624.112 578.958C624.475 579.207 624.926 579.333 625.464 579.333Z" fill="white"/>
<path d="M641.911 554.824H474.502C468.724 554.824 464.039 559.506 464.039 565.282V583.408C464.039 589.183 468.724 593.865 474.502 593.865H641.911C647.69 593.865 652.374 589.183 652.374 583.408V565.282C652.374 559.506 647.69 554.824 641.911 554.824Z" stroke="url(#paint28_linear_1186_2122)" stroke-opacity="0.2"/>
<path d="M641.911 554.824H474.502C468.724 554.824 464.039 559.506 464.039 565.282V583.408C464.039 589.183 468.724 593.865 474.502 593.865H641.911C647.69 593.865 652.374 589.183 652.374 583.408V565.282C652.374 559.506 647.69 554.824 641.911 554.824Z" stroke="white" stroke-opacity="0.05"/>
<path d="M528.135 608.505V602.42H530.417C530.884 602.42 531.278 602.502 531.595 602.664C531.913 602.827 532.154 603.055 532.317 603.347C532.48 603.639 532.563 603.979 532.563 604.367C532.563 604.757 532.48 605.096 532.313 605.383C532.15 605.668 531.907 605.889 531.585 606.045C531.264 606.2 530.871 606.277 530.402 606.277H528.776V605.362H530.254C530.527 605.362 530.751 605.325 530.925 605.249C531.099 605.171 531.229 605.06 531.311 604.913C531.396 604.764 531.44 604.583 531.44 604.367C531.44 604.151 531.396 603.966 531.311 603.814C531.226 603.66 531.096 603.543 530.922 603.463C530.748 603.382 530.523 603.342 530.248 603.342H529.237V608.505H528.135ZM531.279 605.748L532.786 608.505H531.555L530.075 605.748H531.279ZM534.415 608.505V602.42H538.375V603.345H535.518V604.997H538.17V605.92H535.518V607.581H538.398V608.505H534.415ZM544.415 604.364C544.365 604.204 544.297 604.06 544.21 603.933C544.125 603.805 544.022 603.695 543.901 603.603C543.782 603.512 543.645 603.444 543.49 603.398C543.336 603.35 543.168 603.326 542.985 603.326C542.659 603.326 542.367 603.409 542.112 603.573C541.855 603.738 541.654 603.979 541.508 604.298C541.363 604.615 541.29 605.001 541.29 605.457C541.29 605.916 541.363 606.306 541.508 606.624C541.653 606.943 541.854 607.186 542.112 607.352C542.369 607.516 542.669 607.599 543.009 607.599C543.319 607.599 543.585 607.54 543.811 607.42C544.04 607.302 544.214 607.133 544.337 606.915C544.461 606.695 544.523 606.439 544.523 606.143L544.772 606.182H543.119V605.32H545.589V606.051C545.589 606.572 545.478 607.023 545.257 607.403C545.035 607.783 544.729 608.076 544.341 608.282C543.952 608.487 543.507 608.589 543.003 608.589C542.443 608.589 541.95 608.462 541.526 608.211C541.103 607.957 540.774 607.597 540.536 607.133C540.3 606.664 540.183 606.111 540.183 605.468C540.183 604.977 540.251 604.54 540.391 604.153C540.531 603.767 540.727 603.438 540.979 603.169C541.23 602.898 541.526 602.692 541.865 602.551C542.204 602.409 542.572 602.338 542.97 602.338C543.308 602.338 543.622 602.387 543.913 602.486C544.205 602.583 544.463 602.721 544.689 602.903C544.916 603.082 545.103 603.296 545.251 603.544C545.397 603.791 545.494 604.064 545.538 604.364H544.415ZM548.595 602.42V608.505H547.493V602.42H548.595ZM553.935 604.093C553.907 603.834 553.79 603.632 553.584 603.487C553.38 603.343 553.115 603.271 552.787 603.271C552.558 603.271 552.36 603.306 552.196 603.374C552.031 603.444 551.905 603.537 551.819 603.657C551.731 603.775 551.686 603.911 551.685 604.064C551.685 604.191 551.713 604.3 551.772 604.393C551.83 604.487 551.911 604.566 552.011 604.632C552.113 604.694 552.225 604.747 552.348 604.792C552.47 604.835 552.595 604.871 552.719 604.901L553.289 605.044C553.52 605.097 553.741 605.17 553.953 605.26C554.167 605.352 554.358 605.467 554.527 605.605C554.697 605.744 554.832 605.912 554.931 606.108C555.03 606.303 555.079 606.533 555.079 606.797C555.079 607.154 554.989 607.468 554.806 607.738C554.623 608.007 554.359 608.219 554.015 608.371C553.673 608.522 553.257 608.597 552.77 608.597C552.296 608.597 551.885 608.523 551.536 608.377C551.19 608.23 550.918 608.017 550.722 607.735C550.527 607.454 550.423 607.112 550.407 606.708H551.491C551.508 606.92 551.573 607.095 551.688 607.236C551.802 607.377 551.953 607.482 552.137 607.551C552.323 607.621 552.53 607.656 552.761 607.656C553.001 607.656 553.211 607.62 553.391 607.548C553.574 607.475 553.716 607.374 553.82 607.246C553.923 607.115 553.974 606.961 553.977 606.787C553.974 606.63 553.928 606.499 553.836 606.395C553.746 606.291 553.619 606.203 553.454 606.135C553.291 606.064 553.101 605.999 552.883 605.944L552.19 605.767C551.689 605.637 551.293 605.442 551.001 605.181C550.711 604.917 550.568 604.567 550.568 604.132C550.568 603.774 550.664 603.459 550.859 603.19C551.054 602.921 551.321 602.712 551.659 602.564C551.995 602.413 552.377 602.338 552.803 602.338C553.235 602.338 553.613 602.413 553.938 602.564C554.265 602.712 554.521 602.919 554.708 603.184C554.894 603.448 554.99 603.75 554.996 604.093H553.935ZM556.632 603.345V602.42H561.49V603.345H559.608V608.505H558.514V603.345H556.632ZM563.263 608.505V602.42H567.222V603.345H564.365V604.997H567.017V605.92H564.365V607.581H567.246V608.505H563.263ZM569.184 608.505V602.42H571.467C571.935 602.42 572.327 602.502 572.643 602.664C572.963 602.827 573.204 603.055 573.366 603.347C573.531 603.639 573.613 603.979 573.613 604.367C573.613 604.757 573.529 605.096 573.363 605.383C573.199 605.668 572.956 605.889 572.635 606.045C572.314 606.2 571.919 606.277 571.452 606.277H569.827V605.362H571.303C571.576 605.362 571.801 605.325 571.975 605.249C572.149 605.171 572.278 605.06 572.361 604.913C572.447 604.764 572.49 604.583 572.49 604.367C572.49 604.151 572.447 603.966 572.361 603.814C572.276 603.66 572.147 603.543 571.972 603.463C571.798 603.382 571.573 603.342 571.297 603.342H570.287V608.505H569.184ZM572.329 605.748L573.836 608.505H572.606L571.125 605.748H572.329ZM575.466 608.505V602.42H579.425V603.345H576.568V604.997H579.22V605.92H576.568V607.581H579.449V608.505H575.466ZM583.45 608.505H581.386V602.42H583.491C584.095 602.42 584.614 602.543 585.048 602.785C585.485 603.028 585.82 603.375 586.053 603.828C586.287 604.283 586.404 604.825 586.404 605.457C586.404 606.09 586.286 606.635 586.05 607.091C585.817 607.546 585.478 607.896 585.037 608.14C584.596 608.384 584.068 608.505 583.45 608.505ZM582.49 607.551H583.395C583.819 607.551 584.174 607.475 584.457 607.32C584.74 607.164 584.953 606.931 585.096 606.621C585.239 606.31 585.311 605.923 585.311 605.457C585.311 604.991 585.239 604.605 585.096 604.298C584.953 603.989 584.743 603.759 584.462 603.607C584.186 603.452 583.84 603.374 583.429 603.374H582.49V607.551ZM589.559 602.42L589.46 606.716H588.503L588.408 602.42H589.559ZM588.981 608.571C588.801 608.571 588.646 608.506 588.518 608.381C588.391 608.254 588.328 608.099 588.328 607.917C588.328 607.738 588.391 607.586 588.518 607.459C588.646 607.332 588.801 607.27 588.981 607.27C589.158 607.27 589.31 607.332 589.439 607.459C589.57 607.586 589.635 607.738 589.635 607.917C589.635 608.038 589.605 608.148 589.543 608.247C589.483 608.346 589.405 608.424 589.306 608.484C589.208 608.541 589.1 608.571 588.981 608.571Z" fill="white"/>
<path d="M203.219 365.323H204.342V366.494H203.219V365.323ZM203.219 369.829H204.342V371H203.219V369.829ZM207.564 363.11H208.381L205.878 371H205.062L207.564 363.11ZM210.626 363.11H211.442L208.939 371H208.123L210.626 363.11ZM211.894 363.083H212.86V366.026C213.09 365.736 213.295 365.532 213.478 365.414C213.79 365.21 214.178 365.108 214.644 365.108C215.478 365.108 216.044 365.4 216.341 365.983C216.502 366.302 216.583 366.744 216.583 367.31V371H215.589V367.375C215.589 366.952 215.535 366.642 215.428 366.445C215.252 366.13 214.923 365.973 214.439 365.973C214.038 365.973 213.675 366.111 213.349 366.386C213.023 366.662 212.86 367.183 212.86 367.949V371H211.894V363.083ZM218.21 363.642H219.188V365.248H220.106V366.037H219.188V369.792C219.188 369.992 219.256 370.126 219.392 370.194C219.467 370.234 219.592 370.253 219.768 370.253C219.814 370.253 219.864 370.253 219.918 370.253C219.972 370.25 220.034 370.244 220.106 370.237V371C219.995 371.032 219.879 371.056 219.757 371.07C219.639 371.084 219.51 371.091 219.37 371.091C218.919 371.091 218.613 370.977 218.452 370.748C218.291 370.515 218.21 370.214 218.21 369.845V366.037H217.431V365.248H218.21V363.642ZM221.271 363.642H222.249V365.248H223.167V366.037H222.249V369.792C222.249 369.992 222.317 370.126 222.453 370.194C222.528 370.234 222.654 370.253 222.829 370.253C222.876 370.253 222.926 370.253 222.979 370.253C223.033 370.25 223.096 370.244 223.167 370.237V371C223.056 371.032 222.94 371.056 222.818 371.07C222.7 371.084 222.571 371.091 222.432 371.091C221.98 371.091 221.674 370.977 221.513 370.748C221.352 370.515 221.271 370.214 221.271 369.845V366.037H220.493V365.248H221.271V363.642ZM226.567 370.35C227.019 370.35 227.393 370.162 227.69 369.786C227.991 369.407 228.141 368.841 228.141 368.089C228.141 367.631 228.075 367.237 227.942 366.907C227.692 366.273 227.233 365.957 226.567 365.957C225.898 365.957 225.439 366.291 225.192 366.961C225.06 367.319 224.994 367.774 224.994 368.325C224.994 368.769 225.06 369.147 225.192 369.458C225.443 370.053 225.901 370.35 226.567 370.35ZM224.064 365.274H225.004V366.037C225.198 365.776 225.409 365.573 225.638 365.43C225.964 365.215 226.347 365.108 226.788 365.108C227.439 365.108 227.993 365.359 228.447 365.86C228.902 366.358 229.129 367.07 229.129 367.998C229.129 369.251 228.802 370.146 228.146 370.683C227.731 371.023 227.248 371.193 226.696 371.193C226.263 371.193 225.9 371.098 225.606 370.909C225.434 370.801 225.243 370.617 225.031 370.355V373.293H224.064V365.274ZM230.837 369.195C230.866 369.518 230.947 369.765 231.079 369.937C231.323 370.248 231.745 370.404 232.347 370.404C232.705 370.404 233.02 370.327 233.292 370.173C233.564 370.015 233.7 369.774 233.7 369.448C233.7 369.201 233.591 369.013 233.373 368.884C233.233 368.805 232.957 368.714 232.545 368.61L231.777 368.417C231.287 368.295 230.925 368.159 230.692 368.008C230.277 367.747 230.069 367.385 230.069 366.923C230.069 366.379 230.264 365.939 230.655 365.602C231.049 365.265 231.577 365.097 232.239 365.097C233.106 365.097 233.731 365.351 234.114 365.86C234.354 366.182 234.47 366.529 234.463 366.902H233.55C233.532 366.683 233.455 366.485 233.319 366.306C233.097 366.051 232.712 365.924 232.164 365.924C231.799 365.924 231.521 365.994 231.332 366.134C231.145 366.273 231.052 366.458 231.052 366.687C231.052 366.938 231.176 367.138 231.423 367.289C231.566 367.378 231.777 367.457 232.057 367.525L232.696 367.681C233.39 367.849 233.856 368.012 234.092 368.169C234.468 368.417 234.656 368.805 234.656 369.335C234.656 369.847 234.461 370.289 234.071 370.662C233.684 371.034 233.093 371.22 232.298 371.22C231.443 371.22 230.836 371.027 230.478 370.64C230.123 370.25 229.933 369.768 229.908 369.195H230.837Z" fill="#02FFB3"/>
<defs>
<filter id="filter0_f_1186_2122" x="0.399994" y="0.399994" width="871.2" height="867.2" filterUnits="userSpaceOnUse" color-interpolation-filters="sRGB">
<feFlood flood-opacity="0" result="BackgroundImageFix"/>
<feBlend mode="normal" in="SourceGraphic" in2="BackgroundImageFix" result="shape"/>
<feGaussianBlur stdDeviation="102.3" result="effect1_foregroundBlur_1186_2122"/>
</filter>
<filter id="filter1_f_1186_2122" x="81.5215" y="300.207" width="554.434" height="302.466" filterUnits="userSpaceOnUse" color-interpolation-filters="sRGB">
<feFlood flood-opacity="0" result="BackgroundImageFix"/>
<feBlend mode="normal" in="SourceGraphic" in2="BackgroundImageFix" result="shape"/>
<feGaussianBlur stdDeviation="50" result="effect1_foregroundBlur_1186_2122"/>
</filter>
<filter id="filter2_f_1186_2122" x="507.936" y="286.995" width="17.377" height="2.70801" filterUnits="userSpaceOnUse" color-interpolation-filters="sRGB">
<feFlood flood-opacity="0" result="BackgroundImageFix"/>
<feBlend mode="normal" in="SourceGraphic" in2="BackgroundImageFix" result="shape"/>
<feGaussianBlur stdDeviation="0.25" result="effect1_foregroundBlur_1186_2122"/>
</filter>
<filter id="filter3_f_1186_2122" x="306.285" y="304.072" width="46.8555" height="2.70801" filterUnits="userSpaceOnUse" color-interpolation-filters="sRGB">
<feFlood flood-opacity="0" result="BackgroundImageFix"/>
<feBlend mode="normal" in="SourceGraphic" in2="BackgroundImageFix" result="shape"/>
<feGaussianBlur stdDeviation="0.25" result="effect1_foregroundBlur_1186_2122"/>
</filter>
<filter id="filter4_f_1186_2122" x="369.988" y="608.054" width="37.5762" height="2.70801" filterUnits="userSpaceOnUse" color-interpolation-filters="sRGB">
<feFlood flood-opacity="0" result="BackgroundImageFix"/>
<feBlend mode="normal" in="SourceGraphic" in2="BackgroundImageFix" result="shape"/>
<feGaussianBlur stdDeviation="0.25" result="effect1_foregroundBlur_1186_2122"/>
</filter>
<filter id="filter5_f_1186_2122" x="174.719" y="590.977" width="16.2852" height="2.70801" filterUnits="userSpaceOnUse" color-interpolation-filters="sRGB">
<feFlood flood-opacity="0" result="BackgroundImageFix"/>
<feBlend mode="normal" in="SourceGraphic" in2="BackgroundImageFix" result="shape"/>
<feGaussianBlur stdDeviation="0.25" result="effect1_foregroundBlur_1186_2122"/>
</filter>
<filter id="filter6_f_1186_2122" x="157.922" y="505.588" width="2.05078" height="25.8652" filterUnits="userSpaceOnUse" color-interpolation-filters="sRGB">
<feFlood flood-opacity="0" result="BackgroundImageFix"/>
<feBlend mode="normal" in="SourceGraphic" in2="BackgroundImageFix" result="shape"/>
<feGaussianBlur stdDeviation="0.25" result="effect1_foregroundBlur_1186_2122"/>
</filter>
<filter id="filter7_f_1186_2122" x="115.867" y="397.009" width="10.582" height="17.416" filterUnits="userSpaceOnUse" color-interpolation-filters="sRGB">
<feFlood flood-opacity="0" result="BackgroundImageFix"/>
<feBlend mode="normal" in="SourceGraphic" in2="BackgroundImageFix" result="shape"/>
<feGaussianBlur stdDeviation="1" result="effect1_foregroundBlur_1186_2122"/>
</filter>
<filter id="filter8_f_1186_2122" x="121.576" y="396.843" width="5.04102" height="5.68848" filterUnits="userSpaceOnUse" color-interpolation-filters="sRGB">
<feFlood flood-opacity="0" result="BackgroundImageFix"/>
<feBlend mode="normal" in="SourceGraphic" in2="BackgroundImageFix" result="shape"/>
<feGaussianBlur stdDeviation="1" result="effect1_foregroundBlur_1186_2122"/>
</filter>
<linearGradient id="paint0_linear_1186_2122" x1="577.436" y1="434.011" x2="253.415" y2="434.292" gradientUnits="userSpaceOnUse">
<stop stop-color="#371F7E"/>
<stop offset="1" stop-color="#BAA3E7"/>
</linearGradient>
<linearGradient id="paint1_linear_1186_2122" x1="358.942" y1="400.207" x2="358.942" y2="502.673" gradientUnits="userSpaceOnUse">
<stop stop-color="white"/>
<stop offset="1" stop-color="white" stop-opacity="0"/>
</linearGradient>
<linearGradient id="paint2_linear_1186_2122" x1="524.813" y1="288.349" x2="508.436" y2="288.349" gradientUnits="userSpaceOnUse">
<stop stop-color="white"/>
<stop offset="1" stop-color="white" stop-opacity="0"/>
</linearGradient>
<linearGradient id="paint3_linear_1186_2122" x1="528.128" y1="288.349" x2="493.318" y2="288.349" gradientUnits="userSpaceOnUse">
<stop stop-color="white"/>
<stop offset="1" stop-color="#555555" stop-opacity="0"/>
</linearGradient>
<linearGradient id="paint4_linear_1186_2122" x1="352.641" y1="305.426" x2="306.785" y2="305.426" gradientUnits="userSpaceOnUse">
<stop stop-color="white"/>
<stop offset="1" stop-color="white" stop-opacity="0"/>
</linearGradient>
<linearGradient id="paint5_linear_1186_2122" x1="361.921" y1="305.426" x2="264.453" y2="305.426" gradientUnits="userSpaceOnUse">
<stop stop-color="white"/>
<stop offset="1" stop-color="#555555" stop-opacity="0"/>
</linearGradient>
<linearGradient id="paint6_linear_1186_2122" x1="370.489" y1="609.408" x2="407.064" y2="609.408" gradientUnits="userSpaceOnUse">
<stop stop-color="white"/>
<stop offset="1" stop-color="white" stop-opacity="0"/>
</linearGradient>
<linearGradient id="paint7_linear_1186_2122" x1="363.082" y1="609.408" x2="440.824" y2="609.408" gradientUnits="userSpaceOnUse">
<stop stop-color="white"/>
<stop offset="1" stop-color="#555555" stop-opacity="0"/>
</linearGradient>
<linearGradient id="paint8_linear_1186_2122" x1="175.218" y1="592.33" x2="190.504" y2="592.33" gradientUnits="userSpaceOnUse">
<stop stop-color="white"/>
<stop offset="1" stop-color="white" stop-opacity="0"/>
</linearGradient>
<linearGradient id="paint9_linear_1186_2122" x1="172.126" y1="592.33" x2="204.615" y2="592.33" gradientUnits="userSpaceOnUse">
<stop stop-color="white"/>
<stop offset="1" stop-color="#555555" stop-opacity="0"/>
</linearGradient>
<linearGradient id="paint10_linear_1186_2122" x1="158.948" y1="506.088" x2="158.948" y2="530.953" gradientUnits="userSpaceOnUse">
<stop stop-color="white"/>
<stop offset="1" stop-color="white" stop-opacity="0"/>
</linearGradient>
<linearGradient id="paint11_linear_1186_2122" x1="158.948" y1="501.055" x2="158.948" y2="553.905" gradientUnits="userSpaceOnUse">
<stop stop-color="white"/>
<stop offset="1" stop-color="#555555" stop-opacity="0"/>
</linearGradient>
<linearGradient id="paint12_linear_1186_2122" x1="592.521" y1="514.627" x2="550.982" y2="474.698" gradientUnits="userSpaceOnUse">
<stop offset="0.0677083" stop-color="white"/>
<stop offset="1" stop-color="white" stop-opacity="0"/>
</linearGradient>
<linearGradient id="paint13_linear_1186_2122" x1="124.828" y1="400.206" x2="166.368" y2="440.136" gradientUnits="userSpaceOnUse">
<stop offset="0.0677083" stop-color="white"/>
<stop offset="1" stop-color="white" stop-opacity="0"/>
</linearGradient>
<linearGradient id="paint14_linear_1186_2122" x1="274.192" y1="383.825" x2="376.242" y2="651.076" gradientUnits="userSpaceOnUse">
<stop stop-color="#2D2D2D"/>
<stop offset="1"/>
</linearGradient>
<linearGradient id="paint15_linear_1186_2122" x1="472.699" y1="359.346" x2="472.699" y2="375.646" gradientUnits="userSpaceOnUse">
<stop stop-color="white"/>
<stop offset="1" stop-color="#BEBEBE"/>
</linearGradient>
<linearGradient id="paint16_linear_1186_2122" x1="343.398" y1="426.688" x2="343.398" y2="442.989" gradientUnits="userSpaceOnUse">
<stop stop-color="white"/>
<stop offset="1" stop-color="#BEBEBE"/>
</linearGradient>
<linearGradient id="paint17_linear_1186_2122" x1="285.736" y1="495.57" x2="285.736" y2="529.335" gradientUnits="userSpaceOnUse">
<stop stop-color="#D9D9D9"/>
<stop offset="1" stop-color="#D9D9D9" stop-opacity="0"/>
</linearGradient>
<linearGradient id="paint18_linear_1186_2122" x1="362.034" y1="501.393" x2="362.034" y2="506.049" gradientUnits="userSpaceOnUse">
<stop stop-color="#D9D9D9"/>
<stop offset="1" stop-color="#D9D9D9" stop-opacity="0"/>
</linearGradient>
<linearGradient id="paint19_linear_1186_2122" x1="351.155" y1="343.045" x2="351.155" y2="572.415" gradientUnits="userSpaceOnUse">
<stop stop-color="white"/>
<stop offset="1" stop-color="white" stop-opacity="0"/>
</linearGradient>
<linearGradient id="paint20_linear_1186_2122" x1="175.261" y1="343.045" x2="246.846" y2="486.283" gradientUnits="userSpaceOnUse">
<stop stop-color="white"/>
<stop offset="1" stop-color="white" stop-opacity="0"/>
</linearGradient>
<radialGradient id="paint21_radial_1186_2122" cx="0" cy="0" r="1" gradientUnits="userSpaceOnUse" gradientTransform="translate(558.491 409.453) rotate(90) scale(20.2177 85.7972)">
<stop stop-color="white"/>
<stop offset="1" stop-opacity="0"/>
</radialGradient>
<linearGradient id="paint22_linear_1186_2122" x1="505.131" y1="402.48" x2="505.131" y2="416.424" gradientUnits="userSpaceOnUse">
<stop stop-color="white"/>
<stop offset="1" stop-color="white" stop-opacity="0.5"/>
</linearGradient>
<linearGradient id="paint23_linear_1186_2122" x1="501.642" y1="412.939" x2="501.642" y2="416.425" gradientUnits="userSpaceOnUse">
<stop stop-color="white"/>
<stop offset="1" stop-color="white" stop-opacity="0.5"/>
</linearGradient>
<linearGradient id="paint24_linear_1186_2122" x1="501.642" y1="402.48" x2="501.642" y2="405.966" gradientUnits="userSpaceOnUse">
<stop stop-color="white"/>
<stop offset="1" stop-color="white" stop-opacity="0.5"/>
</linearGradient>
<linearGradient id="paint25_linear_1186_2122" x1="558.492" y1="389.235" x2="558.492" y2="429.671" gradientUnits="userSpaceOnUse">
<stop stop-color="white"/>
<stop offset="1" stop-color="white" stop-opacity="0"/>
</linearGradient>
<radialGradient id="paint26_radial_1186_2122" cx="0" cy="0" r="1" gradientUnits="userSpaceOnUse" gradientTransform="translate(558.205 574.344) rotate(90) scale(20.2177 94.8652)">
<stop stop-color="white"/>
<stop offset="1" stop-opacity="0"/>
</radialGradient>
<linearGradient id="paint27_linear_1186_2122" x1="494.034" y1="570.161" x2="494.034" y2="577.83" gradientUnits="userSpaceOnUse">
<stop stop-color="white"/>
<stop offset="1" stop-color="white" stop-opacity="0.5"/>
</linearGradient>
<linearGradient id="paint28_linear_1186_2122" x1="558.207" y1="554.127" x2="558.207" y2="594.563" gradientUnits="userSpaceOnUse">
<stop stop-color="white"/>
<stop offset="1" stop-color="white" stop-opacity="0"/>
</linearGradient>
</defs>
</svg>
