<svg width="1258" height="663" viewBox="0 0 1258 663" fill="none" xmlns="http://www.w3.org/2000/svg">
<g clip-path="url(#clip0_225_162)">
<mask id="mask0_225_162" style="mask-type:luminance" maskUnits="userSpaceOnUse" x="0" y="0" width="1258" height="663">
<path d="M0 0H1258V662.108H0V0Z" fill="white"/>
</mask>
<g mask="url(#mask0_225_162)">
<path d="M3313.28 131.042L3183.84 213.889C3104.93 264.391 3003.85 264.391 2924.95 213.889C2846.03 163.386 2744.96 163.386 2666.05 213.889C2587.15 264.391 2486.07 264.391 2407.15 213.889C2328.25 163.386 2227.17 163.386 2148.27 213.889C2069.35 264.391 1968.27 264.391 1889.37 213.889C1810.46 163.386 1709.39 163.386 1630.47 213.889C1551.57 264.391 1450.49 264.391 1371.58 213.889C1292.67 163.386 1191.6 163.386 1112.69 213.889C1033.78 264.391 932.706 264.391 853.796 213.889C774.887 163.386 673.811 163.386 594.902 213.889C515.993 264.391 414.919 264.391 336.009 213.889C257.1 163.386 156.024 163.386 77.1152 213.889C-1.79395 264.391 -102.868 264.391 -181.778 213.889C-260.687 163.386 -361.763 163.386 -440.672 213.889C-519.581 264.391 -620.655 264.391 -699.565 213.889L-829.012 131.042V657.97H3313.28V131.042Z" fill="url(#paint0_linear_225_162)" fill-opacity="0.2"/>
<path d="M3313.28 131.042L3183.84 213.889C3104.93 264.391 3003.85 264.391 2924.95 213.889C2846.03 163.386 2744.96 163.386 2666.05 213.889C2587.15 264.391 2486.07 264.391 2407.15 213.889C2328.25 163.386 2227.17 163.386 2148.27 213.889C2069.35 264.391 1968.27 264.391 1889.37 213.889C1810.46 163.386 1709.39 163.386 1630.47 213.889C1551.57 264.391 1450.49 264.391 1371.58 213.889C1292.67 163.386 1191.6 163.386 1112.69 213.889C1033.78 264.391 932.706 264.391 853.796 213.889C774.887 163.386 673.811 163.386 594.902 213.889C515.993 264.391 414.919 264.391 336.009 213.889C257.1 163.386 156.024 163.386 77.1152 213.889C-1.79396 264.391 -102.868 264.391 -181.778 213.889C-260.687 163.386 -361.763 163.386 -440.672 213.889C-519.581 264.391 -620.655 264.391 -699.565 213.889L-829.012 131.042" stroke="#F3F3F3"/>
<path opacity="0.6" d="M3313.28 117.249L3183.84 200.095C3104.93 250.597 3003.85 250.597 2924.95 200.095C2846.03 149.593 2744.96 149.593 2666.05 200.095C2587.15 250.597 2486.07 250.597 2407.15 200.095C2328.25 149.593 2227.17 149.593 2148.27 200.095C2069.35 250.597 1968.27 250.597 1889.37 200.095C1810.46 149.593 1709.39 149.593 1630.47 200.095C1551.57 250.597 1450.49 250.597 1371.58 200.095C1292.67 149.593 1191.6 149.593 1112.69 200.095C1033.78 250.597 932.706 250.597 853.796 200.095C774.887 149.593 673.811 149.593 594.902 200.095C515.993 250.597 414.919 250.597 336.009 200.095C257.1 149.593 156.024 149.593 77.1152 200.095C-1.79396 250.597 -102.868 250.597 -181.778 200.095C-260.687 149.593 -361.763 149.593 -440.672 200.095C-519.581 250.597 -620.655 250.597 -699.565 200.095L-829.012 117.249" stroke="#F3F3F3"/>
<path opacity="0.3" d="M3313.28 103.455L3183.84 186.301C3104.93 236.803 3003.85 236.803 2924.95 186.301C2846.03 135.799 2744.96 135.799 2666.05 186.301C2587.15 236.803 2486.07 236.803 2407.15 186.301C2328.25 135.799 2227.17 135.799 2148.27 186.301C2069.35 236.803 1968.27 236.803 1889.37 186.301C1810.46 135.799 1709.39 135.799 1630.47 186.301C1551.57 236.803 1450.49 236.803 1371.58 186.301C1292.67 135.799 1191.6 135.799 1112.69 186.301C1033.78 236.803 932.706 236.803 853.796 186.301C774.887 135.799 673.811 135.799 594.902 186.301C515.993 236.803 414.919 236.803 336.009 186.301C257.1 135.799 156.024 135.799 77.1152 186.301C-1.79396 236.803 -102.868 236.803 -181.778 186.301C-260.687 135.799 -361.763 135.799 -440.672 186.301C-519.581 236.803 -620.655 236.803 -699.565 186.301L-829.012 103.455" stroke="#F3F3F3"/>
<path opacity="0.1" d="M3313.28 89.6606L3183.84 172.507C3104.93 223.009 3003.85 223.009 2924.95 172.507C2846.03 122.005 2744.96 122.005 2666.05 172.507C2587.15 223.009 2486.07 223.009 2407.15 172.507C2328.25 122.005 2227.17 122.005 2148.27 172.507C2069.35 223.009 1968.27 223.009 1889.37 172.507C1810.46 122.005 1709.39 122.005 1630.47 172.507C1551.57 223.009 1450.49 223.009 1371.58 172.507C1292.67 122.005 1191.6 122.005 1112.69 172.507C1033.78 223.009 932.706 223.009 853.796 172.507C774.887 122.005 673.811 122.005 594.902 172.507C515.993 223.009 414.919 223.009 336.009 172.507C257.1 122.005 156.024 122.005 77.1152 172.507C-1.79396 223.009 -102.868 223.009 -181.778 172.507C-260.687 122.005 -361.763 122.005 -440.672 172.507C-519.581 223.009 -620.655 223.009 -699.565 172.507L-829.012 89.6606" stroke="#F3F3F3"/>
<path d="M265.531 177.941V339.33" stroke="url(#paint1_linear_225_162)" stroke-dasharray="1 4"/>
<path d="M381.398 235.876V470.373" stroke="url(#paint2_linear_225_162)" stroke-dasharray="1 4"/>
<path d="M811.078 193.115V376.574" stroke="url(#paint3_linear_225_162)" stroke-dasharray="1 4"/>
<path d="M913.152 242.773V275.878" stroke="url(#paint4_linear_225_162)" stroke-dasharray="1 4"/>
<path d="M1017.3 249.67V419.335" stroke="url(#paint5_linear_225_162)" stroke-dasharray="1 4"/>
<path d="M1130.41 204.15V346.227" stroke="url(#paint6_linear_225_162)" stroke-dasharray="1 4"/>
<path d="M920.051 0H1258V1103.51H920.051V0Z" fill="url(#paint7_linear_225_162)"/>
<path d="M0 0H551.754V1103.51H0V0Z" fill="url(#paint8_linear_225_162)"/>
</g>
</g>
<defs>
<linearGradient id="paint0_linear_225_162" x1="1242.14" y1="131.042" x2="1242.14" y2="759.356" gradientUnits="userSpaceOnUse">
<stop stop-color="#F3F3F3"/>
<stop offset="0.395" stop-color="#F3F3F3" stop-opacity="0"/>
</linearGradient>
<linearGradient id="paint1_linear_225_162" x1="nan" y1="nan" x2="nan" y2="nan" gradientUnits="userSpaceOnUse">
<stop stop-color="#909090" stop-opacity="0"/>
<stop offset="0.275" stop-color="#909090"/>
</linearGradient>
<linearGradient id="paint2_linear_225_162" x1="nan" y1="nan" x2="nan" y2="nan" gradientUnits="userSpaceOnUse">
<stop stop-color="#909090" stop-opacity="0"/>
<stop offset="0.275" stop-color="#909090"/>
</linearGradient>
<linearGradient id="paint3_linear_225_162" x1="nan" y1="nan" x2="nan" y2="nan" gradientUnits="userSpaceOnUse">
<stop stop-color="#909090" stop-opacity="0"/>
<stop offset="0.275" stop-color="#909090"/>
</linearGradient>
<linearGradient id="paint4_linear_225_162" x1="nan" y1="nan" x2="nan" y2="nan" gradientUnits="userSpaceOnUse">
<stop stop-color="#909090" stop-opacity="0"/>
<stop offset="0.275" stop-color="#909090"/>
</linearGradient>
<linearGradient id="paint5_linear_225_162" x1="nan" y1="nan" x2="nan" y2="nan" gradientUnits="userSpaceOnUse">
<stop stop-color="#909090" stop-opacity="0"/>
<stop offset="0.275" stop-color="#909090"/>
</linearGradient>
<linearGradient id="paint6_linear_225_162" x1="nan" y1="nan" x2="nan" y2="nan" gradientUnits="userSpaceOnUse">
<stop stop-color="#909090" stop-opacity="0"/>
<stop offset="0.275" stop-color="#909090"/>
</linearGradient>
<linearGradient id="paint7_linear_225_162" x1="920.051" y1="553.444" x2="1250" y2="604.822" gradientUnits="userSpaceOnUse">
<stop offset="0.29" stop-color="#040404" stop-opacity="0"/>
<stop offset="1" stop-color="#040404"/>
</linearGradient>
<linearGradient id="paint8_linear_225_162" x1="2.80158e-06" y1="553.444" x2="518.259" y2="685.2" gradientUnits="userSpaceOnUse">
<stop stop-color="#040404"/>
<stop offset="0.555" stop-color="#040404" stop-opacity="0"/>
</linearGradient>
<clipPath id="clip0_225_162">
<rect width="1258" height="662.108" fill="white"/>
</clipPath>
</defs>
</svg>
