<svg width="117" height="157" viewBox="0 0 117 157" fill="none" xmlns="http://www.w3.org/2000/svg">
<mask id="path-1-inside-1_1530_3335" fill="white">
<path fill-rule="evenodd" clip-rule="evenodd" d="M57.8817 -2.53009e-06L-6.5018e-07 57.8817L14.6024 72.4841L58.4901 28.5964L102.65 72.7561L116.575 58.8309L72.4153 14.6712L72.4841 14.6024L57.8817 -2.53009e-06Z"/>
</mask>
<path d="M-6.5018e-07 57.8817L-0.176777 57.7049L-0.353554 57.8817L-0.176777 58.0585L-6.5018e-07 57.8817ZM57.8817 -2.53009e-06L58.0585 -0.176776L57.8817 -0.353556L57.7049 -0.176776L57.8817 -2.53009e-06ZM14.6024 72.4841L14.4256 72.6609L14.6024 72.8377L14.7792 72.6609L14.6024 72.4841ZM58.4901 28.5964L58.6669 28.4196L58.4901 28.2428L58.3133 28.4196L58.4901 28.5964ZM102.65 72.7561L102.473 72.9329L102.65 73.1097L102.827 72.9329L102.65 72.7561ZM116.575 58.8309L116.752 59.0077L116.929 58.8309L116.752 58.6541L116.575 58.8309ZM72.4153 14.6712L72.2385 14.4944L72.0618 14.6712L72.2385 14.8479L72.4153 14.6712ZM72.4841 14.6024L72.6609 14.7792L72.8377 14.6024L72.6609 14.4256L72.4841 14.6024ZM0.176776 58.0585L58.0585 0.176778L57.7049 -0.176776L-0.176777 57.7049L0.176776 58.0585ZM14.7792 72.3073L0.176776 57.7049L-0.176777 58.0585L14.4256 72.6609L14.7792 72.3073ZM58.3133 28.4196L14.4256 72.3073L14.7792 72.6609L58.6669 28.7732L58.3133 28.4196ZM58.3133 28.7732L102.473 72.9329L102.827 72.5793L58.6669 28.4196L58.3133 28.7732ZM102.827 72.9329L116.752 59.0077L116.398 58.6541L102.473 72.5793L102.827 72.9329ZM116.752 58.6541L72.5921 14.4944L72.2385 14.8479L116.398 59.0077L116.752 58.6541ZM72.3073 14.4256L72.2385 14.4944L72.5921 14.8479L72.6609 14.7792L72.3073 14.4256ZM57.7049 0.176778L72.3073 14.7792L72.6609 14.4256L58.0585 -0.176776L57.7049 0.176778Z" fill="#696969" mask="url(#path-1-inside-1_1530_3335)"/>
<mask id="path-3-inside-2_1530_3335" fill="white">
<path fill-rule="evenodd" clip-rule="evenodd" d="M57.8817 42.1218L-6.5018e-07 100.004L14.6024 114.606L58.4901 70.7182L102.65 114.878L116.575 100.953L72.4153 56.793L72.4841 56.7242L57.8817 42.1218Z"/>
</mask>
<path d="M-6.5018e-07 100.004L-0.176777 99.8268L-0.353554 100.004L-0.176777 100.18L-6.5018e-07 100.004ZM57.8817 42.1218L58.0585 41.9451L57.8817 41.7683L57.7049 41.9451L57.8817 42.1218ZM14.6024 114.606L14.4256 114.783L14.6024 114.959L14.7792 114.783L14.6024 114.606ZM58.4901 70.7182L58.6669 70.5414L58.4901 70.3646L58.3133 70.5414L58.4901 70.7182ZM102.65 114.878L102.473 115.055L102.65 115.231L102.827 115.055L102.65 114.878ZM116.575 100.953L116.752 101.129L116.929 100.953L116.752 100.776L116.575 100.953ZM72.4153 56.793L72.2385 56.6162L72.0618 56.793L72.2385 56.9698L72.4153 56.793ZM72.4841 56.7242L72.6609 56.901L72.8377 56.7242L72.6609 56.5474L72.4841 56.7242ZM0.176776 100.18L58.0585 42.2986L57.7049 41.9451L-0.176777 99.8268L0.176776 100.18ZM14.7792 114.429L0.176776 99.8268L-0.176777 100.18L14.4256 114.783L14.7792 114.429ZM58.3133 70.5414L14.4256 114.429L14.7792 114.783L58.6669 70.895L58.3133 70.5414ZM58.3133 70.895L102.473 115.055L102.827 114.701L58.6669 70.5414L58.3133 70.895ZM102.827 115.055L116.752 101.129L116.398 100.776L102.473 114.701L102.827 115.055ZM116.752 100.776L72.5921 56.6162L72.2385 56.9698L116.398 101.129L116.752 100.776ZM72.3073 56.5474L72.2385 56.6162L72.5921 56.9698L72.6609 56.901L72.3073 56.5474ZM57.7049 42.2986L72.3073 56.901L72.6609 56.5474L58.0585 41.9451L57.7049 42.2986Z" fill="#696969" mask="url(#path-3-inside-2_1530_3335)"/>
<mask id="path-5-inside-3_1530_3335" fill="white">
<path fill-rule="evenodd" clip-rule="evenodd" d="M57.8817 84.2439L-6.5018e-07 142.126L14.6024 156.728L58.4901 112.84L102.65 157L116.575 143.075L72.4153 98.9151L72.4841 98.8463L57.8817 84.2439Z"/>
</mask>
<path d="M-6.5018e-07 142.126L-0.176777 141.949L-0.353554 142.126L-0.176777 142.302L-6.5018e-07 142.126ZM57.8817 84.2439L58.0585 84.0671L57.8817 83.8903L57.7049 84.0671L57.8817 84.2439ZM14.6024 156.728L14.4256 156.905L14.6024 157.082L14.7792 156.905L14.6024 156.728ZM58.4901 112.84L58.6669 112.663L58.4901 112.487L58.3133 112.663L58.4901 112.84ZM102.65 157L102.473 157.177L102.65 157.354L102.827 157.177L102.65 157ZM116.575 143.075L116.752 143.252L116.929 143.075L116.752 142.898L116.575 143.075ZM72.4153 98.9151L72.2385 98.7383L72.0618 98.9151L72.2385 99.0918L72.4153 98.9151ZM72.4841 98.8463L72.6609 99.0231L72.8377 98.8463L72.6609 98.6695L72.4841 98.8463ZM0.176776 142.302L58.0585 84.4207L57.7049 84.0671L-0.176777 141.949L0.176776 142.302ZM14.7792 156.551L0.176776 141.949L-0.176777 142.302L14.4256 156.905L14.7792 156.551ZM58.3133 112.663L14.4256 156.551L14.7792 156.905L58.6669 113.017L58.3133 112.663ZM58.3133 113.017L102.473 157.177L102.827 156.823L58.6669 112.663L58.3133 113.017ZM102.827 157.177L116.752 143.252L116.398 142.898L102.473 156.823L102.827 157.177ZM116.752 142.898L72.5921 98.7383L72.2385 99.0918L116.398 143.252L116.752 142.898ZM72.3073 98.6695L72.2385 98.7383L72.5921 99.0918L72.6609 99.0231L72.3073 98.6695ZM57.7049 84.4207L72.3073 99.0231L72.6609 98.6695L58.0585 84.0671L57.7049 84.4207Z" fill="#696969" mask="url(#path-5-inside-3_1530_3335)"/>
</svg>
