<svg width="46" height="46" viewBox="0 0 46 46" fill="none" xmlns="http://www.w3.org/2000/svg">
<path d="M12.4452 37.3999C12.0835 36.5014 11.7254 35.6696 11.4339 34.8108C10.9787 33.4694 10.6062 32.1083 10.3363 30.7201C10.2949 30.5059 10.2319 30.324 10.061 30.1764C8.2436 28.6208 6.64033 26.8726 5.26018 24.9173C5.24399 24.8956 5.2116 24.8848 5.15582 24.8488C4.81033 25.389 4.5962 25.9867 4.39827 26.5863C4.08517 27.5369 3.85845 28.5056 3.85305 29.5192C3.84945 30.1314 3.53275 30.5635 3.0883 30.6463C2.39013 30.7778 1.8773 30.2628 1.90969 29.5012C2.00326 27.3425 2.64745 25.344 3.6803 23.4643C3.90163 23.061 3.93042 22.7513 3.6983 22.3264C2.81299 20.7024 2.1922 18.9721 1.99606 17.1285C1.5894 13.2827 3.16747 9.94101 6.74469 8.10094C8.70784 7.09088 10.8239 6.70198 13.012 6.66417C13.3503 6.65877 13.5482 6.56154 13.7282 6.26627C14.9968 4.19934 16.5389 2.38987 18.6837 1.17996C20.9492 -0.098364 23.3298 -0.330624 25.8076 0.447176C26.0235 0.515594 26.1891 0.493988 26.3906 0.382359C27.5242 -0.2406 28.8072 -0.0767585 29.7537 0.791064C30.6084 1.57427 30.8891 2.91381 30.4285 4.00309C29.9552 5.11937 28.8396 5.81975 27.598 5.74413C25.9803 5.64691 24.7118 4.16333 24.9601 2.54651C25.0195 2.15581 24.7981 2.12881 24.5516 2.08019C22.297 1.64268 20.2852 2.18462 18.502 3.60699C17.4997 4.40639 16.654 5.35163 15.9343 6.41211C15.8011 6.60836 15.7183 6.72359 16.071 6.7578C18.2267 6.97205 20.332 7.43657 22.3869 8.12074C22.8062 8.25938 23.1643 8.26118 23.5889 8.12074C26.8782 7.03867 30.2521 6.44451 33.7196 6.67857C36.586 6.87302 39.2959 7.59501 41.4498 9.66014C43.3572 11.4876 44.1435 13.7688 44.0392 16.3813C43.9528 18.5616 43.2402 20.5601 42.2308 22.4632C42.067 22.7729 42.0634 23.0124 42.238 23.3202C43.1233 24.8938 43.7423 26.5701 43.9852 28.3651C44.1435 29.5264 44.1183 30.6949 43.8916 31.849C43.8448 32.0903 43.8718 32.2199 44.0554 32.382C44.9929 33.2102 45.2844 34.5317 44.7967 35.648C44.2983 36.7877 43.1485 37.4809 41.9159 37.3854C40.7445 37.2936 39.6846 36.397 39.3751 35.2357C38.9702 33.7179 39.9113 32.1047 41.4642 31.7536C41.9051 31.6528 42.0112 31.4709 42.0688 31.0532C42.3567 28.9143 41.8583 26.932 40.9568 25.0199C40.9262 24.9569 40.8776 24.9028 40.8128 24.811C39.753 26.3414 38.551 27.7116 37.2428 28.9881C36.9207 29.3014 36.6094 29.6309 36.2513 29.8991C35.8501 30.198 35.6629 30.5761 35.5748 31.0532C35.1969 33.0841 34.5689 35.0394 33.7322 36.9245C33.5486 37.3386 33.6854 37.353 34.0417 37.335C35.2851 37.272 36.4997 37.0776 37.6657 36.6203C37.8978 36.5284 38.1353 36.4168 38.3962 36.451C38.8191 36.5068 39.125 36.7337 39.2384 37.1496C39.3625 37.6015 39.1754 38.0138 38.7471 38.2443C38.3261 38.4711 37.869 38.617 37.4084 38.7412C36.0012 39.1211 34.5689 39.3137 33.1114 39.2795C32.6975 39.2705 32.4582 39.4182 32.2513 39.7639C31.2418 41.4473 29.9822 42.9111 28.4275 44.1246C25.2048 46.6398 20.7189 46.6254 17.5069 44.0886C15.9828 42.8859 14.7484 41.4401 13.7498 39.7855C13.568 39.483 13.3647 39.3714 13.003 39.3624C10.7718 39.3065 8.61967 38.8834 6.62233 37.8392C6.25165 37.6465 5.89357 37.4251 5.55349 37.1838C5.35555 37.0434 5.2116 37.038 4.98847 37.1334C3.49137 37.7761 1.85391 37.1298 1.20072 35.657C0.572731 34.2454 1.19712 32.6142 2.62945 31.9138C4.2993 31.0982 6.38661 32.2271 6.65292 34.069C6.7051 34.4345 6.73569 34.8036 6.61693 35.1313C6.48198 35.5022 6.64932 35.6372 6.91204 35.7974C8.09604 36.5266 9.38442 36.9767 10.7484 37.2126C11.2864 37.3062 11.828 37.3872 12.4398 37.3999H12.4452ZM31.6593 31.0748C32.4708 30.5779 33.1312 29.9693 33.8527 29.4418C33.9661 29.359 33.9607 29.2384 33.9823 29.1231C34.2072 27.9636 34.3242 26.7897 34.407 25.6158C34.6175 22.6667 34.4789 19.7355 33.8815 16.8314C33.8347 16.6081 33.743 16.4551 33.5684 16.3164C30.4213 13.8426 26.9844 11.8765 23.2488 10.4379C23.0905 10.3767 22.9555 10.3569 22.7828 10.4235C18.9717 11.8891 15.4736 13.8984 12.2815 16.4407C12.1159 16.5721 12.0385 16.7161 12.0044 16.9214C11.8064 18.0557 11.6823 19.199 11.6013 20.3459C11.4159 22.9818 11.5059 25.6104 11.873 28.2265C11.9288 28.628 11.8208 29.1393 12.1465 29.4166C12.8339 30 13.532 30.5833 14.3022 31.055C14.4138 30.9434 14.3796 30.8318 14.3706 30.7363C14.2554 29.6399 14.7484 28.9035 15.6625 28.3327C16.9689 27.5171 18.2285 26.6277 19.5187 25.7869C19.7544 25.632 19.7364 25.551 19.5583 25.3674C18.8079 24.5914 18.3257 23.6659 18.2537 22.5875C18.1925 21.6926 18.2267 20.7924 18.2357 19.894C18.2573 17.4903 20.4706 15.382 22.8404 15.3532C25.0644 15.328 26.9808 16.6927 27.607 18.8353C27.8895 19.8057 27.7366 20.796 27.7833 21.7772C27.8499 23.1654 27.4073 24.3681 26.45 25.3692C26.2197 25.6086 26.3168 25.6698 26.5346 25.8121C27.7474 26.6079 28.9242 27.4631 30.164 28.2121C31.2022 28.8405 31.7924 29.6363 31.6233 30.8876C31.6179 30.9272 31.6395 30.9722 31.6629 31.0748H31.6593ZM29.7141 31.3125C29.7141 31.1775 29.6961 31.0406 29.7177 30.9092C29.7987 30.4159 29.5791 30.1296 29.1635 29.8631C27.652 28.8945 26.1675 27.8862 24.6776 26.8852C24.4544 26.7339 24.2565 26.6799 23.974 26.7501C23.3298 26.9086 22.6622 26.905 22.0198 26.7501C21.7319 26.6817 21.5376 26.7411 21.3181 26.8888C20.1017 27.7062 18.8781 28.5128 17.6635 29.332C17.2064 29.6399 16.5622 29.8325 16.3517 30.3006C16.1448 30.7634 16.3103 31.3881 16.2779 31.9391C16.2599 32.2649 16.3751 32.454 16.6558 32.6196C18.5848 33.7665 20.5893 34.7514 22.6982 35.522C22.9231 35.6048 23.1139 35.6102 23.3424 35.5274C25.2408 34.8324 27.0348 33.9178 28.8072 32.9545C29.4946 32.58 29.957 32.1641 29.7159 31.3143L29.7141 31.3125ZM40.7858 20.9472C40.9208 20.877 40.9316 20.7636 40.9748 20.6736C41.5488 19.4511 41.9375 18.1727 42.0796 16.8296C42.3423 14.3377 41.646 12.2024 39.6288 10.6252C37.8816 9.26044 35.8141 8.78331 33.6512 8.60867C33.2769 8.57806 33.1744 8.62487 33.3615 9.01917C34.272 10.9367 34.927 12.9478 35.4542 15.0003C35.5244 15.2722 35.6054 15.4954 35.8231 15.6845C37.2788 16.9358 38.6446 18.2771 39.8502 19.7751C40.1651 20.1658 40.4763 20.5601 40.7858 20.9472ZM15.7939 39.2885C15.7813 39.474 15.9001 39.5622 15.9702 39.6666C16.654 40.6749 17.4602 41.5805 18.412 42.3403C20.7333 44.1912 23.2668 44.7043 26.0055 43.3612C27.8391 42.461 29.1581 40.9792 30.2701 39.2993C30.2809 39.2831 30.2575 39.2453 30.2467 39.2057C27.9147 38.9951 25.6313 38.5341 23.4018 37.805C23.1481 37.7221 22.9195 37.7239 22.664 37.8104C21.48 38.2173 20.2726 38.5359 19.049 38.7988C17.9748 39.0293 16.8861 39.1805 15.7939 39.2903V39.2885ZM12.3984 8.67349C12.1789 8.59427 11.9846 8.61947 11.7956 8.64288C11.128 8.7221 10.4641 8.81932 9.81448 8.99397C8.06545 9.46389 6.46218 10.2021 5.29977 11.6569C3.96461 13.3277 3.64072 15.2632 3.96461 17.3247C4.14815 18.4896 4.50623 19.6131 5.02446 20.6772C5.08384 20.8014 5.12523 21.1129 5.35915 20.7906C6.7069 18.9253 8.30838 17.2959 10.0448 15.7925C10.2085 15.6503 10.2985 15.4828 10.3435 15.2614C10.6404 13.7724 11.0525 12.3158 11.5473 10.8809C11.8046 10.1373 12.1663 9.43328 12.3984 8.67349ZM25.876 21.0787C25.858 20.5853 25.9012 20.0938 25.8076 19.6005C25.5575 18.2754 24.3843 17.2815 23.0203 17.2581C21.7193 17.2365 20.4634 18.1979 20.2258 19.4763C20.0369 20.4935 20.0459 21.5324 20.2042 22.5568C20.3968 23.8136 21.4872 24.8254 22.6856 24.8974C24.1539 24.9875 25.3002 24.2115 25.714 22.8971C25.903 22.294 25.8562 21.6854 25.876 21.0769V21.0787ZM36.2046 27.1282C36.2585 27.166 36.3107 27.2038 36.3647 27.2416C36.4997 27.067 36.6256 26.8816 36.7732 26.7177C37.7466 25.6428 38.6715 24.532 39.4867 23.3292C39.69 23.0286 39.7224 22.8197 39.4993 22.5064C38.5528 21.1741 37.4983 19.939 36.3449 18.7849C36.2927 18.7327 36.2405 18.6751 36.147 18.7489C36.4781 21.5342 36.4817 24.3303 36.2046 27.13V27.1282ZM9.81268 18.7093C9.70651 18.7633 9.66153 18.7741 9.63454 18.8011C8.46132 19.9768 7.37988 21.2299 6.44239 22.6037C6.29664 22.8179 6.28224 22.9782 6.4298 23.2032C6.95342 24.0044 7.52743 24.7696 8.14643 25.4988C8.65026 26.0912 9.1379 26.7051 9.80908 27.2597C9.52297 24.3681 9.52837 21.563 9.81448 18.7075L9.81268 18.7093ZM12.7961 13.5743C15.013 12.0458 17.3432 10.7476 19.7526 9.58452C19.8102 9.55571 19.9001 9.54491 19.9001 9.39547C18.2357 8.97596 16.5461 8.65548 14.8132 8.60687C14.6153 8.60147 14.5577 8.7311 14.4965 8.86614C14.268 9.36846 14.0359 9.87079 13.82 10.3785C13.3845 11.4048 13.0246 12.4563 12.7979 13.5743H12.7961ZM20.0711 36.5518C17.4494 35.3725 15.0687 34.0078 12.8159 32.3874C12.7835 32.4846 12.7619 32.5152 12.7673 32.5386C13.1866 34.1446 13.7678 35.6876 14.4983 37.1784C14.5973 37.3801 14.7323 37.4017 14.9266 37.4035C15.6032 37.4125 16.2671 37.3044 16.9311 37.2108C17.9442 37.0668 18.9519 36.8831 20.0711 36.5518ZM26.0361 36.5068C26.2179 36.5716 26.2826 36.6004 26.351 36.6167C27.8913 36.9785 29.4478 37.2396 31.0313 37.326C31.3426 37.3422 31.4811 37.227 31.6071 36.9659C32.2333 35.6732 32.7101 34.3247 33.1312 32.9563C33.1834 32.7889 33.3093 32.607 33.1978 32.3766C30.9737 33.9682 28.6309 35.3347 26.0361 36.5086V36.5068ZM33.0142 13.4915C32.5068 11.7721 31.8716 10.2543 31.1284 8.77971C31.0259 8.57626 30.8621 8.61947 30.7074 8.62667C29.5432 8.68789 28.3951 8.86794 27.2579 9.1254C26.853 9.21723 26.4266 9.23883 25.9605 9.4891C28.4563 10.6036 30.7362 11.9197 33.016 13.4915H33.0142ZM4.76714 34.4993C4.75815 33.9718 4.34249 33.5595 3.82246 33.5649C3.32942 33.5703 2.87417 34.0276 2.87777 34.5155C2.88137 35.0322 3.35281 35.4896 3.86024 35.468C4.38207 35.4464 4.77614 35.025 4.76714 34.4975V34.4993ZM42.166 33.5667C41.6424 33.5667 41.2357 33.9772 41.2321 34.5101C41.2285 35.043 41.6208 35.4536 42.1498 35.4698C42.668 35.4842 43.1323 35.025 43.1269 34.5029C43.1215 34.0114 42.6644 33.5667 42.166 33.5667ZM26.8566 2.867C26.8512 3.39453 27.2435 3.80504 27.7689 3.82304C28.2782 3.83925 28.746 3.38373 28.746 2.8688C28.746 2.38267 28.2944 1.94156 27.7923 1.93976C27.2651 1.93796 26.862 2.33586 26.8566 2.867Z" fill="#B658FF"/>
<path d="M1.90377 23.0431C1.90377 23.6733 1.58228 23.9866 0.93929 23.983C0.313096 23.9806 0 23.6697 0 23.0503C0 22.377 0.343686 22.0403 1.03106 22.0403C1.61287 22.0403 1.90377 22.3746 1.90377 23.0431Z" fill="#B658FF"/>
<path d="M45.9993 23.0304C46.0005 23.6678 45.6874 23.9859 45.06 23.9847C44.4326 23.9835 44.1105 23.654 44.0938 22.9962C44.0949 22.3613 44.4128 22.0432 45.0474 22.042C45.6808 22.042 45.9981 22.3715 45.9993 23.0304Z" fill="#B658FF"/>
<path d="M34.5314 2.88159C35.1612 2.88159 35.4755 3.20027 35.4743 3.83764C35.4731 4.475 35.154 4.79248 34.517 4.79008C33.8584 4.79008 33.5285 4.4678 33.5273 3.82323C33.5273 3.19667 33.8614 2.88279 34.5296 2.88159H34.5314Z" fill="#B658FF"/>
<path d="M11.4717 4.79008C10.8407 4.79008 10.5246 4.4678 10.5234 3.82323C10.5234 3.19667 10.8437 2.88279 11.4843 2.88159C12.1453 2.88159 12.4752 3.20027 12.474 3.83764C12.4728 4.475 12.1387 4.79248 11.4717 4.79008Z" fill="#B658FF"/>
<path d="M11.5173 41.2402C12.1567 41.2402 12.4764 41.5589 12.4764 42.1963C12.4764 42.8336 12.1471 43.1505 11.4885 43.1469C10.8515 43.1469 10.5325 42.8324 10.5313 42.2035C10.5301 41.5625 10.8587 41.2414 11.5173 41.2402Z" fill="#B658FF"/>
<path d="M34.4903 43.1451C33.8521 43.1439 33.5325 42.8306 33.5313 42.2053C33.5301 41.5799 33.8425 41.2582 34.4687 41.2402C35.1393 41.239 35.474 41.5715 35.4728 42.2377C35.4728 42.8451 35.1453 43.1481 34.4903 43.1469V43.1451Z" fill="#B658FF"/>
</svg>
