<svg width="20" height="19" viewBox="0 0 20 19" fill="none" xmlns="http://www.w3.org/2000/svg">
<path d="M0.535766 18.9999V6.18193H4.46177V18.9999H0.535766ZM0.509766 4.41393V0.87793H4.51377V4.41393H0.509766Z" fill="#535353"/>
<path d="M7.26489 18.9999V6.18193H11.1909V9.19793H10.6709C10.8789 8.33126 11.2082 7.66393 11.6589 7.19593C12.1096 6.7106 12.6122 6.3726 13.1669 6.18193C13.7389 5.99126 14.2936 5.89593 14.8309 5.89593C16.3216 5.89593 17.4829 6.31193 18.3149 7.14393C19.1469 7.9586 19.5629 9.06793 19.5629 10.4719V18.9999H15.6369V11.9279C15.6369 11.0093 15.4722 10.3419 15.1429 9.92593C14.8309 9.50993 14.3196 9.30193 13.6089 9.30193C13.0542 9.30193 12.5949 9.43193 12.2309 9.69193C11.8842 9.95193 11.6242 10.3593 11.4509 10.9139C11.2776 11.4513 11.1909 12.1533 11.1909 13.0199V18.9999H7.26489Z" fill="#535353"/>
</svg>
