<svg width="49" height="48" viewBox="0 0 49 48" fill="none" xmlns="http://www.w3.org/2000/svg">
<g clip-path="url(#clip0_682_4688)">
<path d="M16.6407 8.6631C16.8336 8.6631 17.0076 8.74166 17.1339 8.86779C17.2603 8.99392 17.339 9.16873 17.339 9.36014V23.3937C17.339 23.5862 17.2603 23.7599 17.1339 23.886C17.0076 24.0122 16.8325 24.0907 16.6407 24.0907H2.58245C2.3896 24.0907 2.21559 24.0122 2.08923 23.886C1.96288 23.7599 1.88419 23.5851 1.88419 23.3937V9.36014C1.88419 9.16762 1.96288 8.99392 2.08923 8.86779C2.21559 8.74166 2.3907 8.6631 2.58245 8.6631H16.6407ZM16.6407 6.78223H2.58245C1.86978 6.78223 1.22361 7.071 0.755893 7.53679C0.28817 8.00258 0 8.64761 0 9.36014V23.3937C0 24.1051 0.289279 24.7501 0.755893 25.217C1.22251 25.6839 1.86867 25.9716 2.58245 25.9716H16.6407C17.3534 25.9716 17.9996 25.6828 18.4673 25.217C18.935 24.7512 19.2232 24.1062 19.2232 23.3937V9.36014C19.2232 8.64872 18.9339 8.00369 18.4673 7.53679C18.0007 7.06989 17.3545 6.78223 16.6407 6.78223Z" fill="#58B9FF"/>
<path d="M16.6407 30.6926C16.8336 30.6926 17.0076 30.7711 17.1339 30.8973C17.2603 31.0234 17.339 31.1982 17.339 31.3896V45.4232C17.339 45.6157 17.2603 45.7894 17.1339 45.9155C17.0076 46.0417 16.8325 46.1202 16.6407 46.1202H2.58245C2.3896 46.1202 2.21559 46.0417 2.08923 45.9155C1.96288 45.7894 1.88419 45.6146 1.88419 45.4232V31.3896C1.88419 31.1971 1.96288 31.0234 2.08923 30.8973C2.21559 30.7711 2.3907 30.6926 2.58245 30.6926H16.6407ZM16.6407 28.8117H2.58245C1.86978 28.8117 1.22361 29.1005 0.755893 29.5663C0.28817 30.0321 0 30.6771 0 31.3896V45.4232C0 46.1346 0.289279 46.7796 0.755893 47.2465C1.22251 47.7134 1.86867 48.0011 2.58245 48.0011H16.6407C17.3534 48.0011 17.9996 47.7123 18.4673 47.2465C18.935 46.7807 19.2232 46.1357 19.2232 45.4232V31.3896C19.2232 30.6782 18.9339 30.0332 18.4673 29.5663C18.0007 29.0994 17.3545 28.8117 16.6407 28.8117Z" fill="#58B9FF"/>
<path d="M39.0489 30.6926C39.2418 30.6926 39.4158 30.7711 39.5421 30.8973C39.6685 31.0234 39.7472 31.1982 39.7472 31.3896V45.4232C39.7472 45.6157 39.6685 45.7894 39.5421 45.9155C39.4158 46.0417 39.2407 46.1202 39.0489 46.1202H24.9907C24.7978 46.1202 24.6238 46.0417 24.4974 45.9155C24.3711 45.7894 24.2924 45.6146 24.2924 45.4232V31.3896C24.2924 31.1971 24.3711 31.0234 24.4974 30.8973C24.6238 30.7711 24.7989 30.6926 24.9907 30.6926H39.0489ZM39.0489 28.8117H24.9907C24.278 28.8117 23.6318 29.1005 23.1641 29.5663C22.6964 30.0321 22.4082 30.6771 22.4082 31.3896V45.4232C22.4082 46.1346 22.6975 46.7796 23.1641 47.2465C23.6307 47.7134 24.2769 48.0011 24.9907 48.0011H39.0489C39.7616 48.0011 40.4078 47.7123 40.8755 47.2465C41.3432 46.7807 41.6314 46.1357 41.6314 45.4232V31.3896C41.6314 30.6782 41.3421 30.0332 40.8755 29.5663C40.4089 29.0994 39.7627 28.8117 39.0489 28.8117Z" fill="#58B9FF"/>
<path d="M45.8419 1.6596C46.0957 1.6596 46.3251 1.76249 46.4925 1.92845C46.6599 2.09441 46.7618 2.32454 46.7618 2.57791V16.6115C46.7618 16.8648 46.6587 17.0939 46.4925 17.2609C46.3262 17.428 46.0957 17.5298 45.8419 17.5298H31.7836C31.5298 17.5298 31.3004 17.4269 31.133 17.2609C30.9657 17.095 30.8637 16.8648 30.8637 16.6115V2.57791C30.8637 2.32454 30.9668 2.09552 31.133 1.92845C31.2993 1.76139 31.5298 1.6596 31.7836 1.6596H45.8419ZM45.8419 0H31.7836C31.071 0 30.4248 0.28877 29.9571 0.754564C29.4893 1.22036 29.2012 1.86539 29.2012 2.57791V16.6115C29.2012 17.3229 29.4905 17.9679 29.9571 18.4348C30.4237 18.9017 31.0698 19.1894 31.7836 19.1894H45.8419C46.5546 19.1894 47.2007 18.9006 47.6684 18.4348C48.1362 17.969 48.4243 17.324 48.4243 16.6115V2.57791C48.4243 1.86649 48.1351 1.22146 47.6684 0.754564C47.2018 0.287664 46.5557 0 45.8419 0Z" fill="#58B9FF"/>
<path d="M25.3803 24.6683L24.7829 24.0907L24.1855 23.5132L27.3255 20.277L30.4665 17.0419L31.0628 17.6194L31.6602 18.197L28.5203 21.4321L25.3803 24.6683Z" fill="#58B9FF"/>
<path d="M24.7524 25.1053H23.9211H23.0898V20.7405V16.3758H23.9211H24.7524V20.7405V25.1053Z" fill="#58B9FF"/>
<path d="M31.8425 25.3885H27.4701H23.0977V24.5587V23.7289H27.4701H31.8425V24.5587V25.3885Z" fill="#58B9FF"/>
<path d="M38.682 11.075C37.8031 11.075 37.0051 10.7177 36.4276 10.1412C35.8502 9.5648 35.4922 8.76819 35.4922 7.89082C35.4922 7.01345 35.8502 6.21684 36.4276 5.6404C37.0051 5.06397 37.8031 4.7066 38.682 4.7066C39.5609 4.7066 40.3589 5.06397 40.9364 5.6404C41.5138 6.21684 41.8718 7.01345 41.8718 7.89082C41.8718 8.76819 41.5138 9.5648 40.9364 10.1412C40.3589 10.7177 39.5609 11.075 38.682 11.075ZM38.682 5.813C38.1079 5.813 37.5881 6.04645 37.2112 6.42263C36.8344 6.7988 36.6005 7.3177 36.6005 7.89082C36.6005 8.46393 36.8344 8.98283 37.2112 9.35901C37.5881 9.73519 38.1079 9.96864 38.682 9.96864C39.2561 9.96864 39.7759 9.73519 40.1528 9.35901C40.5296 8.98283 40.7635 8.46393 40.7635 7.89082C40.7635 7.3177 40.5296 6.7988 40.1528 6.42263C39.7759 6.04645 39.2561 5.813 38.682 5.813Z" fill="#58B9FF"/>
<path d="M45.2133 18.5067C44.8608 16.9445 44.0251 15.6179 42.8935 14.6819C41.7619 13.7459 40.3332 13.2004 38.7948 13.2004C37.2564 13.2004 35.9508 13.7127 34.8325 14.5923C33.7142 15.4719 32.8607 16.7177 32.4573 18.1847L31.8156 18.0088L31.1738 17.8329C31.6571 16.0782 32.6812 14.5878 34.0256 13.5368C35.37 12.4857 37.0337 11.8727 38.7937 11.8727C40.6447 11.8727 42.3637 12.5244 43.7247 13.6441C45.0858 14.7638 46.0888 16.3492 46.51 18.2168L45.8616 18.3629L45.2133 18.5089V18.5067Z" fill="#58B9FF"/>
</g>
<defs>
<clipPath id="clip0_682_4688">
<rect width="48.4248" height="48" fill="white"/>
</clipPath>
</defs>
</svg>
