<svg width="19" height="19" viewBox="0 0 19 19" fill="none" xmlns="http://www.w3.org/2000/svg">
<g clip-path="url(#clip0_381_879)">
<rect x="2.375" y="2.375" width="14.25" height="13.4583" fill="white"/>
<path d="M6.60654 4.90911C6.40052 4.92177 6.19314 4.9125 5.98635 4.91249H5.27734C5.31029 4.96546 5.32896 4.99865 5.35059 5.02967C6.53964 6.7315 7.72887 8.43323 8.91827 10.1348C9.97779 11.6511 11.038 13.1668 12.099 14.682C12.1184 14.7103 12.1433 14.7344 12.1722 14.753C12.2011 14.7715 12.2334 14.784 12.2673 14.7898C12.7102 14.7985 13.1534 14.7945 13.5966 14.7936C13.6172 14.7907 13.6375 14.7857 13.6571 14.7786C13.6192 14.7214 13.5906 14.6763 13.5601 14.6327C13.0335 13.8781 12.5068 13.1237 11.9799 12.3693C10.2756 9.92918 8.5719 7.48868 6.86871 5.0478C6.84361 5.00135 6.80531 4.96339 6.75865 4.93871C6.71199 4.91402 6.65906 4.90372 6.60654 4.90911Z" fill="black"/>
<path d="M14.1337 0H4.86625C3.57564 0 2.33789 0.512693 1.42529 1.42529C0.512693 2.33789 0 3.57564 0 4.86625V14.1337C0 15.4244 0.512693 16.6621 1.42529 17.5747C2.33789 18.4873 3.57564 19 4.86625 19H14.1337C15.4244 19 16.6621 18.4873 17.5747 17.5747C18.4873 16.6621 19 15.4244 19 14.1337V4.86625C19 3.57564 18.4873 2.33789 17.5747 1.42529C16.6621 0.512693 15.4244 0 14.1337 0ZM14.8622 15.4981C13.8573 15.4986 12.8525 15.4967 11.8477 15.5012C11.8045 15.5037 11.7616 15.494 11.7238 15.4731C11.6859 15.4523 11.6548 15.4211 11.6339 15.3833C10.686 13.9985 9.7365 12.6148 8.78543 11.2321C8.76078 11.1962 8.73369 11.162 8.69538 11.1103C8.23717 11.6425 7.79055 12.1606 7.34472 12.6793C6.55836 13.5943 5.7718 14.509 4.98504 15.4236C4.95611 15.461 4.9144 15.4864 4.86791 15.495C4.57402 15.501 4.27995 15.4982 3.94572 15.4982L8.2646 10.4737L3.94218 4.17707H4.12467C5.10492 4.17698 6.08521 4.17961 7.06542 4.17351C7.12022 4.16896 7.17517 4.18012 7.22386 4.20567C7.27254 4.23123 7.31294 4.27012 7.34031 4.31781C8.22514 5.61482 9.11276 6.90992 10.0032 8.2031C10.0306 8.24302 10.0601 8.28151 10.1005 8.33687C10.28 8.12851 10.4522 7.92911 10.624 7.72933C11.6159 6.57561 12.6082 5.42228 13.6009 4.26933C13.6349 4.22414 13.6841 4.19284 13.7395 4.18127C14.0293 4.17312 14.3195 4.1772 14.6544 4.1772L10.5326 8.97339L15.005 15.4874C14.9442 15.4921 14.9032 15.498 14.8622 15.4981Z" fill="black"/>
</g>
<defs>
<clipPath id="clip0_381_879">
<rect width="19" height="19" fill="white"/>
</clipPath>
</defs>
</svg>
