<svg width="127" height="129" viewBox="0 0 127 129" fill="none" xmlns="http://www.w3.org/2000/svg">
<rect width="127" height="129" rx="7" fill="#FBD5FC"/>
<path d="M37.3509 70.1784C36.8063 72.2906 35.6849 73.3628 34.0176 73.3628C31.198 73.3628 30.9479 70.0169 30.9426 68.6899H38.6201V68.101C38.5126 65.1644 36.4957 63.1914 33.6022 63.1914C30.3537 63.1914 28.084 65.7242 28.084 69.3527C28.084 72.9813 30.246 75.4319 33.4596 75.4319C36.2241 75.4319 38.1012 73.6621 38.7385 70.4513L38.8783 69.7314H37.4638L37.3509 70.1784ZM33.586 64.7091H33.5887C35.2371 64.7091 35.6688 66.3396 35.779 67.1652H31.124C31.5006 65.6198 32.4068 64.7091 33.586 64.7091Z" fill="#1D1D1D"/>
<path d="M62.1146 70.1823C61.57 72.2946 60.4487 73.3667 58.7813 73.3667C55.9617 73.3667 55.7117 70.0208 55.7063 68.6939H63.3839V68.1049C63.2764 65.1683 61.2595 63.1953 58.3659 63.1953C55.1173 63.1953 52.8477 65.728 52.8477 69.3566C52.8477 72.9852 55.0098 75.4358 58.2234 75.4358C60.9878 75.4358 62.8622 73.6661 63.5022 70.4552L63.6421 69.7354H62.2262L62.116 70.1823H62.1146ZM58.3471 64.713H58.3498C59.9982 64.713 60.4298 66.3435 60.5401 67.1692H55.8851C56.2616 65.6237 57.1679 64.713 58.3471 64.713Z" fill="#1D1D1D"/>
<path d="M68.7547 65.1076H68.7521V63.5342H64.4453V64.7971L64.9348 64.8709C65.8693 65.0213 65.9244 65.0296 65.9244 66.8481V71.7715C65.9244 73.5301 65.7846 73.6012 64.9455 73.7264L64.4534 73.8003V75.0631H70.5955V73.8003L70.0791 73.7432C68.7924 73.5984 68.7467 73.4327 68.7467 71.9595V68.679C68.7762 67.4009 69.6153 66.0321 71.893 66.0321C72.0557 66.0321 72.2117 66.0321 72.377 66.0489L72.9929 66.092V63.3936H72.2238C70.8805 63.4451 69.6354 64.0675 68.7534 65.109L68.7547 65.1076Z" fill="#1D1D1D"/>
<path d="M21.3148 59.1045C22.6917 59.1045 23.8131 60.2546 23.8131 61.8197C23.8131 63.4752 21.8836 64.4485 19.7564 65.4426C19.6489 65.4914 19.5399 65.5429 19.4324 65.593C18.4051 66.0706 17.3241 66.5747 16.4044 67.1929V61.097C16.4044 59.4289 16.4985 59.2841 17.6737 59.1449L18.19 59.0878V57.8096H11.6445V59.0878L12.1609 59.1449C13.3589 59.2925 13.4557 59.4373 13.4557 61.097V71.7822C13.4557 73.5839 13.3589 73.595 12.1635 73.7343L11.6472 73.7914V75.0696H18.1981V73.7747C16.8212 73.7747 15.6998 72.6246 15.6998 71.0595C15.6998 69.404 17.6293 68.4307 19.7564 67.4365C19.864 67.3878 19.9729 67.3363 20.0805 67.2861C21.1051 66.8086 22.1861 66.3073 23.1031 65.6891V71.7738C23.1031 73.4419 23.009 73.5868 21.8338 73.7259L21.3175 73.7831V75.0613H27.8656V73.7831L27.3493 73.7259C26.1513 73.5784 26.0545 73.4336 26.0545 71.7738V61.097C26.0545 59.3036 26.1513 59.2841 27.3346 59.1477L27.871 59.0878V57.8096H21.3148V59.1045Z" fill="#1D1D1D"/>
<path d="M85.0728 72.8952V72.3312L84.1826 73.1165C83.9958 73.2822 83.8963 73.3379 83.6744 73.3379C83.4243 73.3379 83.3745 72.8422 83.3745 72.4245V67.1348C83.3745 64.6369 81.9009 63.2041 79.3287 63.2041C76.9676 63.2041 74.3873 64.5241 74.3026 67.4272V67.4439H76.9985C76.9985 65.457 78.1091 64.7483 79.1498 64.7483C79.6473 64.7483 80.0346 64.8847 80.2767 65.1465C80.5186 65.4027 80.6396 65.812 80.6181 66.3022C80.5912 67.4829 80.0938 67.6765 78.1912 68.2376L78.0997 68.2682C76.0465 68.8293 73.8535 69.6314 73.8535 72.0931C73.8535 74.0967 75.1511 75.343 77.2419 75.343C78.6658 75.343 79.8827 74.7024 80.7257 73.5273C81.0229 74.651 81.7758 75.2775 82.8582 75.2775C83.704 75.2775 84.3668 74.9392 85.0122 74.1872L85.183 73.9937L85.0782 72.9007L85.0728 72.8952ZM77.8671 73.1513L77.8698 73.1541C76.8372 73.1541 76.6193 72.1558 76.6193 71.518C76.6193 70.4139 77.1612 70.1493 78.842 69.6175C79.5008 69.41 80.0897 69.2275 80.5711 68.9797C80.5213 71.376 79.4712 73.1513 77.8671 73.1513Z" fill="#1D1D1D"/>
<path d="M51.9769 73.731C51.1822 73.6084 51.037 73.575 51.037 71.7761V58.9271C51.037 58.6221 51.1822 58.3325 51.4242 58.1557L51.6851 57.9649V57L46.8298 57.9677V59.1053L47.3595 59.1485C47.935 59.2014 48.2228 59.6943 48.2228 60.6286V64.3365C47.4254 63.6222 46.3847 63.2351 45.2351 63.2351C42.2998 63.2351 40.248 65.7512 40.248 69.3561C40.248 72.961 42.1547 75.2807 44.989 75.2807H44.9971C46.3054 75.2807 47.3986 74.7822 48.1959 73.8242V75.0677H52.5026V73.8047L52.0105 73.731H51.9769ZM48.2228 69.104C48.2228 71.2093 47.5168 73.4553 45.5403 73.4553C43.4374 73.4553 43.2102 70.5925 43.2102 69.363C43.2102 66.6687 44.1998 64.9951 45.7904 64.9951C46.8782 64.9951 47.8517 65.7177 48.2308 66.7969L48.2228 69.1026V69.104Z" fill="#1D1D1D"/>
<path d="M92.5964 58.8975H87.5391V75.2831H92.6177C98.2208 75.2831 101.857 71.9483 101.857 67.0792C101.857 62.21 98.1995 58.8975 92.5964 58.8975ZM92.533 73.5078V73.505H89.8585V60.6728H92.533C96.7978 60.6728 99.4936 63.271 99.4936 67.1014C99.4936 70.9319 96.7764 73.5078 92.533 73.5078Z" fill="#1D1D1D"/>
<path d="M111.469 73.2694L108.918 69.8287L111.259 66.7126L112.765 64.7006H110.591L109.232 66.6276L107.916 68.4893L106.515 66.6053L105.114 64.6992H102.795C103.298 65.3703 103.798 66.0192 104.301 66.7112L106.725 69.9582L104.301 73.2485C103.819 73.8973 103.277 74.6339 102.773 75.2827H105.011C105.429 74.6966 105.866 74.0254 106.327 73.3556L107.728 71.3214L109.255 73.3556V73.3529L110.657 75.28H112.998C112.473 74.6088 111.847 73.7664 111.47 73.2679L111.469 73.2694Z" fill="#1D1D1D"/>
<mask id="mask0_2070_2514" style="mask-type:luminance" maskUnits="userSpaceOnUse" x="4" y="57" width="102" height="19">
<path d="M105.352 57H4V75.4352H105.352V57Z" fill="white"/>
</mask>
<g mask="url(#mask0_2070_2514)">
</g>
</svg>
