<svg width="127" height="129" viewBox="0 0 127 129" fill="none" xmlns="http://www.w3.org/2000/svg">
<rect width="127" height="129" rx="7" fill="#D5F5FC"/>
<path d="M77.5526 60.3593C76.3044 58.624 74.6073 57.5832 72.2606 57.5832C68.4162 57.5832 65.2713 60.7065 65.2713 64.5728C65.2713 68.4391 68.4168 71.5625 72.2606 71.5625C75.0563 71.5625 77.4529 69.9268 78.5509 67.547H71.3615V61.7962H84.5413V52.8738H96.2733V58.6245H90.1327V61.7974H96.2733V67.5481H90.1327V70.5223H96.2733V76.1239C96.4729 76.1239 84.5413 76.1239 84.5413 76.1239V67.6967C83.1435 74.0419 78.001 77.3138 72.26 77.3138C66.519 77.3138 61.7762 73.9428 60.4282 68.0435V76.223H54.6872V62.64C54.6872 62.64 51.3422 65.5646 51.3422 76.223H45.4011C45.4011 65.5646 42.0561 62.64 42.0561 62.64V76.223H36.2646V52.6255C42.9047 52.6255 47.2978 60.0615 48.3464 64.4237C49.3951 60.0615 53.7882 52.6255 60.4282 52.6255V60.4583C61.5772 55.253 66.8194 51.7334 72.311 51.7334C77.8026 51.7334 82.8447 55.947 83.8934 60.3593H77.5532H77.5526Z" fill="#0063C3"/>
<path d="M109.006 76.2222C108.158 69.8276 103.914 65.2667 103.914 65.2667V76.2222H97.7734V52.9727C99.1214 52.9727 104.014 55.6001 109.007 62.7383V52.9727H114.998V76.1727H109.007V76.2222H109.006Z" fill="#0063C3"/>
<path d="M21.5884 70.3723C21.4387 71.0168 20.3901 74.5859 19.991 76.2221H14C14.7987 73.2975 16.3462 68.2903 17.994 64.9193C19.5914 61.5978 21.5884 57.9297 24.9333 55.4508C26.4808 54.3105 29.4267 52.0798 34.9184 52.5757V76.2221H29.1269V70.3723H21.5884ZM29.1269 64.9688V59.4663C27.2795 60.7552 25.2825 63.1344 24.0848 64.9688H29.1269Z" fill="#0063C3"/>
</svg>
