<svg width="127" height="129" viewBox="0 0 127 129" fill="none" xmlns="http://www.w3.org/2000/svg">
<rect width="127" height="129" rx="7" fill="#FBD5FC"/>
<path fill-rule="evenodd" clip-rule="evenodd" d="M14 65.0002L24.8825 54.1211L35.7573 65.0029L24.8825 75.8784L14 65.0002ZM31.3087 61.7349C30.8565 62.2401 29.8707 63.5123 29.8707 65.0002C29.8707 66.4881 30.8565 67.7602 31.3087 68.2654C28.4041 68.1117 26.0819 65.0002 26.0819 65.0002C26.0819 65.0002 28.4041 61.8886 31.3087 61.7349ZM18.4645 61.7349C21.3689 61.8886 23.6912 65.0002 23.6912 65.0002C23.6912 65.0002 21.3689 68.1117 18.4645 68.2654C18.9166 67.7602 19.9025 66.4881 19.9025 65.0002C19.9025 63.5123 18.9166 62.2401 18.4645 61.7349ZM18.0043 61.7541C17.5448 62.2713 16.5829 63.5305 16.5829 65.0002C16.5829 66.4755 17.5523 67.7388 18.0097 68.2522L20.3623 70.6066L20.3733 70.5959C21.3151 69.6749 22.8808 68.4645 24.6657 68.3722C24.2164 68.8732 23.2254 70.1471 23.2254 71.6377C23.2254 73.1284 24.2164 74.4023 24.6657 74.9033L24.8825 75.1305L25.0994 74.9033C25.5487 74.4023 26.5397 73.1284 26.5397 71.6377C26.5397 70.1471 25.5487 68.8732 25.0994 68.3722C26.8913 68.4648 28.4622 69.6844 29.4028 70.6066L31.8109 68.1966L31.8165 68.1902C32.2926 67.6431 33.1902 66.4199 33.1902 65.0002C33.1902 63.5749 32.2856 62.3476 31.8109 61.8036L29.4141 59.4048L29.403 59.4157C28.4621 60.3379 26.8912 61.5574 25.0994 61.65C25.5487 61.149 26.5397 59.8752 26.5397 58.3845C26.5397 56.8938 25.5487 55.6199 25.0994 55.1189L24.8825 54.8698L24.6657 55.1189C24.2164 55.6199 23.2254 56.8938 23.2254 58.3845C23.2254 59.8752 24.2164 61.149 24.6657 61.65C22.8669 61.557 21.2907 60.3283 20.351 59.4048L18.0043 61.7541Z" fill="#F6297C"/>
<path d="M39.1045 70.0207L39.8199 69.986L40.5353 70.0207L40.3523 65.669L40.369 64.8683H49.1371L49.1537 65.669L48.9707 70.0207L49.6862 69.986L50.4016 70.0207L50.2185 65.669L50.4016 58.7236L49.6862 58.7584L48.9707 58.7236L49.0872 63.3539H40.4188L40.5353 58.7236L39.8199 58.7584L39.1045 58.7236L39.2874 65.669L39.1045 70.0207Z" fill="#F6297C"/>
<path d="M56.936 70.0207L57.6567 69.986L58.3774 70.0207L58.2433 65.6757V65.6409L60.0703 62.9297L63.3723 58.7236H61.3107L59.182 62.0606L57.6567 64.1636L56.1314 62.0954L53.9524 58.7236H52.0752L55.243 62.8775L57.0365 65.6409V65.6757L56.936 70.0207Z" fill="#F6297C"/>
<path d="M65.0459 58.7241L65.2227 65.6687L65.0459 70.02L66.4117 69.9852L69.8666 70.02C72.6626 70.0548 75.9246 68.8886 75.9246 64.2241C75.9246 60.569 73.5463 58.6893 70.2683 58.7241L66.4117 58.7589L65.0459 58.7241ZM66.251 65.6687L66.3957 60.2035H70.2683C72.5661 60.2035 74.9283 61.1086 74.9283 64.1893C74.9283 68.3839 71.2003 68.5231 70.0594 68.5231H66.3635L66.251 65.6687Z" fill="#F6297C"/>
<path d="M87.0201 70.0207L88.6931 69.9687L85.9723 65.6025L85.7189 65.1347C87.4932 64.9095 88.8958 64.0432 88.8958 61.9293C88.8958 59.3304 86.868 58.7067 84.6205 58.724L79.855 58.7586L78.4355 58.724L78.6214 65.6371L78.4355 69.9687L79.1622 69.9341L79.8888 69.9687L79.7198 65.204H84.4346L85.026 66.1743L87.0201 70.0207ZM84.2487 60.1794C86.6483 60.1794 87.8819 60.4046 87.8819 61.9466C87.8819 63.4714 86.6483 63.8006 84.2487 63.8006H79.7537L79.855 60.1794H84.2487Z" fill="#F6297C"/>
<path d="M100.501 70.0207H101.866L99.2529 64.5897L96.6065 58.7236L95.7911 58.7584L94.942 58.7236L92.4786 64.2242L89.7324 70.0207H91.3302L92.5454 67.1137H99.2529L100.501 70.0207ZM95.7911 59.9769L98.3205 64.9727L98.6206 65.6516H93.1612L93.5273 64.7812L95.7911 59.9769Z" fill="#F6297C"/>
<path d="M107.305 63.2663V58.7833H106.803V58.335H106.301V57.8867H102.284V64.1629H106.301V63.7145H106.803V63.2663H107.305ZM105.799 59.2316H106.301V62.818H105.799V63.2663H103.288V58.7833H105.799V59.2316Z" fill="#F6297C"/>
<path d="M109.858 60.1282H110.318V60.5765H110.778V61.473H110.318V61.9214H109.858V62.818H109.397V64.1629H110.318V63.2663H110.778V62.3697H111.239V61.9214H112.159V62.3697H112.619V63.2663H113.079V64.1629H114V62.818H113.54V61.9214H113.079V61.473H112.619V60.5765H113.079V60.1282H113.54V59.2316H114V57.8867H113.079V58.7833H112.619V59.6799H112.159V60.1282H111.239V59.6799H110.778V58.7833H110.318V57.8867H109.397V59.2316H109.858V60.1282Z" fill="#F6297C"/>
</svg>
